<?xml version="1.0" standalone="no"?>
<!DOCTYPE svg PUBLIC "-//W3C//DTD SVG 1.1//EN" "http://www.w3.org/Graphics/SVG/1.1/DTD/svg11.dtd" >
<svg>
<metadata>
Created by FontForge 20090914 at Thu May  7 15:51:36 2020
 By www-data
Copyright (c) 2016 by Typetype. Designer Ivan Gladkikh, technical designers Olga Yumartova, Olexa Volochay. All rights reserved.
</metadata>
<defs>
<font id="TTLakes-Bold" horiz-adv-x="595" >
  <font-face 
    font-family="TT Lakes"
    font-weight="700"
    font-stretch="normal"
    units-per-em="1000"
    panose-1="2 0 8 3 4 0 0 2 0 4"
    ascent="800"
    descent="-200"
    x-height="510"
    cap-height="700"
    bbox="-119.631 -335 1160 990.001"
    underline-thickness="50"
    underline-position="-100"
    unicode-range="U+000D-U+F6D4"
  />
<missing-glyph horiz-adv-x="0" 
 />
    <glyph glyph-name=".notdef" horiz-adv-x="0" 
 />
    <glyph glyph-name=".null" horiz-adv-x="0" 
 />
    <glyph glyph-name=".null" horiz-adv-x="0" 
 />
    <glyph glyph-name="nonmarkingreturn" unicode="&#xd;" horiz-adv-x="0" 
 />
    <glyph glyph-name="space" unicode=" " horiz-adv-x="210" 
 />
    <glyph glyph-name="exclam" unicode="!" horiz-adv-x="300" 
d="M195 135c16.667 0 25 -8.33301 25 -25v-85c0 -16.667 -8.33301 -25 -25 -25h-90c-16.667 -0 -25 8.33301 -25 25v85c0 16.667 8.33301 25 25 25h90zM230 410l-25.002 -170c-1.33301 -7.33301 -4.16602 -13.333 -8.49902 -18s-11.5 -7 -21.5 -7h-50
c-10 0 -17.167 2.33301 -21.5 7s-7.16602 10.667 -8.49902 18l-25 170v265c0 16.667 8.33301 25 25 25h110c16.667 0 25 -8.33301 25 -25v-265z" />
    <glyph glyph-name="quotedbl" unicode="&#x22;" horiz-adv-x="425" 
d="M340 700c16.667 0 25 -8.33301 25 -25v-190c0 -16.667 -8.33301 -25 -25 -25h-70c-16.667 0 -25 8.33301 -25 25v190c0 16.667 8.33301 25 25 25h70zM155 700c16.667 0 25 -8.33301 25 -25v-190c0 -16.667 -8.33301 -25 -25 -25h-70c-16.667 0 -25 8.33301 -25 25v190
c0 16.667 8.33301 25 25 25h70z" />
    <glyph glyph-name="numbersign" unicode="#" horiz-adv-x="740" 
d="M335 420l-40 -140h110l40 140h-110zM555 280h55c16.667 0 25 -8.33301 25 -25v-80c0 -16.667 -8.33301 -25 -25 -25h-90l-35 -125c-4.66699 -16.667 -14.667 -25 -30 -25h-105c-14.667 -0 -19.667 8.33301 -15 25l35 125h-110l-35 -125
c-4.66699 -16.667 -14.667 -25 -30 -25h-105c-14.667 -0 -19.667 8.33301 -15 25l35 125h-55c-16.667 0 -25 8.33301 -25 25v80c0 16.667 8.33301 25 25 25h90l40 140h-55c-16.667 0 -25 8.33301 -25 25v80c0 16.667 8.33301 25 25 25h90l35 125
c4.66699 16.667 14.667 25 30 25h105c14.667 0 19.667 -8.33301 15 -25l-35 -125h110l35 125c4.66699 16.667 14.667 25 30 25h105c14.667 0 19.667 -8.33301 15 -25l-35 -125h55c16.667 0 25 -8.33301 25 -25v-80c0 -16.667 -8.33301 -25 -25 -25h-90z" />
    <glyph glyph-name="dollar" unicode="$" horiz-adv-x="715" 
d="M450 130c36.667 0 55 18.334 55 55.001v20c0 24 -15 40.667 -45 50l-275 85c-40 12.667 -70 30.167 -90 52.5s-30 54.833 -30 97.5v45c0 116.667 58.333 175 175 175h55v55c0 16.667 8.33301 25 25 25h90c16.667 0 25 -8.33301 25 -25v-55h45
c116.667 0 175 -58.333 175 -175v-50c0 -16.667 -8.33301 -25 -25 -25h-110c-16.667 0 -25 8.33301 -25 25v30c0 36.667 -18.333 55 -55 55h-160c-36.667 0 -55 -18.333 -55 -55v-10c0 -24.667 15 -41.334 45 -50.001l275 -85c40 -12.667 70 -30.167 90 -52.5
s30 -54.833 30 -97.5v-55c0 -116.667 -58.333 -175 -175 -175h-55v-55c0 -16.667 -8.33301 -25 -25 -25h-90c-16.667 0 -25 8.33301 -25 25v55h-70c-116.667 0 -175 58.333 -175 175v50c0 16.667 8.33301 25 25 25h110c16.667 0 25 -8.33301 25 -25v-30
c0 -36.667 18.333 -55 55 -55h185z" />
    <glyph glyph-name="percent" unicode="%" horiz-adv-x="835" 
d="M30 580c0 45.333 10.333 78.333 31 99s53.667 31 99 31h55c45.333 0 78.333 -10.333 99 -31s31 -53.667 31 -99v-80c0 -45.333 -10.333 -78.333 -31 -99s-53.667 -31 -99 -31h-55c-45.333 0 -78.333 10.333 -99 31s-31 53.667 -31 99v80zM145 505
c0 -10 3.33301 -18.333 10 -25s15 -10 25 -10h15c10 0 18.333 3.33301 25 10s10 15 10 25v70c0 10 -3.33301 18.333 -10 25s-15 10 -25 10h-15c-10 0 -18.333 -3.33301 -25 -10s-10 -15 -10 -25v-70zM490 200c0 45.333 10.333 78.333 31 99s53.667 31 99 31h55
c45.333 0 78.333 -10.333 99 -31s31 -53.667 31 -99v-80c0 -45.333 -10.333 -78.333 -31 -99s-53.667 -31 -99 -31h-55c-45.333 0 -78.333 10.333 -99 31s-31 53.667 -31 99v80zM605 125c0 -10 3.33301 -18.333 10 -25s15 -10 25 -10h15c10 0 18.333 3.33301 25 10
s10 15 10 25v70c0 10 -3.33301 18.333 -10 25s-15 10 -25 10h-15c-10 0 -18.333 -3.33301 -25 -10s-10 -15 -10 -25v-70zM495 675c3.33301 7.33301 7.66602 13.333 12.999 18s14.333 7 27 7h95c7.33301 0 12.5 -2.33301 15.5 -7s2.83301 -10.667 -0.5 -18l-305 -650
c-3.33301 -7.33301 -7.66602 -13.333 -12.999 -18s-14.333 -7 -27 -7h-95c-7.33301 -0 -12.5 2.33301 -15.5 7s-2.83301 10.667 0.5 18z" />
    <glyph glyph-name="ampersand" unicode="&#x26;" horiz-adv-x="715" 
d="M485 265l44.999 45.001c9.33301 10.667 19.333 10.667 30 0l70 -65c9.33301 -8.66699 9.33301 -18.667 0 -30l-45 -45l145 -145c5.33301 -5.33301 6 -10.833 2 -16.5s-9.66699 -8.5 -17 -8.5h-145c-15.333 0 -26.5 2.33301 -33.5 7s-14.167 10.667 -21.5 18l-35 35
c-12.667 -13.333 -27 -25 -43 -35c-14 -9.33301 -30.667 -17.5 -50 -24.5s-41.666 -10.5 -66.999 -10.5h-95c-116.667 0 -175 58.333 -175 175v49c0 32.667 6.16699 58.667 18.5 78s26.166 34 41.499 44c17.333 12 37.333 20 60 24v10c-11.333 6 -21.333 14.667 -30 26
c-7.33301 9.33301 -14.166 21.666 -20.499 36.999s-9.5 34.333 -9.5 57v45c0 116.667 58.333 175 175 175h110c116.667 0 175 -58.333 175 -175v-25c0 -7.33301 -2.33301 -13.5 -7 -18.5s-10.667 -7.5 -18 -7.5h-100c-7.33301 0 -13.333 2.5 -18 7.5s-7 11.167 -7 18.5v5
c0 36.667 -18.333 55 -55 55h-40c-36.667 0 -55 -18.333 -55 -55c0 -10 2 -19.5 6 -28.5s8.66699 -17.167 14 -24.5c6 -8 12.667 -15.333 20 -22zM309.999 130.001c10 0 19 1.66699 27 5s14.667 7.33301 20 12c6.66699 5.33301 12.667 11.333 18 18l-110 110
c-36.667 0 -55 -18.333 -55 -55v-35c0 -36.667 18.333 -55 55 -55h45z" />
    <glyph glyph-name="quotesingle" unicode="'" horiz-adv-x="240" 
d="M155 700c16.667 0 25 -8.33301 25 -25v-190c0 -16.667 -8.33301 -25 -25 -25h-70c-16.667 0 -25 8.33301 -25 25v190c0 16.667 8.33301 25 25 25h70z" />
    <glyph glyph-name="parenleft" unicode="(" horiz-adv-x="400" 
d="M80 530c0 65.333 17 115 51 149s83.667 51 149 51h65c16.667 0 25 -8.33301 25 -25v-85c0 -16.667 -8.33301 -25 -25 -25h-30c-25.333 0 -45 -7 -59 -21s-21 -33.667 -21 -59v-470c0 -25.333 7 -45 21 -59s33.667 -21 59 -21h30c16.667 0 25 -8.33301 25 -25v-85
c0 -16.667 -8.33301 -25 -25 -25h-65c-65.333 0 -115 17 -149 51s-51 83.667 -51 149v500z" />
    <glyph glyph-name="parenright" unicode=")" horiz-adv-x="400" 
d="M320 30c0 -65.333 -17 -115 -51 -149s-83.667 -51 -149 -51h-65c-16.667 0 -25 8.33301 -25 25v85c0 16.667 8.33301 25 25 25h30c25.333 0 45 7 59 21s21 33.667 21 59v470c0 25.333 -7 45 -21 59s-33.667 21 -59 21h-30c-16.667 0 -25 8.33301 -25 25v85
c0 16.667 8.33301 25 25 25h65c65.333 0 115 -17 149 -51s51 -83.667 51 -149v-500z" />
    <glyph glyph-name="asterisk" unicode="*" horiz-adv-x="410" 
d="M230 700c16.667 0 24.9961 -8.33301 24.9961 -25v-80h90c16.667 0 25 -8.33301 25 -25v-50c0 -16.667 -8.33301 -25 -25 -25h-60l55 -55c5.33301 -5.33301 8 -11.166 8 -17.499s-2.66699 -12.166 -8 -17.499l-40 -40c-5.33301 -5.33301 -11.166 -8 -17.499 -8
s-12.166 2.66699 -17.499 8l-60 65l-60 -65c-5.33301 -5.33301 -11.166 -8 -17.499 -8s-12.166 2.66699 -17.499 8l-40 40c-5.33301 5.33301 -8 11.166 -8 17.499s2.66699 12.166 8 17.499l55 55h-60c-16.667 0 -25 8.33301 -25 25v50c0 16.667 8.33301 25 25 25h90v80
c0 16.667 8.33301 25 25 25h50z" />
    <glyph glyph-name="plus" unicode="+" horiz-adv-x="480" 
d="M305 125c0 -16.667 -8.33301 -25 -25 -25h-80c-16.667 0 -25 8.33301 -25 25v125h-120c-16.667 0 -25 8.33301 -25 25v80c0 16.667 8.33301 25 25 25h120v125c0 16.667 8.33301 25 25 25h80c16.667 0 25 -8.33301 25 -25v-125h120c16.667 0 25 -8.33301 25 -25v-80
c0 -16.667 -8.33301 -25 -25 -25h-120v-125z" />
    <glyph glyph-name="comma" unicode="," horiz-adv-x="220" 
d="M180 35c0 -7.33301 -0.833008 -14.333 -2.5 -21s-3.5 -12.667 -5.5 -18l-7 -16l-35 -70c-2.66699 -5.33301 -6.5 -10 -11.5 -14s-11.167 -6 -18.5 -6h-30c-7.33301 0 -12.333 2 -15 6s-2.66699 8.66699 0 14l45 90h-35c-16.667 -0 -25 8.33301 -25 25v85
c0 16.667 8.33301 25 25 25h90c16.667 0 25 -8.33301 25 -25v-75z" />
    <glyph glyph-name="hyphen" unicode="-" horiz-adv-x="465" 
d="M55 250c-16.667 0 -25 8.33301 -25 25v80c0 16.667 8.33301 25 25 25h355c16.667 0 25 -8.33301 25 -25v-80c0 -16.667 -8.33301 -25 -25 -25h-355z" />
    <glyph glyph-name="period" unicode="." horiz-adv-x="220" 
d="M155 135c16.667 0 25 -8.33301 25 -25v-85c0 -16.667 -8.33301 -25 -25 -25h-90c-16.667 -0 -25 8.33301 -25 25v85c0 16.667 8.33301 25 25 25h90z" />
    <glyph glyph-name="slash" unicode="/" horiz-adv-x="444" 
d="M257 675c2.66699 7.33301 6.66699 13.333 12 18s13 7 23 7h115c15.333 0 20.333 -8.33301 15 -25l-235 -650c-2.66699 -7.33301 -6.66699 -13.333 -12 -18s-13 -7 -23 -7h-115c-15.333 -0 -20.333 8.33301 -15 25z" />
    <glyph glyph-name="zero" unicode="0" horiz-adv-x="740" 
d="M670 165c0 -116.667 -58.333 -175 -175 -175h-250c-116.667 0 -175 58.333 -175 175v370c0 116.667 58.333 175 175 175h250c116.667 0 175 -58.333 175 -175v-370zM510 515c0 36.667 -18.333 55 -55 55h-170c-36.667 0 -55 -18.333 -55 -55v-330
c0 -36.667 18.333 -55 55 -55h170c36.667 0 55 18.333 55 55v330z" />
    <glyph glyph-name="one" unicode="1" horiz-adv-x="400" 
d="M160 560h-125c-16.667 0 -25 8.33301 -25 25v90c0 16.667 8.33301 25 25 25h260c16.667 0 25 -8.33301 25 -25v-650c0 -16.667 -8.33301 -25 -25 -25h-110c-16.667 -0 -25 8.33301 -25 25v535z" />
    <glyph glyph-name="two" unicode="2" horiz-adv-x="655" 
d="M405 430c12.667 10 22.5 20 29.5 30s10.5 25 10.5 45v10c0 36.667 -18.333 55 -55 55h-115c-36.667 0 -55 -18.333 -55 -55v-30c0 -16.667 -8.33301 -25 -25 -25h-110c-16.667 0 -25 8.33301 -25 25v50c0 116.667 58.333 175 175 175h195c116.667 0 175 -58.333 175 -175
v-50c0 -20 -2.33301 -37.667 -7 -53s-10.667 -28.833 -18 -40.5s-15.833 -22 -25.5 -31s-19.5 -17.5 -29.5 -25.5l-235 -185v-10h290c16.667 0 25 -8.33301 25 -25v-90c0 -16.667 -8.33301 -25 -25 -25h-505c-16.667 -0 -25 8.33301 -25 25v75c0 20 3.5 35 10.5 45
s16.833 20 29.5 30z" />
    <glyph glyph-name="three" unicode="3" horiz-adv-x="655" 
d="M205 370c0 15.333 2.83301 27.166 8.5 35.499s11.167 14.833 16.5 19.5l150 125v10h-290c-16.667 0 -25 8.33301 -25 25v90c0 16.667 8.33301 25 25 25h480c16.667 0 25 -8.33301 25 -25v-65c0 -15.333 -2.83301 -27.166 -8.5 -35.499s-11.167 -14.833 -16.5 -19.5
l-150 -125v-10h10c116.667 0 175 -58.333 175 -175v-80c0 -116.667 -58.333 -175 -175 -175h-215c-116.667 0 -175 58.333 -175 175v45c0 16.667 8.33301 25 25 25h110c16.667 0 25 -8.33301 25 -25v-25c0 -36.667 18.333 -55 55 -55h135c36.667 0 55 18.333 55 55v65
c0 36.667 -18.333 55 -55 55h-160c-16.667 0 -25 8.33301 -25 25v40z" />
    <glyph glyph-name="four" unicode="4" horiz-adv-x="645" 
d="M625 180c0 -16.667 -8.33301 -25 -25 -25h-55v-130c0 -16.667 -8.33301 -25 -25 -25h-110c-16.667 -0 -25 8.33301 -25 25v130h-350c-16.667 0 -25 8.33301 -25 25v75c0 12.667 2.33301 22.5 7 29.5s10.667 15.5 18 25.5l285 365c6 7.33301 12.333 13.333 19 18
s18.667 7 36 7h145c16.667 0 25 -8.33301 25 -25v-380h55c16.667 0 25 -8.33301 25 -25v-90zM200 305v-10h185v235h-10z" />
    <glyph glyph-name="five" unicode="5" horiz-adv-x="665" 
d="M240 445h200c116.667 0 175 -58.333 175 -175v-105c0 -116.667 -58.333 -175 -175 -175h-215c-116.667 0 -175 58.333 -175 175v40c0 16.667 8.33301 25 25 25h110c16.667 0 25 -8.33301 25 -25v-20c0 -36.667 18.333 -55 55 -55h135c36.667 0 55 18.333 55 55v65
c0 36.667 -18.333 55 -55 55h-295c-16.667 0 -25 8.33301 -25 25v345c0 16.667 8.33301 25 25 25h455c16.667 0 25 -8.33301 25 -25v-90c0 -16.667 -8.33301 -25 -25 -25h-320v-115z" />
    <glyph glyph-name="six" unicode="6" horiz-adv-x="680" 
d="M615 500c0 -16.667 -8.33301 -25 -25 -25h-110c-16.667 0 -25 8.33301 -25 25v15c0 36.667 -18.333 55 -55 55h-115c-36.667 0 -55 -18.333 -55 -55v-85h225c116.667 0 175 -58.333 175 -175v-90c0 -116.667 -58.333 -175 -175 -175h-210
c-116.667 0 -175 58.333 -175 175v370c0 116.667 58.333 175 175 175h195c116.667 0 175 -58.333 175 -175v-35zM415 130c36.667 0 55 18.333 55 55v50c0 36.667 -18.333 55 -55 55h-185v-105c0 -36.667 18.333 -55 55 -55h130z" />
    <glyph glyph-name="seven" unicode="7" horiz-adv-x="575" 
d="M555 620c0 -11.333 -1.00195 -21.833 -3.00195 -31.5s-4.33301 -18.167 -7 -25.5c-2.66699 -8 -6 -15.667 -10 -23l-235 -515c-3.33301 -7.33301 -8.16602 -13.333 -14.499 -18s-13.166 -7 -20.499 -7h-115c-7.33301 -0 -12.5 2.33301 -15.5 7s-2.83301 10.667 0.5 18
l240 525v10h-330c-16.667 0 -25 8.33301 -25 25v90c0 16.667 8.33301 25 25 25h485c16.667 0 25 -8.33301 25 -25v-55z" />
    <glyph glyph-name="eight" unicode="8" horiz-adv-x="700" 
d="M625 480c0 -24 -4.50098 -43.167 -13.501 -57.5s-18.833 -25.5 -29.5 -33.5c-12 -9.33301 -26 -15.666 -42 -18.999v-10c18.667 -4 35.334 -11.333 50.001 -22c12.667 -9.33301 24.167 -22.5 34.5 -39.5s15.5 -39.833 15.5 -68.5v-65c0 -116.667 -58.333 -175 -175 -175
h-230c-116.667 0 -175 58.333 -175 175v65c0 28.667 5.16699 51.5 15.5 68.5s21.833 30.167 34.5 39.5c14.667 10.667 31.334 18 50.001 22v10c-16.667 3.33301 -31 9.66602 -43 18.999c-10.667 8 -20.334 19.167 -29.001 33.5s-13 33.5 -13 57.5v55
c0 116.667 58.333 175 175 175h200c116.667 0 175 -58.333 175 -175v-55zM274.999 285c-36.667 0 -55 -18.333 -55 -55v-45c0 -36.667 18.333 -55 55 -55h150c36.667 0 55 18.333 55 55v45c0 36.667 -18.333 55 -55 55h-150zM289.999 570c-36.667 0 -55 -18.333 -55 -55v-35
c0 -36.667 18.333 -55 55 -55h120c36.667 0 55 18.333 55 55v35c0 36.667 -18.333 55 -55 55h-120z" />
    <glyph glyph-name="nine" unicode="9" horiz-adv-x="680" 
d="M65 200c0 16.667 8.33301 25 25 25h110c16.667 0 25 -8.33301 25 -25v-15c0 -36.667 18.333 -55 55 -55h115c36.667 0 55 18.333 55 55v85h-225c-116.667 0 -175 58.333 -175 175v90c0 116.667 58.333 175 175 175h210c116.667 0 175 -58.333 175 -175v-370
c0 -116.667 -58.333 -175 -175 -175h-195c-116.667 0 -175 58.333 -175 175v35zM265 570c-36.667 0 -55 -18.333 -55 -55v-50c0 -36.667 18.333 -55 55 -55h185v105c0 36.667 -18.333 55 -55 55h-130z" />
    <glyph glyph-name="colon" unicode=":" horiz-adv-x="220" 
d="M155 135c16.667 0 25 -8.33301 25 -25v-85c0 -16.667 -8.33301 -25 -25 -25h-90c-16.667 -0 -25 8.33301 -25 25v85c0 16.667 8.33301 25 25 25h90zM155 510c16.667 0 25 -8.33301 25 -25v-85c0 -16.667 -8.33301 -25 -25 -25h-90c-16.667 0 -25 8.33301 -25 25v85
c0 16.667 8.33301 25 25 25h90z" />
    <glyph glyph-name="semicolon" unicode=";" horiz-adv-x="220" 
d="M180 35c0 -7.33301 -0.833008 -14.333 -2.5 -21s-3.5 -12.667 -5.5 -18l-7 -16l-35 -70c-2.66699 -5.33301 -6.5 -10 -11.5 -14s-11.167 -6 -18.5 -6h-30c-7.33301 0 -12.333 2 -15 6s-2.66699 8.66699 0 14l45 90h-35c-16.667 -0 -25 8.33301 -25 25v85
c0 16.667 8.33301 25 25 25h90c16.667 0 25 -8.33301 25 -25v-75zM155 510c16.667 0 25 -8.33301 25 -25v-85c0 -16.667 -8.33301 -25 -25 -25h-90c-16.667 0 -25 8.33301 -25 25v85c0 16.667 8.33301 25 25 25h90z" />
    <glyph glyph-name="less" unicode="&#x3c;" horiz-adv-x="525" 
d="M30 285c0 10 2.33301 17.5 7 22.5s10.667 9.16699 18 12.5l415 170c16.667 6.66699 25 1.66699 25 -15v-90c0 -10 -2.33301 -17.5 -7 -22.5s-10.667 -9.16699 -18 -12.5l-245 -95v-10l245 -95c7.33301 -3.33301 13.333 -7.5 18 -12.5s7 -12.5 7 -22.5v-90
c0 -16.667 -8.33301 -21.667 -25 -15l-415 170c-7.33301 3.33301 -13.333 7.5 -18 12.5s-7 12.5 -7 22.5v70z" />
    <glyph glyph-name="equal" unicode="=" horiz-adv-x="465" 
d="M65 350c-16.667 0 -25 8.33301 -25 25v80c0 16.667 8.33301 25 25 25h335c16.667 0 25 -8.33301 25 -25v-80c0 -16.667 -8.33301 -25 -25 -25h-335zM65 130c-16.667 0 -25 8.33301 -25 25v80c0 16.667 8.33301 25 25 25h335c16.667 0 25 -8.33301 25 -25v-80
c0 -16.667 -8.33301 -25 -25 -25h-335z" />
    <glyph glyph-name="greater" unicode="&#x3e;" horiz-adv-x="525" 
d="M495 215c0 -10 -2.33301 -17.5 -7 -22.5s-10.667 -9.16699 -18 -12.5l-415 -170c-16.667 -6.66699 -25 -1.66699 -25 15v90c0 10 2.33301 17.5 7 22.5s10.667 9.16699 18 12.5l245 95v10l-245 95c-7.33301 3.33301 -13.333 7.5 -18 12.5s-7 12.5 -7 22.5v90
c0 16.667 8.33301 21.667 25 15l415 -170c7.33301 -3.33301 13.333 -7.5 18 -12.5s7 -12.5 7 -22.5v-70z" />
    <glyph glyph-name="question" unicode="?" horiz-adv-x="645" 
d="M40 535c0 116.667 58.332 175 174.999 175h205c116.667 0 175 -58.333 175 -175v-100c0 -116.667 -58.333 -175 -175 -175h-50l-5 -20c-2 -7.33301 -5 -13.333 -9 -18s-11 -7 -21 -7h-50c-10 0 -17.167 2.33301 -21.5 7s-7.16602 10.667 -8.49902 18l-25 125v10
c0 16.667 8.33301 25 25 25h125c36.667 0 55 18.333 55 55v60c0 36.667 -18.333 55 -55 55h-125c-36.667 0 -55 -18.333 -55 -55v-5c0 -16.667 -8.33301 -25 -25 -25h-110c-16.667 0 -25 8.33301 -25 25v25zM354.999 135c16.667 0 25 -8.33301 25 -25v-85
c0 -16.667 -8.33301 -25 -25 -25h-90c-16.667 -0 -25 8.33301 -25 25v85c0 16.667 8.33301 25 25 25h90z" />
    <glyph glyph-name="at" unicode="@" horiz-adv-x="995" 
d="M455 210c0 -26.667 13.333 -40 40 -40h50c20 0 30 10 30 30v120c0 20 -10 30 -30 30h-50c-26.667 0 -40 -13.333 -40 -40v-100zM610 55c-16.667 0 -25 8.33398 -25 25.001v15h-10c-1.33301 -8.66699 -4.33301 -16.334 -9 -23.001c-4 -5.33301 -10.167 -10.333 -18.5 -15
s-19.166 -7 -32.499 -7h-65c-38 0 -68.333 11.333 -91 34s-34 53 -34 91v170c0 38 11.333 68.333 34 91s53 34 91 34h55c13.333 0 24.166 -2.5 32.499 -7.5s14.5 -10.167 18.5 -15.5c4.66699 -6.66699 7.66699 -14 9 -22h10v15c0 16.667 8.33301 25 25 25h80
c16.667 0 25 -8.33301 25 -25v-260h50c20 0 35.833 5.83301 47.5 17.5s17.5 27.5 17.5 47.5v260c0 20 -5.83301 35.833 -17.5 47.5s-27.5 17.5 -47.5 17.5h-475c-20 0 -35.833 -5.83301 -47.5 -17.5s-17.5 -27.5 -17.5 -47.5v-490c0 -20 5.83301 -35.833 17.5 -47.5
s27.5 -17.5 47.5 -17.5h550c16.667 0 25 -8.33301 25 -25v-75c0 -16.667 -8.33301 -25 -25 -25h-575c-116.667 0 -175 58.333 -175 175v520c0 116.667 58.333 175 175 175h525c116.667 0 175 -58.333 175 -175v-290c0 -116.667 -58.333 -175 -175 -175h-170z" />
    <glyph glyph-name="A" unicode="A" horiz-adv-x="736" 
d="M233 145l-45 -120c-3.33301 -7.33301 -7.5 -13.333 -12.5 -18s-12.5 -7 -22.5 -7h-125c-16.667 -0 -21.667 8.33301 -15 25l245 650c6.66699 16.667 20 25 40 25h145c10 0 17.5 -2.33301 22.5 -7s9.16699 -10.667 12.5 -18l245 -650c6.66699 -16.667 1.66699 -25 -15 -25
h-125c-10 -0 -17.5 2.33301 -22.5 7s-9.16699 10.667 -12.5 18l-45 120h-270zM453 285l-80 215h-10l-80 -215h170z" />
    <glyph glyph-name="B" unicode="B" horiz-adv-x="745" 
d="M80 675c0 16.667 8.33398 24.999 25.001 24.999h375c116.667 0 175 -58.333 175 -175v-35c0 -24 -3.66699 -43.167 -11 -57.5s-15.333 -25.5 -24 -33.5c-10.667 -9.33301 -22.334 -15.666 -35.001 -18.999v-10c20 -4 38.333 -11.333 55 -22
c13.333 -9.33301 25.833 -22.5 37.5 -39.5s17.5 -39.833 17.5 -68.5v-65c0 -116.667 -58.333 -175 -175 -175h-415c-16.667 -0 -25 8.33301 -25 25v650zM480.001 139.999c36.667 0 55 18.333 55 55v45c0 36.667 -18.333 55 -55 55h-240v-155h240zM240.001 559.999v-125h200
c36.667 0 55 18.333 55 55v15c0 36.667 -18.333 55 -55 55h-200z" />
    <glyph glyph-name="C" unicode="C" horiz-adv-x="770" 
d="M710 485c0 -16.667 -8.33301 -25 -25 -25h-110c-16.667 0 -25 8.33301 -25 25v30c0 36.667 -18.333 55 -55 55h-210c-36.667 0 -55 -18.333 -55 -55v-330c0 -36.667 18.333 -55 55 -55h210c36.667 0 55 18.333 55 55v30c0 16.667 8.33301 25 25 25h110
c16.667 0 25 -8.33301 25 -25v-50c0 -116.667 -58.333 -175 -175 -175h-290c-116.667 0 -175 58.333 -175 175v370c0 116.667 58.333 175 175 175h290c116.667 0 175 -58.333 175 -175v-50z" />
    <glyph glyph-name="D" unicode="D" horiz-adv-x="790" 
d="M545 700c116.667 0 175 -58.333 175 -175v-350c0 -116.667 -58.333 -175 -175 -175h-440c-16.667 -0 -25 8.33301 -25 25v650c0 16.667 8.33301 25 25 25h440zM240 140h265c36.667 0 55 18.333 55 55v310c0 36.667 -18.333 55 -55 55h-265v-420z" />
    <glyph glyph-name="E" unicode="E" horiz-adv-x="690" 
d="M240 140h395c16.667 0 25 -8.33301 25 -25v-90c0 -16.667 -8.33301 -25 -25 -25h-530c-16.667 -0 -25 8.33301 -25 25v650c0 16.667 8.33301 25 25 25h520c16.667 0 25 -8.33301 25 -25v-90c0 -16.667 -8.33301 -25 -25 -25h-385v-135h295c16.667 0 25 -8.33301 25 -25
v-90c0 -16.667 -8.33301 -25 -25 -25h-295v-145z" />
    <glyph glyph-name="F" unicode="F" horiz-adv-x="675" 
d="M240 25c0 -16.667 -8.33301 -25 -25 -25h-110c-16.667 -0 -25 8.33301 -25 25v650c0 16.667 8.33301 25 25 25h525c16.667 0 25 -8.33301 25 -25v-90c0 -16.667 -8.33301 -25 -25 -25h-390v-165h260c16.667 0 25 -8.33301 25 -25v-90c0 -16.667 -8.33301 -25 -25 -25
h-260v-230z" />
    <glyph glyph-name="G" unicode="G" horiz-adv-x="780" 
d="M710 165c0 -116.667 -58.333 -175 -175 -175h-290c-116.667 0 -175 58.333 -175 175v370c0 116.667 58.333 175 175 175h290c116.667 0 175 -58.333 175 -175v-50c0 -16.667 -8.33301 -25 -25 -25h-110c-16.667 0 -25 8.33301 -25 25v30c0 36.667 -18.333 55 -55 55h-210
c-36.667 0 -55 -18.333 -55 -55v-330c0 -36.667 18.333 -55 55 -55h210c36.667 0 55 18.333 55 55v65h-130c-16.667 0 -25 8.33301 -25 25v90c0 16.667 8.33301 25 25 25h265c16.667 0 25 -8.33301 25 -25v-200z" />
    <glyph glyph-name="H" unicode="H" horiz-adv-x="785" 
d="M240 420h305v255c0 16.667 8.33301 25 25 25h110c16.667 0 25 -8.33301 25 -25v-650c0 -16.667 -8.33301 -25 -25 -25h-110c-16.667 -0 -25 8.33301 -25 25v255h-305v-255c0 -16.667 -8.33301 -25 -25 -25h-110c-16.667 -0 -25 8.33301 -25 25v650
c0 16.667 8.33301 25 25 25h110c16.667 0 25 -8.33301 25 -25v-255z" />
    <glyph glyph-name="I" unicode="I" horiz-adv-x="320" 
d="M240 25c0 -16.667 -8.33301 -25 -25 -25h-110c-16.667 -0 -25 8.33301 -25 25v650c0 16.667 8.33301 25 25 25h110c16.667 0 25 -8.33301 25 -25v-650z" />
    <glyph glyph-name="J" unicode="J" horiz-adv-x="695" 
d="M615 165c0 -116.667 -58.333 -175 -175 -175h-235c-116.667 0 -175 58.333 -175 175v70c0 16.667 8.33301 25 25 25h110c16.667 0 25 -8.33301 25 -25v-50c0 -36.667 18.333 -55 55 -55h155c36.667 0 55 18.333 55 55v490c0 16.667 8.33301 25 25 25h110
c16.667 0 25 -8.33301 25 -25v-510z" />
    <glyph glyph-name="K" unicode="K" horiz-adv-x="719" 
d="M240 435h135l130 240c4 7.33301 9.16699 13.333 15.5 18s14.5 7 24.5 7h125c7.33301 0 12.666 -2.33301 15.999 -7s3 -10.667 -1 -18l-170 -305l190 -345c4 -7.33301 4.33301 -13.333 1 -18s-8.66602 -7 -15.999 -7h-125c-10 -0 -18.167 2.33301 -24.5 7
s-11.5 10.667 -15.5 18l-145 270h-140v-270c0 -16.667 -8.33301 -25 -25 -25h-110c-16.667 -0 -25 8.33301 -25 25v650c0 16.667 8.33301 25 25 25h110c16.667 0 25 -8.33301 25 -25v-240z" />
    <glyph glyph-name="L" unicode="L" horiz-adv-x="650" 
d="M240 140h375c16.667 0 25 -8.33301 25 -25v-90c0 -16.667 -8.33301 -25 -25 -25h-510c-16.667 -0 -25 8.33301 -25 25v650c0 16.667 8.33301 25 25 25h110c16.667 0 25 -8.33301 25 -25v-535z" />
    <glyph glyph-name="M" unicode="M" horiz-adv-x="1000" 
d="M470 0c-10 0 -18.333 2.33301 -25 7s-11.667 10.667 -15 18l-180 395h-10v-395c0 -16.667 -8.33301 -25 -25 -25h-110c-16.667 -0 -25 8.33301 -25 25v650c0 16.667 8.33301 25 25 25h145c10 0 18.333 -2.33301 25 -7s11.667 -10.667 15 -18l205 -450h10l205 450
c3.33301 7.33301 8.33301 13.333 15 18s15 7 25 7h145c16.667 0 25 -8.33301 25 -25v-650c0 -16.667 -8.33301 -25 -25 -25h-110c-16.667 -0 -25 8.33301 -25 25v395h-10l-180 -395c-3.33301 -7.33301 -8.33301 -13.333 -15 -18s-15 -7 -25 -7h-60z" />
    <glyph glyph-name="N" unicode="N" horiz-adv-x="800" 
d="M560 245v430c0 16.667 8.33301 25 25 25h110c16.667 0 25 -8.33301 25 -25v-650c0 -16.667 -8.33301 -25 -25 -25h-135c-10 -0 -17.833 2.33301 -23.5 7s-11.167 10.667 -16.5 18l-270 430h-10v-430c0 -16.667 -8.33301 -25 -25 -25h-110c-16.667 -0 -25 8.33301 -25 25
v650c0 16.667 8.33301 25 25 25h135c10 0 17.833 -2.33301 23.5 -7s11.167 -10.667 16.5 -18l270 -430h10z" />
    <glyph glyph-name="O" unicode="O" horiz-adv-x="795" 
d="M725 165c0 -116.667 -58.333 -175 -175 -175h-305c-116.667 0 -175 58.333 -175 175v370c0 116.667 58.333 175 175 175h305c116.667 0 175 -58.333 175 -175v-370zM565 515c0 36.667 -18.333 55 -55 55h-225c-36.667 0 -55 -18.333 -55 -55v-330
c0 -36.667 18.333 -55 55 -55h225c36.667 0 55 18.333 55 55v330z" />
    <glyph glyph-name="P" unicode="P" horiz-adv-x="750" 
d="M240 205v-180c0 -16.667 -8.33301 -25 -25 -25h-110c-16.667 -0 -25 8.33301 -25 25v650c0 16.667 8.33301 25 25 25h410c116.667 0 175 -58.333 175 -175v-145c0 -116.667 -58.333 -175 -175 -175h-275zM240 560v-215h235c36.667 0 55 18.333 55 55v105
c0 36.667 -18.333 55 -55 55h-235z" />
    <glyph glyph-name="Q" unicode="Q" horiz-adv-x="803" 
d="M725 165c0 -9.33301 -0.501953 -17.334 -1.50195 -24.001s-2.16699 -12.334 -3.5 -17.001c-2 -5.33301 -3.66699 -10 -5 -14l90 -95c5.33301 -5.33301 8 -11.166 8 -17.499s-2.66699 -12.166 -8 -17.499l-75 -75c-5.33301 -5.33301 -11.166 -8 -17.499 -8
s-12.166 2.66699 -17.499 8l-90 95c-4.66699 -2 -10 -3.66699 -16 -5c-11.333 -3.33301 -24.333 -5 -39 -5h-305c-116.667 0 -175 58.333 -175 175v370c0 116.667 58.333 175 175 175h305c116.667 0 175 -58.333 175 -175v-370zM564.998 514.999c0 36.667 -18.333 55 -55 55
h-225c-36.667 0 -55 -18.333 -55 -55v-330c0 -36.667 18.333 -55 55 -55h225c36.667 0 55 18.333 55 55v330z" />
    <glyph glyph-name="R" unicode="R" horiz-adv-x="749" 
d="M690 395c0 -38 -5.83398 -67.833 -17.501 -89.5s-24.167 -38.167 -37.5 -49.5c-16.667 -13.333 -35 -22 -55 -26l115 -205c4 -7.33301 4.33301 -13.333 1 -18s-8.66602 -7 -15.999 -7h-120c-10 -0 -18.167 2.33301 -24.5 7s-11.5 10.667 -15.5 18l-105 195h-175v-195
c0 -16.667 -8.33301 -25 -25 -25h-110c-16.667 -0 -25 8.33301 -25 25v650c0 16.667 8.33301 25 25 25h410c116.667 0 175 -58.333 175 -175v-130zM239.999 560v-200h235c36.667 0 55 18.333 55 55v90c0 36.667 -18.333 55 -55 55h-235z" />
    <glyph glyph-name="S" unicode="S" horiz-adv-x="715" 
d="M505 205c0 24 -15 40.668 -45 50.001l-275 85c-40 12.667 -70 30.167 -90 52.5s-30 54.833 -30 97.5v45c0 116.667 58.333 175 175 175h240c116.667 0 175 -58.333 175 -175v-50c0 -16.667 -8.33301 -25 -25 -25h-110c-16.667 0 -25 8.33301 -25 25v30
c0 36.667 -18.333 55 -55 55h-160c-36.667 0 -55 -18.333 -55 -55v-10c0 -24.667 15 -41.334 45 -50.001l275 -85c40 -12.667 70 -30.167 90 -52.5s30 -54.833 30 -97.5v-55c0 -116.667 -58.333 -175 -175 -175h-265c-116.667 0 -175 58.333 -175 175v50
c0 16.667 8.33301 25 25 25h110c16.667 0 25 -8.33301 25 -25v-30c0 -36.667 18.333 -55 55 -55h185c36.667 0 55 18.333 55 55v20z" />
    <glyph glyph-name="T" unicode="T" horiz-adv-x="630" 
d="M395 25c0 -16.667 -8.33301 -25 -25 -25h-110c-16.667 -0 -25 8.33301 -25 25v535h-200c-16.667 0 -25 8.33301 -25 25v90c0 16.667 8.33301 25 25 25h560c16.667 0 25 -8.33301 25 -25v-90c0 -16.667 -8.33301 -25 -25 -25h-200v-535z" />
    <glyph glyph-name="U" unicode="U" horiz-adv-x="790" 
d="M80 675c0 16.667 8.33301 25 25 25h110c16.667 0 25 -8.33301 25 -25v-490c0 -36.667 18.333 -55 55 -55h200c36.667 0 55 18.333 55 55v490c0 16.667 8.33301 25 25 25h110c16.667 0 25 -8.33301 25 -25v-510c0 -116.667 -58.333 -175 -175 -175h-280
c-116.667 0 -175 58.333 -175 175v510z" />
    <glyph glyph-name="V" unicode="V" horiz-adv-x="696" 
d="M343 255h10l165 420c3.33301 7.33301 7.5 13.333 12.5 18s12.5 7 22.5 7h125c16.667 0 21.667 -8.33301 15 -25l-270 -650c-6.66699 -16.667 -20 -25 -40 -25h-70c-20 -0 -33.333 8.33301 -40 25l-270 650c-6.66699 16.667 -1.66699 25 15 25h125
c10 0 17.5 -2.33301 22.5 -7s9.16699 -10.667 12.5 -18z" />
    <glyph glyph-name="W" unicode="W" horiz-adv-x="964" 
d="M477 430l-120.003 -405c-2.66699 -7.33301 -6.66699 -13.333 -12 -18s-13 -7 -23 -7h-80c-10 -0 -17.667 2.33301 -23 7s-9.33301 10.667 -12 18l-195 650c-5.33301 16.667 -0.333008 25 15 25h115c18.667 0 30.334 -8.33301 35.001 -25l110 -390h10l110 390
c4.66699 16.667 16.334 25 35.001 25h80c18.667 0 30.334 -8.33301 35.001 -25l110 -390h10l110 390c4.66699 16.667 16.334 25 35.001 25h115c15.333 0 20.333 -8.33301 15 -25l-195 -650c-2.66699 -7.33301 -6.66699 -13.333 -12 -18s-13 -7 -23 -7h-80
c-18.667 -0 -30.334 8.33301 -35.001 25l-120 405h-10z" />
    <glyph glyph-name="X" unicode="X" horiz-adv-x="680" 
d="M345 490l120 185c5.33301 7.33301 10.833 13.333 16.5 18s13.5 7 23.5 7h130c7.33301 0 13 -2.33301 17 -7s3.33301 -10.667 -2 -18l-210 -305l235 -345c5.33301 -7.33301 6 -13.333 2 -18s-9.66699 -7 -17 -7h-130c-10 -0 -17.833 2.33301 -23.5 7
s-11.167 10.667 -16.5 18l-145 220h-10l-145 -220c-5.33301 -7.33301 -10.833 -13.333 -16.5 -18s-13.5 -7 -23.5 -7h-130c-7.33301 -0 -13 2.33301 -17 7s-3.33301 10.667 2 18l235 345l-210 305c-5.33301 7.33301 -6 13.333 -2 18s9.66699 7 17 7h130
c10 0 17.833 -2.33301 23.5 -7s11.167 -10.667 16.5 -18l120 -185h10z" />
    <glyph glyph-name="Y" unicode="Y" horiz-adv-x="698" 
d="M344 410h10l155 265c4.66699 7.33301 10 13.333 16 18s14 7 24 7h130c7.33301 0 12.833 -2.33301 16.5 -7s3.16699 -10.667 -1.5 -18l-265 -435v-215c0 -16.667 -8.33301 -25 -25 -25h-110c-16.667 -0 -25 8.33301 -25 25v215l-265 435
c-4.66699 7.33301 -5.16699 13.333 -1.5 18s9.16699 7 16.5 7h130c10 0 18 -2.33301 24 -7s11.333 -10.667 16 -18z" />
    <glyph glyph-name="Z" unicode="Z" horiz-adv-x="655" 
d="M415 560h-350c-16.667 0 -25 8.33301 -25 25v90c0 16.667 8.33301 25 25 25h530c16.667 0 25 -8.33301 25 -25v-90c0 -20 -2.33301 -34 -7 -42s-10.667 -15.667 -18 -23l-360 -370v-10h365c16.667 0 25 -8.33301 25 -25v-90c0 -16.667 -8.33301 -25 -25 -25h-545
c-16.667 -0 -25 8.33301 -25 25v90c0 20 2.33301 34 7 42s10.667 15.667 18 23l360 370v10z" />
    <glyph glyph-name="bracketleft" unicode="[" horiz-adv-x="385" 
d="M235 -35h95c16.667 0 25 -8.33301 25 -25v-85c0 -16.667 -8.33301 -25 -25 -25h-225c-16.667 0 -25 8.33301 -25 25v850c0 16.667 8.33301 25 25 25h225c16.667 0 25 -8.33301 25 -25v-85c0 -16.667 -8.33301 -25 -25 -25h-95v-630z" />
    <glyph glyph-name="backslash" unicode="\" horiz-adv-x="444" 
d="M422 25c5.33301 -16.667 0.333008 -25 -15 -25h-115c-10 -0 -17.667 2.33301 -23 7s-9.33301 10.667 -12 18l-235 650c-5.33301 16.667 -0.333008 25 15 25h115c10 0 17.667 -2.33301 23 -7s9.33301 -10.667 12 -18z" />
    <glyph glyph-name="bracketright" unicode="]" horiz-adv-x="385" 
d="M150 595h-95c-16.667 0 -25 8.33301 -25 25v85c0 16.667 8.33301 25 25 25h225c16.667 0 25 -8.33301 25 -25v-850c0 -16.667 -8.33301 -25 -25 -25h-225c-16.667 0 -25 8.33301 -25 25v85c0 16.667 8.33301 25 25 25h95v630z" />
    <glyph glyph-name="asciicircum" unicode="^" horiz-adv-x="516" 
d="M168 360c-3.33301 -7.33301 -7.5 -13.333 -12.5 -18s-12.5 -7 -22.5 -7h-95c-7.33301 0 -12.5 2.33301 -15.5 7s-2.83301 10.667 0.5 18l155 315c3.33301 7.33301 8.33301 13.333 15 18s15 7 25 7h80c10 0 18.333 -2.33301 25 -7s11.667 -10.667 15 -18l155 -315
c3.33301 -7.33301 3.5 -13.333 0.5 -18s-8.16699 -7 -15.5 -7h-95c-10 0 -17.5 2.33301 -22.5 7s-9.16699 10.667 -12.5 18l-85 180h-10z" />
    <glyph glyph-name="underscore" unicode="_" horiz-adv-x="405" 
d="M25 -215c-16.667 0 -25 8.33301 -25 25v80c-0 16.667 8.33301 25 25 25h355c16.667 0 25 -8.33301 25 -25v-80c0 -16.667 -8.33301 -25 -25 -25h-355z" />
    <glyph glyph-name="grave" unicode="`" horiz-adv-x="263" 
d="M35 675c-5.33301 7.33301 -6.00195 13.333 -2.00195 18s9.66699 7 17 7h95c10 0 17.5 -2.33301 22.5 -7s9.16699 -10.667 12.5 -18l50 -130c6.66699 -16.667 1.66699 -25 -15 -25h-60c-7.33301 0 -13.666 2.33301 -18.999 7s-10.666 10.667 -15.999 18z" />
    <glyph glyph-name="a" unicode="a" horiz-adv-x="560" 
d="M240 395c-20 0 -30 -10.001 -30 -30.001c0 -16.667 -8.33301 -25 -25 -25h-90c-16.667 0 -25 8.33301 -25 25c0 50 13.333 88.333 40 115s65 40 115 40h120c50 0 88.333 -13.333 115 -40s40 -65 40 -115v-340c0 -16.667 -8.33301 -25 -25 -25h-90
c-16.667 0 -25 8.33301 -25 25v25h-10c-2 -11.333 -6.66699 -21.333 -14 -30c-6 -7.33301 -14.667 -14.166 -26 -20.499s-26.333 -9.5 -45 -9.5h-80c-96.667 0 -145 48.333 -145 145v30c0 96.667 48.333 145 145 145h175v35c0 15.333 -4.5 27.5 -13.5 36.5
s-21.167 13.5 -36.5 13.5h-70zM180 144.999c0 -26.667 13.333 -40 40 -40h85c36.667 0 55 18.333 55 55v40h-140c-26.667 0 -40 -13.333 -40 -40v-15z" />
    <glyph glyph-name="b" unicode="b" horiz-adv-x="605" 
d="M95 0c-16.667 0 -25 8.33301 -25 25v650c0 16.667 8.33301 25 25 25h90c16.667 0 25 -8.33301 25 -25v-165h180c50 0 88.333 -13.333 115 -40s40 -65 40 -115v-200c0 -50 -13.333 -88.333 -40 -115s-65 -40 -115 -40h-295zM210 385v-260h145c15.333 0 27.5 4.5 36.5 13.5
s13.5 21.167 13.5 36.5v160c0 15.333 -4.5 27.5 -13.5 36.5s-21.167 13.5 -36.5 13.5h-145z" />
    <glyph glyph-name="c" unicode="c" horiz-adv-x="585" 
d="M535 325c0 -16.667 -8.33301 -25 -25 -25h-90c-16.667 0 -25 8.33301 -25 25v20c0 15.333 -4.5 27.5 -13.5 36.5s-21.167 13.5 -36.5 13.5h-95c-15.333 0 -27.5 -4.5 -36.5 -13.5s-13.5 -21.167 -13.5 -36.5v-180c0 -15.333 4.5 -27.5 13.5 -36.5
s21.167 -13.5 36.5 -13.5h95c15.333 0 27.5 4.5 36.5 13.5s13.5 21.167 13.5 36.5v20c0 16.667 8.33301 25 25 25h90c16.667 0 25 -8.33301 25 -25v-40c0 -50 -13.333 -88.333 -40 -115s-65 -40 -115 -40h-165c-50 0 -88.333 13.333 -115 40s-40 65 -40 115v220
c0 50 13.333 88.333 40 115s65 40 115 40h165c50 0 88.333 -13.333 115 -40s40 -65 40 -115v-40z" />
    <glyph glyph-name="d" unicode="d" horiz-adv-x="605" 
d="M215 -10c-50 0 -88.333 13.332 -115 39.999s-40 65 -40 115v210c0 50 13.333 88.333 40 115s65 40 115 40h180v165c0 16.667 8.33301 25 25 25h90c16.667 0 25 -8.33301 25 -25v-650c0 -16.667 -8.33301 -25 -25 -25h-90c-16.667 0 -25 8.33301 -25 25v25h-10
c-2 -11.333 -6.66699 -21.333 -14 -30c-6 -7.33301 -14.667 -14.166 -26 -20.499s-26.333 -9.5 -45 -9.5h-85zM250 384.999c-15.333 0 -27.499 -4.49902 -36.499 -13.499s-13.5 -21.167 -13.5 -36.5v-170c0 -15.333 4.5 -27.5 13.5 -36.5s21.167 -13.5 36.5 -13.5h85
c17.333 0 31.666 5.66699 42.999 17s17 25.666 17 42.999v210h-145z" />
    <glyph glyph-name="e" unicode="e" 
d="M360 115c20 0 30 10 30 30c0 16.667 8.33301 25 25 25h90c16.667 0 25 -8.33301 25 -25c0 -50 -13.333 -88.333 -40 -115s-65 -40 -115 -40h-160c-50 0 -88.333 13.333 -115 40s-40 65 -40 115v220c0 50 13.333 88.333 40 115s65 40 115 40h165
c50 0 88.333 -13.333 115 -40s40 -65 40 -115v-130c0 -16.667 -8.33301 -25 -25 -25h-310v-45c0 -15.333 4.5 -27.5 13.5 -36.5s21.167 -13.5 36.5 -13.5h110zM200 320h195v30c0 15.333 -4.5 27.5 -13.5 36.5s-21.167 13.5 -36.5 13.5h-95c-15.333 0 -27.5 -4.5 -36.5 -13.5
s-13.5 -21.167 -13.5 -36.5v-30z" />
    <glyph glyph-name="f" unicode="f" horiz-adv-x="390" 
d="M255 355v-330c0 -16.667 -8.33301 -25 -25 -25h-90c-16.667 -0 -25 8.33301 -25 25v330h-50c-16.667 0 -25 8.33301 -25 25v75c0 16.667 8.33301 25 25 25h50v65c0 50 13.333 88.333 40 115s65 40 115 40h85c16.667 0 25 -8.33301 25 -25v-75
c0 -16.667 -8.33301 -25 -25 -25h-50c-15.333 0 -27.5 -4.5 -36.5 -13.5s-13.5 -21.167 -13.5 -36.5v-45h80c16.667 0 25 -8.33301 25 -25v-75c0 -16.667 -8.33301 -25 -25 -25h-80z" />
    <glyph glyph-name="g" unicode="g" 
d="M300 520c18.667 0 33.667 -3.16797 45 -9.50098s20 -13.166 26 -20.499c7.33301 -8.66699 12 -18.667 14 -30h10v25c0 16.667 8.33301 25 25 25h90c16.667 0 25 -8.33301 25 -25v-530c0 -50 -13.333 -88.333 -40 -115s-65 -40 -115 -40h-155
c-50 0 -88.333 13.333 -115 40s-40 65 -40 115v20c0 16.667 8.33301 25 25 25h90c16.667 0 25 -8.33301 25 -25c0 -15.333 4.5 -27.5 13.5 -36.5s21.167 -13.5 36.5 -13.5h85c15.333 0 27.5 4.5 36.5 13.5s13.5 21.167 13.5 36.5v65h-180c-50 0 -88.333 13.333 -115 40
s-40 65 -40 115v170c0 50 13.333 88.333 40 115s65 40 115 40h85zM395 164.999l-0.000976562 170.001c0 17.333 -5.66699 31.666 -17 42.999s-25.666 17 -42.999 17h-85c-15.333 0 -27.5 -4.5 -36.5 -13.5s-13.5 -21.167 -13.5 -36.5v-130c0 -15.333 4.5 -27.5 13.5 -36.5
s21.167 -13.5 36.5 -13.5h145z" />
    <glyph glyph-name="h" unicode="h" horiz-adv-x="605" 
d="M210 510h180c50 0 88.333 -13.333 115 -40s40 -65 40 -115v-330c0 -16.667 -8.33301 -25 -25 -25h-90c-16.667 -0 -25 8.33301 -25 25v310c0 15.333 -4.5 27.5 -13.5 36.5s-21.167 13.5 -36.5 13.5h-145v-360c0 -16.667 -8.33301 -25 -25 -25h-90
c-16.667 -0 -25 8.33301 -25 25v650c0 16.667 8.33301 25 25 25h90c16.667 0 25 -8.33301 25 -25v-165z" />
    <glyph glyph-name="i" unicode="i" horiz-adv-x="260" 
d="M175 500c16.667 0 25 -8.33301 25 -25v-450c0 -16.667 -8.33301 -25 -25 -25h-90c-16.667 -0 -25 8.33301 -25 25v450c0 16.667 8.33301 25 25 25h90zM175 710c16.667 0 25 -8.33301 25 -25v-80c0 -16.667 -8.33301 -25 -25 -25h-90c-16.667 0 -25 8.33301 -25 25v80
c0 16.667 8.33301 25 25 25h90z" />
    <glyph glyph-name="j" unicode="j" horiz-adv-x="265" 
d="M-60 -100c0 16.667 8.33301 25 25 25h50c15.333 0 27.5 4.5 36.5 13.5s13.5 21.167 13.5 36.5v500c0 16.667 8.33301 25 25 25h90c16.667 0 25 -8.33301 25 -25v-520c0 -50 -13.333 -88.333 -40 -115s-65 -40 -115 -40h-85c-16.667 0 -25 8.33301 -25 25v75zM180 710
c16.667 0 25 -8.33301 25 -25v-80c0 -16.667 -8.33301 -25 -25 -25h-90c-16.667 0 -25 8.33301 -25 25v80c0 16.667 8.33301 25 25 25h90z" />
    <glyph glyph-name="k" unicode="k" horiz-adv-x="554" 
d="M185 700c16.667 0 25 -8.33301 25 -25v-345h80l80 155c4 7.33301 9.16699 13.333 15.5 18s14.5 7 24.5 7h100c7.33301 0 12.666 -2.33301 15.999 -7s3 -10.667 -1 -18l-120 -215l135 -245c4 -7.33301 4.33301 -13.333 1 -18s-8.66602 -7 -15.999 -7h-100
c-10 -0 -18.167 2.33301 -24.5 7s-11.5 10.667 -15.5 18l-95 180h-80v-180c0 -16.667 -8.33301 -25 -25 -25h-90c-16.667 -0 -25 8.33301 -25 25v650c0 16.667 8.33301 25 25 25h90z" />
    <glyph glyph-name="l" unicode="l" horiz-adv-x="280" 
d="M185 700c16.667 0 25 -8.33301 25 -25v-650c0 -16.667 -8.33301 -25 -25 -25h-90c-16.667 -0 -25 8.33301 -25 25v650c0 16.667 8.33301 25 25 25h90z" />
    <glyph glyph-name="m" unicode="m" horiz-adv-x="840" 
d="M360 520c18.667 0 33.666 -3.16699 44.999 -9.5s20 -13.166 26 -20.499c7.33301 -8.66699 12 -18.667 14 -30h10c2 11.333 6.66699 21.333 14 30c6 7.33301 14.5 14.166 25.5 20.499s26.167 9.5 45.5 9.5h85c50 0 88.333 -13.333 115 -40s40 -65 40 -115v-340
c0 -16.667 -8.33301 -25 -25 -25h-90c-16.667 -0 -25 8.33301 -25 25v320c0 15.333 -4.5 27.5 -13.5 36.5s-21.167 13.5 -36.5 13.5h-50c-15.333 0 -27.5 -4.5 -36.5 -13.5s-13.5 -21.167 -13.5 -36.5v-320c0 -16.667 -8.33301 -25 -25 -25h-90
c-16.667 -0 -25 8.33301 -25 25v320c0 15.333 -4.5 27.5 -13.5 36.5s-21.167 13.5 -36.5 13.5h-40c-17.333 0 -31.666 -5.66699 -42.999 -17s-17 -25.666 -17 -42.999v-310c0 -16.667 -8.33301 -25 -25 -25h-90c-16.667 0 -25 8.33301 -25 25v460c0 16.667 8.33301 25 25 25
h90c16.667 0 25 -8.33301 25 -25v-25h10c2 11.333 6.66699 21.333 14 30c6 7.33301 14.5 14.166 25.5 20.499s26.167 9.5 45.5 9.5h65z" />
    <glyph glyph-name="n" unicode="n" 
d="M380 520c50 0 88.332 -13.333 114.999 -40s40 -65 40 -115v-340c0 -16.667 -8.33301 -25 -25 -25h-90c-16.667 -0 -25 8.33301 -25 25v320c0 15.333 -4.5 27.5 -13.5 36.5s-21.167 13.5 -36.5 13.5h-85c-17.333 0 -31.666 -5.66699 -42.999 -17s-17 -25.666 -17 -42.999
v-310c0 -16.667 -8.33301 -25 -25 -25h-90c-16.667 0 -25 8.33301 -25 25v460c0 16.667 8.33301 25 25 25h90c16.667 0 25 -8.33301 25 -25v-25h10c2 11.333 6.66699 21.333 14 30c6 7.33301 14.5 14.166 25.5 20.499s26.167 9.5 45.5 9.5h85z" />
    <glyph glyph-name="o" unicode="o" horiz-adv-x="605" 
d="M405 345c0 15.333 -4.5 27.5 -13.5 36.5s-21.167 13.5 -36.5 13.5h-105c-15.333 0 -27.5 -4.5 -36.5 -13.5s-13.5 -21.167 -13.5 -36.5v-180c0 -15.333 4.5 -27.5 13.5 -36.5s21.167 -13.5 36.5 -13.5h105c15.333 0 27.5 4.5 36.5 13.5s13.5 21.167 13.5 36.5v180z
M545 145c0 -50 -13.333 -88.333 -40 -115s-65 -40 -115 -40h-175c-50 0 -88.333 13.333 -115 40s-40 65 -40 115v220c0 50 13.333 88.333 40 115s65 40 115 40h175c50 0 88.333 -13.333 115 -40s40 -65 40 -115v-220z" />
    <glyph glyph-name="p" unicode="p" 
d="M380 520c50 0 88.333 -13.332 115 -39.999s40 -65 40 -115v-210c0 -50 -13.333 -88.333 -40 -115s-65 -40 -115 -40h-180v-165c0 -16.667 -8.33301 -25 -25 -25h-90c-16.667 0 -25 8.33301 -25 25v650c0 16.667 8.33301 25 25 25h90c16.667 0 25 -8.33301 25 -25v-25h10
c2 11.333 6.66699 21.333 14 30c6 7.33301 14.5 14.166 25.5 20.499s26.167 9.5 45.5 9.5h85zM345 125.001c15.333 0 27.499 4.49902 36.499 13.499s13.5 21.167 13.5 36.5v170c0 15.333 -4.5 27.5 -13.5 36.5s-21.167 13.5 -36.5 13.5h-85
c-17.333 0 -31.666 -5.66699 -42.999 -17s-17 -25.666 -17 -42.999v-210h145z" />
    <glyph glyph-name="q" unicode="q" 
d="M510 510c16.667 0 25 -8.33301 25 -25v-650c0 -16.667 -8.33301 -25 -25 -25h-90c-16.667 0 -25 8.33301 -25 25v165h-180c-50 -0 -88.333 13.333 -115 40s-40 65 -40 115v200c0 50 13.333 88.333 40 115s65 40 115 40h295zM395 125v260h-145
c-15.333 0 -27.5 -4.5 -36.5 -13.5s-13.5 -21.167 -13.5 -36.5v-160c0 -15.333 4.5 -27.5 13.5 -36.5s21.167 -13.5 36.5 -13.5h145z" />
    <glyph glyph-name="r" unicode="r" horiz-adv-x="380" 
d="M370 410c0 -16.667 -8.33398 -25 -25.001 -25h-85c-17.333 0 -31.666 -5.66699 -42.999 -17s-17 -25.666 -17 -42.999v-300c0 -16.667 -8.33301 -25 -25 -25h-90c-16.667 0 -25 8.33301 -25 25v460c0 16.667 8.33301 25 25 25h90c16.667 0 25 -8.33301 25 -25v-25h10
c2 11.333 6.66699 21.333 14 30c6 7.33301 14.5 14.166 25.5 20.499s26.167 9.5 45.5 9.5h50c16.667 0 25 -8.33301 25 -25v-85z" />
    <glyph glyph-name="s" unicode="s" horiz-adv-x="545" 
d="M340 520c50 0 88.332 -13.332 114.999 -39.999s40 -65 40 -115v-10c0 -16.667 -8.33301 -25 -25 -25h-90c-16.667 0 -25 8.33301 -25 25c0 26.667 -13.333 40 -40 40h-100c-16.667 0 -25 -8.33301 -25 -25v-5c0 -14.667 8.33301 -24.667 25 -30l190 -60
c32.667 -10 57.5 -24.5 74.5 -43.5s25.5 -46.167 25.5 -81.5v-15c0 -96.667 -48.333 -145 -145 -145h-165c-50 0 -88.333 13.333 -115 40s-40 65 -40 115v15c0 16.667 8.33301 25 25 25h90c16.667 0 25 -8.33301 25 -25c0 -12.667 4.33301 -23.334 13 -32.001
s19.334 -13 32.001 -13h115c16.667 0 25 8.33301 25 25v5c0 14.667 -8.33301 24.667 -25 30l-190 60c-32.667 10 -57.5 24.5 -74.5 43.5s-25.5 46.167 -25.5 81.5v15c0 96.667 48.333 145 145 145h145z" />
    <glyph glyph-name="t" unicode="t" horiz-adv-x="420" 
d="M335 510c16.667 0 25 -8.33301 25 -25v-75c0 -16.667 -8.33301 -25 -25 -25h-80v-210c0 -15.333 4.5 -27.5 13.5 -36.5s21.167 -13.5 36.5 -13.5h50c16.667 0 25 -8.33301 25 -25v-75c0 -16.667 -8.33301 -25 -25 -25h-85c-50 -0 -88.333 13.333 -115 40s-40 65 -40 115
v230h-50c-16.667 0 -25 8.33301 -25 25v75c0 16.667 8.33301 25 25 25h50v95c0 16.667 8.33301 25 25 25h90c16.667 0 25 -8.33301 25 -25v-95h80z" />
    <glyph glyph-name="u" unicode="u" 
d="M215 -10c-50 0 -88.332 13.333 -114.999 40s-40 65 -40 115v340c0 16.667 8.33301 25 25 25h90c16.667 0 25 -8.33301 25 -25v-320c0 -15.333 4.5 -27.5 13.5 -36.5s21.167 -13.5 36.5 -13.5h85c17.333 0 31.666 5.66699 42.999 17s17 25.666 17 42.999v310
c0 16.667 8.33301 25 25 25h90c16.667 0 25 -8.33301 25 -25v-460c0 -16.667 -8.33301 -25 -25 -25h-90c-16.667 0 -25 8.33301 -25 25v25h-10c-2 -11.333 -6.66699 -21.333 -14 -30c-6 -7.33301 -14.667 -14.166 -26 -20.499s-26.333 -9.5 -45 -9.5h-85z" />
    <glyph glyph-name="v" unicode="v" horiz-adv-x="526" 
d="M258 220h10l105 265c3.33301 7.33301 7.5 13.333 12.5 18s12.5 7 22.5 7h100c16.667 0 21.667 -8.33301 15 -25l-190 -460c-6.66699 -16.667 -20 -25 -40 -25h-60c-20 -0 -33.333 8.33301 -40 25l-190 460c-6.66699 16.667 -1.66699 25 15 25h100
c10 0 17.5 -2.33301 22.5 -7s9.16699 -10.667 12.5 -18z" />
    <glyph glyph-name="w" unicode="w" horiz-adv-x="744" 
d="M397 510c18.667 0 30.332 -8.33301 34.999 -25l70 -245h10l70 245c4.66699 16.667 16.334 25 35.001 25h100c15.333 0 20.333 -8.33301 15 -25l-140 -460c-2.66699 -7.33301 -6.66699 -13.333 -12 -18s-13 -7 -23 -7h-65c-18.667 -0 -30.334 8.33301 -35.001 25l-80 275
h-10l-80 -275c-4.66699 -16.667 -16.334 -25 -35.001 -25h-65c-10 -0 -17.667 2.33301 -23 7s-9.33301 10.667 -12 18l-140 460c-5.33301 16.667 -0.333008 25 15 25h100c18.667 0 30.334 -8.33301 35.001 -25l70 -245h10l70 245c4.66699 16.667 16.334 25 35.001 25h50z
" />
    <glyph glyph-name="x" unicode="x" horiz-adv-x="518" 
d="M264 365l75 120c4.66699 7.33301 10 13.333 16 18s14 7 24 7h105c7.33301 0 12.833 -2.33301 16.5 -7s3.16699 -10.667 -1.5 -18l-145 -220l160 -240c4.66699 -7.33301 5.16699 -13.333 1.5 -18s-9.16699 -7 -16.5 -7h-105c-10 -0 -18 2.33301 -24 7
s-11.333 10.667 -16 18l-90 140h-10l-90 -140c-4.66699 -7.33301 -10 -13.333 -16 -18s-14 -7 -24 -7h-105c-7.33301 -0 -12.833 2.33301 -16.5 7s-3.16699 10.667 1.5 18l160 240l-145 220c-4.66699 7.33301 -5.16699 13.333 -1.5 18s9.16699 7 16.5 7h105
c10 0 18 -2.33301 24 -7s11.333 -10.667 16 -18l75 -120h10z" />
    <glyph glyph-name="y" unicode="y" horiz-adv-x="516" 
d="M363 485c2.66699 7.33301 6.66699 13.333 12 18s13 7 23 7h100c16.667 0 21.667 -8.33301 15 -25l-190 -515c-17.333 -47.333 -43 -85.833 -77 -115.5s-78.333 -44.5 -133 -44.5h-30c-16.667 0 -25 8.33301 -25 25v75c0 16.667 8.33301 25 25 25h30
c17.333 0 31 3.5 41 10.5s17.667 15.167 23 24.5c6 10 9.66699 21.667 11 35l-185 480c-6.66699 16.667 -1.66699 25 15 25h100c10 0 17.667 -2.33301 23 -7s9.33301 -10.667 12 -18l105 -295h10z" />
    <glyph glyph-name="z" unicode="z" horiz-adv-x="505" 
d="M285 385h-220c-16.667 0 -25 8.33301 -25 25v75c0 16.667 8.33301 25 25 25h380c16.667 0 25 -8.33301 25 -25v-75c0 -20 -2.33301 -34 -7 -42s-10.667 -15.667 -18 -23l-230 -210v-10h235c16.667 0 25 -8.33301 25 -25v-75c0 -16.667 -8.33301 -25 -25 -25h-395
c-16.667 -0 -25 8.33301 -25 25v75c0 20 2.33301 34 7 42s10.667 15.667 18 23l230 210v10z" />
    <glyph glyph-name="braceleft" unicode="{" horiz-adv-x="430" 
d="M30 320c0 16.667 8.33301 24.999 25 24.999h10c46.667 0 70 23.333 70 70v135c0 58 15.5 102.5 46.5 133.5s75.5 46.5 133.5 46.5h60c16.667 0 25 -8.33301 25 -25v-85c0 -16.667 -8.33301 -25 -25 -25h-15c-46.667 0 -70 -23.333 -70 -70v-145
c0 -20 -4 -36.167 -12 -48.5s-16.667 -22.166 -26 -29.499c-11.333 -8 -23.666 -13.667 -36.999 -17v-10c13.333 -4 25.666 -10 36.999 -18c9.33301 -7.33301 18 -17 26 -29s12 -28 12 -48v-145c0 -46.667 23.333 -70 70 -70h15c16.667 0 25 -8.33301 25 -25v-85
c0 -16.667 -8.33301 -25 -25 -25h-60c-58 0 -102.5 15.5 -133.5 46.5s-46.5 75.5 -46.5 133.5v135c0 46.667 -23.333 70 -70 70h-10c-16.667 0 -25 8.33301 -25 25v80z" />
    <glyph glyph-name="bar" unicode="|" horiz-adv-x="340" 
d="M225 700c16.667 0 25 -8.33301 25 -25v-840c0 -16.667 -8.33301 -25 -25 -25h-110c-16.667 0 -25 8.33301 -25 25v840c0 16.667 8.33301 25 25 25h110z" />
    <glyph glyph-name="braceright" unicode="}" horiz-adv-x="430" 
d="M400 240c0 -16.667 -8.33301 -24.999 -25 -24.999h-10c-46.667 0 -70 -23.333 -70 -70v-135c0 -58 -15.5 -102.5 -46.5 -133.5s-75.5 -46.5 -133.5 -46.5h-60c-16.667 0 -25 8.33301 -25 25v85c0 16.667 8.33301 25 25 25h15c46.667 0 70 23.333 70 70v145
c0 20 3.83301 36 11.5 48s16.167 21.667 25.5 29c11.333 8 24 14 38 18v10c-14 3.33301 -26.667 9 -38 17c-9.33301 7.33301 -17.833 17.166 -25.5 29.499s-11.5 28.5 -11.5 48.5v145c0 46.667 -23.333 70 -70 70h-15c-16.667 0 -25 8.33301 -25 25v85
c0 16.667 8.33301 25 25 25h60c58 0 102.5 -15.5 133.5 -46.5s46.5 -75.5 46.5 -133.5v-135c0 -46.667 23.333 -70 70 -70h10c16.667 0 25 -8.33301 25 -25v-80z" />
    <glyph glyph-name="asciitilde" unicode="~" horiz-adv-x="460" 
d="M330 215c-17.333 0 -34 3.83301 -50 11.5s-30.833 16.334 -44.5 26.001l-36 26c-10.333 7.66699 -18.5 11.5 -24.5 11.5c-16.667 0 -25 -8.33301 -25 -25v-25c0 -16.667 -8.33301 -25 -25 -25h-70c-16.667 0 -25 8.33301 -25 25v90c0 28 9.16699 50.833 27.5 68.5
s42.5 26.5 72.5 26.5c17.333 0 34 -3.83301 50 -11.5s30.833 -16.334 44.5 -26.001l36 -26c10.333 -7.66699 18.5 -11.5 24.5 -11.5c16.667 0 25 8.33301 25 25v25c0 16.667 8.33301 25 25 25h70c16.667 0 25 -8.33301 25 -25v-90c0 -28 -9.16699 -50.833 -27.5 -68.5
s-42.5 -26.5 -72.5 -26.5z" />
    <glyph glyph-name="nonbreakingspace" unicode="&#xa0;" horiz-adv-x="210" 
 />
    <glyph glyph-name="exclamdown" unicode="&#xa1;" horiz-adv-x="300" 
d="M105 375c-16.667 0 -25 8.33301 -25 25v85c0 16.667 8.33301 25 25 25h90c16.667 0 25 -8.33301 25 -25v-85c0 -16.667 -8.33301 -25 -25 -25h-90zM230 -165c0 -16.667 -8.33105 -25 -24.998 -25h-110c-16.667 0 -25 8.33301 -25 25v265l25 170
c1.33301 7.33301 4.16602 13.333 8.49902 18s11.5 7 21.5 7h50c10 0 17.167 -2.33301 21.5 -7s7.16602 -10.667 8.49902 -18l25 -170v-265z" />
    <glyph glyph-name="cent" unicode="&#xa2;" horiz-adv-x="585" 
d="M345 595c16.667 0 25 -8.33301 25 -25v-50h10c50 0 88.333 -13.333 115 -40s40 -65 40 -115v-40c0 -16.667 -8.33301 -25 -25 -25h-90c-16.667 0 -25 8.33301 -25 25v20c0 15.333 -4.5 27.5 -13.5 36.5s-21.167 13.5 -36.5 13.5h-95c-15.333 0 -27.5 -4.5 -36.5 -13.5
s-13.5 -21.167 -13.5 -36.5v-180c0 -15.333 4.5 -27.5 13.5 -36.5s21.167 -13.5 36.5 -13.5h95c15.333 0 27.5 4.5 36.5 13.5s13.5 21.167 13.5 36.5v20c0 16.667 8.33301 25 25 25h90c16.667 0 25 -8.33301 25 -25v-40c0 -50 -13.333 -88.333 -40 -115s-65 -40 -115 -40
h-10v-50c0 -16.667 -8.33301 -25 -25 -25h-85c-16.667 0 -25 8.33301 -25 25v50h-20c-50 0 -88.333 13.333 -115 40s-40 65 -40 115v220c0 50 13.333 88.333 40 115s65 40 115 40h20v50c0 16.667 8.33301 25 25 25h85z" />
    <glyph glyph-name="sterling" unicode="&#xa3;" horiz-adv-x="570" 
d="M45 0c-16.667 0 -25 8.33301 -25 25v85c0 16.667 8.33301 25 25 25h90v150h-40c-16.667 0 -25 8.33301 -25 25v85c0 16.667 8.33301 25 25 25h40v125c0 50 13.333 88.333 40 115s65 40 115 40h130c16.667 0 25 -8.33301 25 -25v-85c0 -16.667 -8.33301 -25 -25 -25h-85
c-15.333 0 -27.5 -4.5 -36.5 -13.5s-13.5 -21.167 -13.5 -36.5v-95h90c16.667 0 25 -8.33301 25 -25v-85c0 -16.667 -8.33301 -25 -25 -25h-90v-150h250c16.667 0 25 -8.33301 25 -25v-85c0 -16.667 -8.33301 -25 -25 -25h-490z" />
    <glyph glyph-name="currency" unicode="&#xa4;" horiz-adv-x="720" 
d="M275 115v-90c0 -16.667 -8.33301 -25 -25 -25h-110c-16.667 -0 -25 8.33301 -25 25v90h-50c-16.667 0 -25 8.33301 -25 25v65c0 16.667 8.33301 25 25 25h50v50h-50c-16.667 0 -25 8.33301 -25 25v65c0 16.667 8.33301 25 25 25h50v280c0 16.667 8.33301 25 25 25h355
c116.667 0 175 -58.333 175 -175v-70c0 -116.667 -58.333 -175 -175 -175h-220v-50h275c16.667 0 25 -8.33301 25 -25v-65c0 -16.667 -8.33301 -25 -25 -25h-275zM275 560v-165h180c36.667 0 55 18.333 55 55v55c0 36.667 -18.333 55 -55 55h-180z" />
    <glyph glyph-name="yen" unicode="&#xa5;" horiz-adv-x="698" 
d="M429 95v-70c0 -16.667 -8.33301 -25 -25 -25h-110c-16.667 -0 -25 8.33301 -25 25v70h-120c-16.667 0 -25 8.33301 -25 25v60c0 16.667 8.33301 25 25 25h120v40h-120c-16.667 0 -25 8.33301 -25 25v60c0 16.667 8.33301 25 25 25h50l-195 320
c-4.66699 7.33301 -5.16699 13.333 -1.5 18s9.16699 7 16.5 7h130c10 0 18 -2.33301 24 -7s11.333 -10.667 16 -18l155 -265h10l155 265c4.66699 7.33301 10 13.333 16 18s14 7 24 7h130c7.33301 0 12.833 -2.33301 16.5 -7s3.16699 -10.667 -1.5 -18l-195 -320h50
c16.667 0 25 -8.33301 25 -25v-60c0 -16.667 -8.33301 -25 -25 -25h-120v-40h120c16.667 0 25 -8.33301 25 -25v-60c0 -16.667 -8.33301 -25 -25 -25h-120z" />
    <glyph glyph-name="brokenbar" unicode="&#xa6;" horiz-adv-x="360" 
d="M235 185c16.667 0 25 -8.33301 25 -25v-325c0 -16.667 -8.33301 -25 -25 -25h-110c-16.667 0 -25 8.33301 -25 25v325c0 16.667 8.33301 25 25 25h110zM235 700c16.667 0 25 -8.33301 25 -25v-325c0 -16.667 -8.33301 -25 -25 -25h-110c-16.667 0 -25 8.33301 -25 25v325
c0 16.667 8.33301 25 25 25h110z" />
    <glyph glyph-name="section" unicode="&#xa7;" horiz-adv-x="615" 
d="M395 530c0 30 -14.999 45 -44.999 45h-75c-30 0 -45 -15 -45 -45v-5c0 -12.667 2.83301 -22 8.5 -28s16.167 -11.667 31.5 -17l175 -55c32.667 -10 57.5 -24.5 74.5 -43.5s25.5 -46.167 25.5 -81.5v-70c0 -22.667 -3.66699 -41.167 -11 -55.5s-15.333 -25.5 -24 -33.5
c-10.667 -9.33301 -22.334 -16.333 -35.001 -21v-10c12 -4.66699 22.667 -11.667 32 -21c8 -8 15.5 -19.167 22.5 -33.5s10.5 -32.833 10.5 -55.5v-55c0 -96.667 -48.333 -145 -145 -145h-160c-50 0 -88.333 13.333 -115 40s-40 65 -40 115v20c0 16.667 8.33301 25 25 25h90
c16.667 0 25 -8.33301 25 -25v-5c0 -30 15 -45 45 -45h85c30 0 45 15 45 45v10c0 12.667 -2.83301 22.167 -8.5 28.5s-16.167 11.833 -31.5 16.5l-175 55c-32.667 10 -57.5 24.5 -74.5 43.5s-25.5 46.167 -25.5 81.5v70c0 22.667 3.5 41.167 10.5 55.5
s15.167 25.5 24.5 33.5c10 9.33301 21.667 16.333 35 21v10c-12.667 4.66699 -23.667 11.667 -33 21c-8 8 -15.333 19.167 -22 33.5s-10 32.833 -10 55.5v50c0 96.667 48.333 145 145 145h150c50 0 88.333 -13.333 115 -40s40 -65 40 -115v-20
c0 -16.667 -8.33301 -25 -25 -25h-90c-16.667 0 -25 8.33301 -25 25v5zM260.001 340c-6.66699 -2.66699 -12.668 -6 -18.001 -10c-4.66699 -4 -8.66699 -9.16699 -12 -15.5s-5 -14.5 -5 -24.5v-50c0 -12.667 2.83301 -22.167 8.5 -28.5s16.167 -11.833 31.5 -16.5l100 -30
c6 2 11.667 5.33301 17 10c4.66699 3.33301 8.83398 8.33301 12.501 15s5.5 15 5.5 25v50c0 12.667 -2.83301 22.167 -8.5 28.5s-16.167 11.833 -31.5 16.5z" />
    <glyph glyph-name="dieresis" unicode="&#xa8;" horiz-adv-x="400" 
d="M140 700c16.667 0 25 -8.33301 25 -25v-80c0 -16.667 -8.33301 -25 -25 -25h-85c-16.667 0 -25 8.33301 -25 25v80c0 16.667 8.33301 25 25 25h85zM345 700c16.667 0 25 -8.33301 25 -25v-80c0 -16.667 -8.33301 -25 -25 -25h-85c-16.667 0 -25 8.33301 -25 25v80
c0 16.667 8.33301 25 25 25h85z" />
    <glyph glyph-name="copyright" unicode="&#xa9;" horiz-adv-x="885" 
d="M630 705c116.667 0 175 -58.333 175 -175v-360c0 -116.667 -58.333 -175 -175 -175h-375c-116.667 0 -175 58.333 -175 175v360c0 116.667 58.333 175 175 175h375zM260 595c-36.667 0 -55 -18.333 -55 -55v-380c0 -36.667 18.333 -55 55 -55h365
c36.667 0 55 18.333 55 55v380c0 36.667 -18.333 55 -55 55h-365zM290 420c0 66.667 33.333 100 100 100h110c66.667 0 100 -33.333 100 -100v-15c0 -13.333 -6.66699 -20 -20 -20h-60c-13.333 0 -20 6.66699 -20 20s-6.66699 20 -20 20h-60c-16.667 0 -25 -8.33301 -25 -25
v-95c0 -16.667 8.33301 -25 25 -25h60c13.333 0 20 6.66699 20 20s6.66699 20 20 20h60c13.333 0 20 -6.66699 20 -20v-15c0 -66.667 -33.333 -100 -100 -100h-110c-66.667 0 -100 33.333 -100 100v135z" />
    <glyph glyph-name="ordfeminine" unicode="&#xaa;" horiz-adv-x="385" 
d="M145 470c0 -16.667 8.33301 -25 25 -25h25c10 0 18.333 3.33301 25 10s10 15 10 25v15h-60c-16.667 0 -25 -8.33301 -25 -25zM175 610c-10 0 -16.8301 -1.5 -20.4971 -4.5s-6 -6.5 -7 -10.5s-2.16699 -7.5 -3.5 -10.5s-4.33301 -4.5 -9 -4.5h-70
c-13.333 0 -20 6.66699 -20 20v5c0 30 8.66699 53.333 26 70s43.666 25 78.999 25h65c45.333 0 78.333 -10.333 99 -31s31 -53.667 31 -99v-190c0 -13.333 -6.66699 -20 -20 -20h-75c-7.33301 0 -12.333 1.5 -15 4.5s-4 8.16699 -4 15.5v15h-6
c-2 -6.66699 -5.66699 -12.667 -11 -18c-4.66699 -4.66699 -10.834 -8.66699 -18.501 -12s-17.834 -5 -30.501 -5h-25c-73.333 0 -110 33.333 -110 100c0 32.667 8.83301 58 26.5 76s45.5 26 83.5 24h90v20c0 20 -10 30 -30 30h-25z" />
    <glyph glyph-name="guillemotleft" unicode="&#xab;" horiz-adv-x="539" 
d="M245 255l115 190c4.66699 7.33301 10 13.333 16 18s14 7 24 7h90c7.33301 0 12.833 -2.33301 16.5 -7s3.16699 -10.667 -1.5 -18l-115 -190l115 -190c4.66699 -7.33301 5.16699 -13.333 1.5 -18s-9.16699 -7 -16.5 -7h-90c-10 0 -18 2.33301 -24 7s-11.333 10.667 -16 18
zM175 255l115 -190c4.66699 -7.33301 5.16699 -13.333 1.5 -18s-9.16699 -7 -16.5 -7h-90c-10 0 -18 2.33301 -24 7s-11.333 10.667 -16 18l-115 190l115 190c4.66699 7.33301 10 13.333 16 18s14 7 24 7h90c7.33301 0 12.833 -2.33301 16.5 -7s3.16699 -10.667 -1.5 -18z
" />
    <glyph glyph-name="logicalnot" unicode="&#xac;" horiz-adv-x="485" 
d="M430 430c16.667 0 25 -8.33301 25 -25v-180c0 -16.667 -8.33301 -25 -25 -25h-90c-16.667 0 -25 8.33301 -25 25v75h-260c-16.667 0 -25 8.33301 -25 25v80c0 16.667 8.33301 25 25 25h375z" />
    <glyph glyph-name="uni00AD" unicode="&#xad;" horiz-adv-x="465" 
d="M55 250c-16.667 0 -25 8.33301 -25 25v80c0 16.667 8.33301 25 25 25h355c16.667 0 25 -8.33301 25 -25v-80c0 -16.667 -8.33301 -25 -25 -25h-355z" />
    <glyph glyph-name="registered" unicode="&#xae;" horiz-adv-x="885" 
d="M495 405c0 16.667 -8.33301 25 -25 25h-75v-60h75c16.667 0 25 8.33301 25 25v10zM445 280l-50 0.00195312v-80c0 -10 -5 -15 -15 -15h-75c-10 0 -15 5 -15 15v305c0 10 5 15 15 15h195c66.667 0 100 -33.333 100 -100v-45c0 -16.667 -2.83301 -29.834 -8.5 -39.501
s-12.167 -17.167 -19.5 -22.5c-8 -6.66699 -17 -11 -27 -13l60 -100c4.66699 -10 1.33398 -15 -9.99902 -15h-75c-10 0 -16.833 1.16699 -20.5 3.5s-6.83398 6.16602 -9.50098 11.499zM630 705.002c116.667 0 175 -58.333 175 -175v-360c0 -116.667 -58.333 -175 -175 -175
h-375c-116.667 0 -175 58.333 -175 175v360c0 116.667 58.333 175 175 175h375zM260 595.002c-36.667 0 -55 -18.333 -55 -55v-380c0 -36.667 18.333 -55 55 -55h365c36.667 0 55 18.333 55 55v380c0 36.667 -18.333 55 -55 55h-365z" />
    <glyph glyph-name="macron" unicode="&#xaf;" horiz-adv-x="365" 
d="M55 595c-16.667 0 -25 8.33301 -25 25v55c0 16.667 8.33301 25 25 25h255c16.667 0 25 -8.33301 25 -25v-55c0 -16.667 -8.33301 -25 -25 -25h-255z" />
    <glyph glyph-name="degree" unicode="&#xb0;" horiz-adv-x="425" 
d="M50 570c0 45.333 10.333 78.333 31 99s53.667 31 99 31h65c45.333 0 78.333 -10.333 99 -31s31 -53.667 31 -99v-80c0 -45.333 -10.333 -78.333 -31 -99s-53.667 -31 -99 -31h-65c-45.333 0 -78.333 10.333 -99 31s-31 53.667 -31 99v80zM165 495
c0 -10 3.33301 -18.333 10 -25s15 -10 25 -10h25c10 0 18.333 3.33301 25 10s10 15 10 25v70c0 10 -3.33301 18.333 -10 25s-15 10 -25 10h-25c-10 0 -18.333 -3.33301 -25 -10s-10 -15 -10 -25v-70z" />
    <glyph glyph-name="plusminus" unicode="&#xb1;" horiz-adv-x="500" 
d="M70 55c-16.667 0 -25 8.33301 -25 25v80c0 16.667 8.33301 25 25 25h115v120h-120c-16.667 0 -25 8.33301 -25 25v80c0 16.667 8.33301 25 25 25h120v125c0 16.667 8.33301 25 25 25h80c16.667 0 25 -8.33301 25 -25v-125h120c16.667 0 25 -8.33301 25 -25v-80
c0 -16.667 -8.33301 -25 -25 -25h-120v-120h115c16.667 0 25 -8.33301 25 -25v-80c0 -16.667 -8.33301 -25 -25 -25h-360z" />
    <glyph glyph-name="twosuperior" unicode="&#xb2;" horiz-adv-x="345" 
d="M315 680c0 -15.333 -2.83203 -28.166 -8.49902 -38.499s-12.167 -19.166 -19.5 -26.499c-8 -8 -17 -14.667 -27 -20l-80 -40v-5h110c13.333 0 20 -6.66699 20 -20v-50c0 -13.333 -6.66699 -20 -20 -20h-240c-13.333 0 -20 6.66699 -20 20v70
c0 7.33301 1.5 13.166 4.5 17.499s8.16699 8.5 15.5 12.5l130 75c7.33301 4 12.5 8.16699 15.5 12.5s4.5 10.166 4.5 17.499c0 16.667 -8.33301 25 -25 25h-15c-10 0 -16.833 -1.5 -20.5 -4.5s-6 -6.5 -7 -10.5s-2.16699 -7.5 -3.5 -10.5s-4.33301 -4.5 -9 -4.5h-70
c-13.333 0 -20 6.66699 -20 20v5c0 30 8.66699 53.333 26 70s43.666 25 78.999 25h50c45.333 0 78.333 -9.5 99 -28.5s31 -46.167 31 -81.5v-10z" />
    <glyph glyph-name="threesuperior" unicode="&#xb3;" horiz-adv-x="350" 
d="M320 560c0 -30 -10.001 -54.168 -30.001 -72.501s-50 -27.5 -90 -27.5h-65c-35.333 0 -61.666 8.33301 -78.999 25s-26 40 -26 70v5c0 13.333 6.66699 20 20 20h70c4.66699 0 7.66699 -1.5 9 -4.5s2.5 -6.5 3.5 -10.5s3.33301 -7.5 7 -10.5s10.5 -4.5 20.5 -4.5h25
c13.333 0 20 6.66699 20 20v10c0 13.333 -6.66699 20 -20 20h-55c-13.333 0 -20 6.66699 -20 20v30c0 7.33301 1.5 13.166 4.5 17.499s8.16699 8.5 15.5 12.5l50 25v5h-120c-13.333 0 -20 6.66699 -20 20v50c0 13.333 6.66699 20 20 20h230c13.333 0 20 -6.66699 20 -20v-60
c0 -7.33301 -1.5 -13.166 -4.5 -17.499s-8.16699 -8.5 -15.5 -12.5l-50 -25v-5c14.667 -2 28 -6.33301 40 -13c10 -5.33301 19.167 -13.666 27.5 -24.999s12.5 -27 12.5 -47v-15z" />
    <glyph glyph-name="acute" unicode="&#xb4;" horiz-adv-x="263" 
d="M143 545c-5.33301 -7.33301 -10.668 -13.333 -16.001 -18s-11.666 -7 -18.999 -7h-60c-16.667 0 -21.667 8.33301 -15 25l50 130c3.33301 7.33301 7.5 13.333 12.5 18s12.5 7 22.5 7h95c7.33301 0 13 -2.33301 17 -7s3.33301 -10.667 -2 -18z" />
    <glyph glyph-name="mu" unicode="&#xb5;" 
d="M245 -10c-14.667 0 -25.998 2.33203 -33.998 6.99902c-4.66699 2.66699 -8.33398 5.33398 -11.001 8.00098v-170c0 -16.667 -8.33301 -25 -25 -25h-90c-16.667 0 -25 8.33301 -25 25v650c0 16.667 8.33301 25 25 25h90c16.667 0 25 -8.33301 25 -25v-320
c0 -15.333 4.66699 -27.5 14 -36.5s21.333 -13.5 36 -13.5h85c17.333 0 31.666 5.66699 42.999 17s17 25.666 17 42.999v310c0 16.667 8.33301 25 25 25h90c16.667 0 25 -8.33301 25 -25v-460c0 -16.667 -8.33301 -25 -25 -25h-90c-16.667 0 -25 8.33301 -25 25v25h-10
c-2 -11.333 -6.66699 -21.333 -14 -30c-6 -7.33301 -14.667 -14.166 -26 -20.499s-26.333 -9.5 -45 -9.5h-55z" />
    <glyph glyph-name="paragraph" unicode="&#xb6;" horiz-adv-x="700" 
d="M230 315c-113.333 0 -170 56.667 -170 170v45c0 113.333 56.667 170 170 170h365c16.667 0 25 -8.33301 25 -25v-700c0 -116.667 -58.333 -175 -175 -175h-270c-16.667 0 -25 8.33301 -25 25v80c0 16.667 8.33301 25 25 25h30c16.667 0 25 8.33301 25 25v360zM425 -70
c36.667 0 55 18.333 55 55v585h-110v-640h55z" />
    <glyph glyph-name="periodcentered" unicode="&#xb7;" horiz-adv-x="210" 
d="M150 365c16.667 0 25 -8.33301 25 -25v-85c0 -16.667 -8.33301 -25 -25 -25h-90c-16.667 0 -25 8.33301 -25 25v85c0 16.667 8.33301 25 25 25h90z" />
    <glyph glyph-name="cedilla" unicode="&#xb8;" horiz-adv-x="265" 
d="M125 -195c20 0 30.001 10.0029 30.001 30.0029s-10 30 -30 30h-60c-13.333 0 -20 6.66699 -20 20v30c0 10 1.66699 18.333 5 25c1.33301 3.33301 3 6.66602 5 9.99902l30 50h65l-30 -60c38 0 66.667 -9.33301 86 -28s29 -44.334 29 -77.001v-5
c0 -32.667 -9.33301 -58.334 -28 -77.001s-44.334 -28 -77.001 -28h-80c-13.333 0 -20 6.66699 -20 20v40c0 13.333 6.66699 20 20 20h75z" />
    <glyph glyph-name="onesuperior" unicode="&#xb9;" horiz-adv-x="270" 
d="M50 700c-13.333 0 -20 6.66699 -20 20v60c0 13.333 6.66699 20 20 20h160c13.333 0 20 -6.66699 20 -20v-300c0 -13.333 -6.66699 -20 -20 -20h-75c-13.333 0 -20 6.66699 -20 20v220h-65z" />
    <glyph glyph-name="ordmasculine" unicode="&#xba;" horiz-adv-x="395" 
d="M40 570c0 45.333 10.333 78.333 31 99s53.667 31 99 31h55c45.333 0 78.333 -10.333 99 -31s31 -53.667 31 -99v-80c0 -45.333 -10.333 -78.333 -31 -99s-53.667 -31 -99 -31h-55c-45.333 0 -78.333 10.333 -99 31s-31 53.667 -31 99v80zM155 495
c0 -10 3.33301 -18.333 10 -25s15 -10 25 -10h15c10 0 18.333 3.33301 25 10s10 15 10 25v70c0 10 -3.33301 18.333 -10 25s-15 10 -25 10h-15c-10 0 -18.333 -3.33301 -25 -10s-10 -15 -10 -25v-70z" />
    <glyph glyph-name="guillemotright" unicode="&#xbb;" horiz-adv-x="539" 
d="M179 65c-4.66699 -7.33301 -10 -13.333 -16 -18s-14 -7 -24 -7h-90c-7.33301 0 -12.833 2.33301 -16.5 7s-3.16699 10.667 1.5 18l115 190l-115 190c-4.66699 7.33301 -5.16699 13.333 -1.5 18s9.16699 7 16.5 7h90c10 0 18 -2.33301 24 -7s11.333 -10.667 16 -18
l115 -190zM249 445c-4.66699 7.33301 -5.16699 13.333 -1.5 18s9.16699 7 16.5 7h90c10 0 18 -2.33301 24 -7s11.333 -10.667 16 -18l115 -190l-115 -190c-4.66699 -7.33301 -10 -13.333 -16 -18s-14 -7 -24 -7h-90c-7.33301 0 -12.833 2.33301 -16.5 7
s-3.16699 10.667 1.5 18l115 190z" />
    <glyph glyph-name="onequarter" unicode="&#xbc;" horiz-adv-x="780" 
d="M450 675c3.33301 7.33301 7.66602 13.333 12.999 18s14.333 7 27 7h95c7.33301 0 12.5 -2.33301 15.5 -7s2.83301 -10.667 -0.5 -18l-305 -650c-3.33301 -7.33301 -7.66602 -13.333 -12.999 -18s-14.333 -7 -27 -7h-95c-7.33301 -0 -12.5 2.33301 -15.5 7
s-2.83301 10.667 0.5 18zM40 600c-13.333 0 -20 6.66699 -20 20v60c0 13.333 6.66699 20 20 20h160c13.333 0 20 -6.66699 20 -20v-300c0 -13.333 -6.66699 -20 -20 -20h-75c-13.333 0 -20 6.66699 -20 20v220h-65zM710 160h20c13.333 0 20 -6.66699 20 -20v-40
c0 -13.333 -6.66699 -20 -20 -20h-20v-60c0 -13.333 -6.66699 -20 -20 -20h-75c-13.333 0 -20 6.66699 -20 20v60h-135c-13.333 0 -20 6.66699 -20 20v30c0 10 2 19 6 27s8.66699 15.667 14 23l95 140c3.33301 5.33301 8.5 10 15.5 14s16.833 6 29.5 6h90
c13.333 0 20 -6.66699 20 -20v-160zM600 160v80h-5l-50 -75v-5h55z" />
    <glyph glyph-name="onehalf" unicode="&#xbd;" horiz-adv-x="800" 
d="M450 675c3.33301 7.33301 7.66602 13.333 12.999 18s14.333 7 27 7h95c7.33301 0 12.5 -2.33301 15.5 -7s2.83301 -10.667 -0.5 -18l-305 -650c-3.33301 -7.33301 -7.66602 -13.333 -12.999 -18s-14.333 -7 -27 -7h-95c-7.33301 -0 -12.5 2.33301 -15.5 7
s-2.83301 10.667 0.5 18zM40 600c-13.333 0 -20 6.66699 -20 20v60c0 13.333 6.66699 20 20 20h160c13.333 0 20 -6.66699 20 -20v-300c0 -13.333 -6.66699 -20 -20 -20h-75c-13.333 0 -20 6.66699 -20 20v220h-65zM760 220c0 -15.333 -2.83203 -28.166 -8.49902 -38.499
s-12.167 -19.166 -19.5 -26.499c-8 -8 -17 -14.667 -27 -20l-80 -40v-5h110c13.333 0 20 -6.66699 20 -20v-50c0 -13.333 -6.66699 -20 -20 -20h-240c-13.333 0 -20 6.66699 -20 20v70c0 7.33301 1.5 13.166 4.5 17.499s8.16699 8.5 15.5 12.5l130 75
c7.33301 4 12.5 8.16699 15.5 12.5s4.5 10.166 4.5 17.499c0 16.667 -8.33301 25 -25 25h-15c-10 0 -16.833 -1.5 -20.5 -4.5s-6 -6.5 -7 -10.5s-2.16699 -7.5 -3.5 -10.5s-4.33301 -4.5 -9 -4.5h-70c-13.333 0 -20 6.66699 -20 20v5c0 30 8.66699 53.333 26 70
s43.666 25 78.999 25h50c45.333 0 78.333 -9.5 99 -28.5s31 -46.167 31 -81.5v-10z" />
    <glyph glyph-name="threequarters" unicode="&#xbe;" horiz-adv-x="840" 
d="M510 675c3.33301 7.33301 7.66602 13.333 12.999 18s14.333 7 27 7h95c7.33301 0 12.5 -2.33301 15.5 -7s2.83301 -10.667 -0.5 -18l-305 -650c-3.33301 -7.33301 -7.66602 -13.333 -12.999 -18s-14.333 -7 -27 -7h-95c-7.33301 -0 -12.5 2.33301 -15.5 7
s-2.83301 10.667 0.5 18zM320 460c0 -30 -10.001 -54.168 -30.001 -72.501s-50 -27.5 -90 -27.5h-65c-35.333 0 -61.666 8.33301 -78.999 25s-26 40 -26 70v5c0 13.333 6.66699 20 20 20h70c4.66699 0 7.66699 -1.5 9 -4.5s2.5 -6.5 3.5 -10.5s3.33301 -7.5 7 -10.5
s10.5 -4.5 20.5 -4.5h25c13.333 0 20 6.66699 20 20v10c0 13.333 -6.66699 20 -20 20h-55c-13.333 0 -20 6.66699 -20 20v30c0 7.33301 1.5 13.166 4.5 17.499s8.16699 8.5 15.5 12.5l50 25v5h-120c-13.333 0 -20 6.66699 -20 20v50c0 13.333 6.66699 20 20 20h230
c13.333 0 20 -6.66699 20 -20v-60c0 -7.33301 -1.5 -13.166 -4.5 -17.499s-8.16699 -8.5 -15.5 -12.5l-50 -25v-5c14.667 -2 28 -6.33301 40 -13c10 -5.33301 19.167 -13.666 27.5 -24.999s12.5 -27 12.5 -47v-15zM769.999 159.999h20c13.333 0 20 -6.66699 20 -20v-45
c0 -13.333 -6.66699 -20 -20 -20h-20v-55c0 -13.333 -6.66699 -20 -20 -20h-75c-13.333 0 -20 6.66699 -20 20v55h-135c-13.333 0 -20 6.66699 -20 20v35c0 10 2 19 6 27s8.66699 15.667 14 23l95 140c3.33301 5.33301 8.5 10 15.5 14s16.833 6 29.5 6h90
c13.333 0 20 -6.66699 20 -20v-160zM659.999 159.999v80h-5l-50 -75v-5h55z" />
    <glyph glyph-name="questiondown" unicode="&#xbf;" horiz-adv-x="615" 
d="M605 -25c0 -116.667 -58.332 -175 -174.999 -175h-205c-116.667 0 -175 58.333 -175 175v100c0 116.667 58.333 175 175 175h50l5 20c2 7.33301 5 13.333 9 18s11 7 21 7h50c10 0 17.167 -2.33301 21.5 -7s7.16602 -10.667 8.49902 -18l25 -125v-10
c0 -16.667 -8.33301 -25 -25 -25h-125c-36.667 0 -55 -18.333 -55 -55v-60c0 -36.667 18.333 -55 55 -55h125c36.667 0 55 18.333 55 55v5c0 16.667 8.33301 25 25 25h110c16.667 0 25 -8.33301 25 -25v-25zM290.001 375c-16.667 0 -25 8.33301 -25 25v85
c0 16.667 8.33301 25 25 25h90c16.667 0 25 -8.33301 25 -25v-85c0 -16.667 -8.33301 -25 -25 -25h-90z" />
    <glyph glyph-name="Agrave" unicode="&#xc0;" horiz-adv-x="736" 
d="M233 145l-45 -120c-3.33301 -7.33301 -7.5 -13.333 -12.5 -18s-12.5 -7 -22.5 -7h-125c-16.667 -0 -21.667 8.33301 -15 25l245 650c6.66699 16.667 20 25 40 25h145c10 0 17.5 -2.33301 22.5 -7s9.16699 -10.667 12.5 -18l245 -650c6.66699 -16.667 1.66699 -25 -15 -25
h-125c-10 -0 -17.5 2.33301 -22.5 7s-9.16699 10.667 -12.5 18l-45 120h-270zM453 285l-80 215h-10l-80 -215h170zM217 925c-5.33301 7.33301 -6.00195 13.333 -2.00195 18s9.66699 7 17 7h95c10 0 17.5 -2.33301 22.5 -7s9.16699 -10.667 12.5 -18l50 -130
c6.66699 -16.667 1.66699 -25 -15 -25h-60c-7.33301 0 -13.666 2.33301 -18.999 7s-10.666 10.667 -15.999 18z" />
    <glyph glyph-name="Aacute" unicode="&#xc1;" horiz-adv-x="736" 
d="M233 145l-45 -120c-3.33301 -7.33301 -7.5 -13.333 -12.5 -18s-12.5 -7 -22.5 -7h-125c-16.667 -0 -21.667 8.33301 -15 25l245 650c6.66699 16.667 20 25 40 25h145c10 0 17.5 -2.33301 22.5 -7s9.16699 -10.667 12.5 -18l245 -650c6.66699 -16.667 1.66699 -25 -15 -25
h-125c-10 -0 -17.5 2.33301 -22.5 7s-9.16699 10.667 -12.5 18l-45 120h-270zM453 285l-80 215h-10l-80 -215h170zM438 795c-5.33301 -7.33301 -10.668 -13.333 -16.001 -18s-11.666 -7 -18.999 -7h-60c-16.667 0 -21.667 8.33301 -15 25l50 130
c3.33301 7.33301 7.5 13.333 12.5 18s12.5 7 22.5 7h95c7.33301 0 13 -2.33301 17 -7s3.33301 -10.667 -2 -18z" />
    <glyph glyph-name="Acircumflex" unicode="&#xc2;" horiz-adv-x="736" 
d="M233 145l-45 -120c-3.33301 -7.33301 -7.5 -13.333 -12.5 -18s-12.5 -7 -22.5 -7h-125c-16.667 -0 -21.667 8.33301 -15 25l245 650c6.66699 16.667 20 25 40 25h145c10 0 17.5 -2.33301 22.5 -7s9.16699 -10.667 12.5 -18l245 -650c6.66699 -16.667 1.66699 -25 -15 -25
h-125c-10 -0 -17.5 2.33301 -22.5 7s-9.16699 10.667 -12.5 18l-45 120h-270zM453 285l-80 215h-10l-80 -215h170zM405 950c10 0 17.8311 -2.33301 23.498 -7s11.167 -10.667 16.5 -18l100 -130c6 -7.33301 6.83301 -13.333 2.5 -18s-10.166 -7 -17.499 -7h-70
c-12.667 0 -22 2.33301 -28 7s-11.667 10.667 -17 18l-45 65h-5l-45 -65c-5.33301 -7.33301 -11 -13.333 -17 -18s-15.333 -7 -28 -7h-70c-7.33301 0 -13.166 2.33301 -17.499 7s-3.5 10.667 2.5 18l100 130c5.33301 7.33301 10.833 13.333 16.5 18s13.5 7 23.5 7h75z" />
    <glyph glyph-name="Atilde" unicode="&#xc3;" horiz-adv-x="736" 
d="M233 145l-45 -120c-3.33301 -7.33301 -7.5 -13.333 -12.5 -18s-12.5 -7 -22.5 -7h-125c-16.667 -0 -21.667 8.33301 -15 25l245 650c6.66699 16.667 20 25 40 25h145c10 0 17.5 -2.33301 22.5 -7s9.16699 -10.667 12.5 -18l245 -650c6.66699 -16.667 1.66699 -25 -15 -25
h-125c-10 -0 -17.5 2.33301 -22.5 7s-9.16699 10.667 -12.5 18l-45 120h-270zM453 285l-80 215h-10l-80 -215h170zM440 775c-15.333 0 -28.1689 2.83301 -38.502 8.5s-19.333 12 -27 19l-21 19c-6.33301 5.66699 -12.5 8.5 -18.5 8.5c-5.33301 0 -10 -2 -14 -6
s-6 -8.66699 -6 -14v-15c0 -5.33301 -2 -10 -6 -14s-8.66699 -6 -14 -6h-55c-5.33301 0 -10 2 -14 6s-6 8.66699 -6 14v70c0 22.667 6.83301 40.834 20.5 54.501s31.834 20.5 54.501 20.5c14.667 0 27.334 -2.83301 38.001 -8.5s19.834 -12 27.501 -19l21 -19
c6.33301 -5.66699 12.5 -8.5 18.5 -8.5c5.33301 0 10 2 14 6s6 8.66699 6 14v15c0 5.33301 2 10 6 14s8.66699 6 14 6h55c5.33301 0 10 -2 14 -6s6 -8.66699 6 -14v-70c0 -22.667 -6.83301 -40.834 -20.5 -54.501s-31.834 -20.5 -54.501 -20.5z" />
    <glyph glyph-name="Adieresis" unicode="&#xc4;" horiz-adv-x="736" 
d="M233 145l-45 -120c-3.33301 -7.33301 -7.5 -13.333 -12.5 -18s-12.5 -7 -22.5 -7h-125c-16.667 -0 -21.667 8.33301 -15 25l245 650c6.66699 16.667 20 25 40 25h145c10 0 17.5 -2.33301 22.5 -7s9.16699 -10.667 12.5 -18l245 -650c6.66699 -16.667 1.66699 -25 -15 -25
h-125c-10 -0 -17.5 2.33301 -22.5 7s-9.16699 10.667 -12.5 18l-45 120h-270zM453 285l-80 215h-10l-80 -215h170zM310 920c16.667 0 25 -8.33301 25 -25v-80c0 -16.667 -8.33301 -25 -25 -25h-85c-16.667 0 -25 8.33301 -25 25v80c0 16.667 8.33301 25 25 25h85zM515 920
c16.667 0 25 -8.33301 25 -25v-80c0 -16.667 -8.33301 -25 -25 -25h-85c-16.667 0 -25 8.33301 -25 25v80c0 16.667 8.33301 25 25 25h85z" />
    <glyph glyph-name="Aring" unicode="&#xc5;" horiz-adv-x="736" 
d="M233 145l-45 -120c-3.33301 -7.33301 -7.5 -13.333 -12.5 -18s-12.5 -7 -22.5 -7h-125c-16.667 -0 -21.667 8.33301 -15 25l245 650c6.66699 16.667 20 25 40 25h145c10 0 17.5 -2.33301 22.5 -7s9.16699 -10.667 12.5 -18l245 -650c6.66699 -16.667 1.66699 -25 -15 -25
h-125c-10 -0 -17.5 2.33301 -22.5 7s-9.16699 10.667 -12.5 18l-45 120h-270zM453 285l-80 215h-10l-80 -215h170zM485 865c0 -32.667 -9.33301 -58.334 -28 -77.001s-44.334 -28 -77.001 -28h-25c-32.667 0 -58.334 9.33301 -77.001 28s-28 44.334 -28 77.001v20
c0 32.667 9.33301 58.334 28 77.001s44.334 28 77.001 28h25c32.667 0 58.334 -9.33301 77.001 -28s28 -44.334 28 -77.001v-20zM405 885c0 20 -10 30 -30 30h-15c-20 0 -30 -10 -30 -30v-20c0 -20 10 -30 30 -30h15c20 0 30 10 30 30v20z" />
    <glyph glyph-name="AE" unicode="&#xc6;" horiz-adv-x="1085" 
d="M670 140h360c16.667 0 25 -8.33301 25 -25v-90c0 -16.667 -8.33301 -25 -25 -25h-495c-16.667 -0 -25 8.33301 -25 25v125h-285l-47 -125c-3.33301 -7.33301 -7.5 -13.333 -12.5 -18s-12.5 -7 -22.5 -7h-125c-16.667 -0 -21.667 8.33301 -15 25l245 650
c6.66699 16.667 20 25 40 25h732c16.667 0 25 -8.33301 25 -25v-90c0 -16.667 -8.33301 -25 -25 -25h-350v-135h260c16.667 0 25 -8.33301 25 -25v-90c0 -16.667 -8.33301 -25 -25 -25h-260v-145zM510 290v270h-135l-100 -270h235z" />
    <glyph glyph-name="Ccedilla" unicode="&#xc7;" horiz-adv-x="770" 
d="M410 -195c20 0 30.001 10.0029 30.001 30.0029s-10 30 -30 30h-60c-13.333 0 -20 6.66699 -20 20v30c0 10 1.66699 18.333 5 25c1.33301 3.33301 3 6.66602 5 9.99902l25 40h-120c-116.667 0 -175 58.333 -175 175v370c0 116.667 58.333 175 175 175h290
c116.667 0 175 -58.333 175 -175v-50c0 -16.667 -8.33301 -25 -25 -25h-110c-16.667 0 -25 8.33301 -25 25v30c0 36.667 -18.333 55 -55 55h-210c-36.667 0 -55 -18.333 -55 -55v-330c0 -36.667 18.333 -55 55 -55h210c36.667 0 55 18.333 55 55v30
c0 16.667 8.33301 25 25 25h110c16.667 0 25 -8.33301 25 -25v-50c0 -116.667 -58.333 -175 -175 -175h-105l-25 -50c38 0 66.667 -9.33301 86 -28s29 -44.334 29 -77.001v-5c0 -32.667 -9.33301 -58.334 -28 -77.001s-44.334 -28 -77.001 -28h-80
c-13.333 0 -20 6.66699 -20 20v40c0 13.333 6.66699 20 20 20h75z" />
    <glyph glyph-name="Egrave" unicode="&#xc8;" horiz-adv-x="690" 
d="M240 140h395c16.667 0 25 -8.33301 25 -25v-90c0 -16.667 -8.33301 -25 -25 -25h-530c-16.667 -0 -25 8.33301 -25 25v650c0 16.667 8.33301 25 25 25h520c16.667 0 25 -8.33301 25 -25v-90c0 -16.667 -8.33301 -25 -25 -25h-385v-135h295c16.667 0 25 -8.33301 25 -25
v-90c0 -16.667 -8.33301 -25 -25 -25h-295v-145zM229 925c-5.33301 7.33301 -6.00195 13.333 -2.00195 18s9.66699 7 17 7h95c10 0 17.5 -2.33301 22.5 -7s9.16699 -10.667 12.5 -18l50 -130c6.66699 -16.667 1.66699 -25 -15 -25h-60c-7.33301 0 -13.666 2.33301 -18.999 7
s-10.666 10.667 -15.999 18z" />
    <glyph glyph-name="Eacute" unicode="&#xc9;" horiz-adv-x="690" 
d="M240 140h395c16.667 0 25 -8.33301 25 -25v-90c0 -16.667 -8.33301 -25 -25 -25h-530c-16.667 -0 -25 8.33301 -25 25v650c0 16.667 8.33301 25 25 25h520c16.667 0 25 -8.33301 25 -25v-90c0 -16.667 -8.33301 -25 -25 -25h-385v-135h295c16.667 0 25 -8.33301 25 -25
v-90c0 -16.667 -8.33301 -25 -25 -25h-295v-145zM435 795c-5.33301 -7.33301 -10.668 -13.333 -16.001 -18s-11.666 -7 -18.999 -7h-60c-16.667 0 -21.667 8.33301 -15 25l50 130c3.33301 7.33301 7.5 13.333 12.5 18s12.5 7 22.5 7h95c7.33301 0 13 -2.33301 17 -7
s3.33301 -10.667 -2 -18z" />
    <glyph glyph-name="Ecircumflex" unicode="&#xca;" horiz-adv-x="690" 
d="M240 140h395c16.667 0 25 -8.33301 25 -25v-90c0 -16.667 -8.33301 -25 -25 -25h-530c-16.667 -0 -25 8.33301 -25 25v650c0 16.667 8.33301 25 25 25h520c16.667 0 25 -8.33301 25 -25v-90c0 -16.667 -8.33301 -25 -25 -25h-385v-135h295c16.667 0 25 -8.33301 25 -25
v-90c0 -16.667 -8.33301 -25 -25 -25h-295v-145zM402 950c10 0 17.8311 -2.33301 23.498 -7s11.167 -10.667 16.5 -18l100 -130c6 -7.33301 6.83301 -13.333 2.5 -18s-10.166 -7 -17.499 -7h-70c-12.667 0 -22 2.33301 -28 7s-11.667 10.667 -17 18l-45 65h-5l-45 -65
c-5.33301 -7.33301 -11 -13.333 -17 -18s-15.333 -7 -28 -7h-70c-7.33301 0 -13.166 2.33301 -17.499 7s-3.5 10.667 2.5 18l100 130c5.33301 7.33301 10.833 13.333 16.5 18s13.5 7 23.5 7h75z" />
    <glyph glyph-name="Edieresis" unicode="&#xcb;" horiz-adv-x="690" 
d="M240 140h395c16.667 0 25 -8.33301 25 -25v-90c0 -16.667 -8.33301 -25 -25 -25h-530c-16.667 -0 -25 8.33301 -25 25v650c0 16.667 8.33301 25 25 25h520c16.667 0 25 -8.33301 25 -25v-90c0 -16.667 -8.33301 -25 -25 -25h-385v-135h295c16.667 0 25 -8.33301 25 -25
v-90c0 -16.667 -8.33301 -25 -25 -25h-295v-145zM305 930c16.667 0 25 -8.33301 25 -25v-80c0 -16.667 -8.33301 -25 -25 -25h-85c-16.667 0 -25 8.33301 -25 25v80c0 16.667 8.33301 25 25 25h85zM510 930c16.667 0 25 -8.33301 25 -25v-80c0 -16.667 -8.33301 -25 -25 -25
h-85c-16.667 0 -25 8.33301 -25 25v80c0 16.667 8.33301 25 25 25h85z" />
    <glyph glyph-name="Igrave" unicode="&#xcc;" horiz-adv-x="321" 
d="M241 25c0 -16.667 -8.33301 -25 -25 -25h-110c-16.667 -0 -25 8.33301 -25 25v650c0 16.667 8.33301 25 25 25h110c16.667 0 25 -8.33301 25 -25v-650zM16 925c-5.33301 7.33301 -6.00195 13.333 -2.00195 18s9.66699 7 17 7h95c10 0 17.5 -2.33301 22.5 -7
s9.16699 -10.667 12.5 -18l50 -130c6.66699 -16.667 1.66699 -25 -15 -25h-60c-7.33301 0 -13.666 2.33301 -18.999 7s-10.666 10.667 -15.999 18z" />
    <glyph glyph-name="Iacute" unicode="&#xcd;" horiz-adv-x="320" 
d="M240 25c0 -16.667 -8.33301 -25 -25 -25h-110c-16.667 -0 -25 8.33301 -25 25v650c0 16.667 8.33301 25 25 25h110c16.667 0 25 -8.33301 25 -25v-650zM230 795c-5.33301 -7.33301 -10.668 -13.333 -16.001 -18s-11.666 -7 -18.999 -7h-60
c-16.667 0 -21.667 8.33301 -15 25l50 130c3.33301 7.33301 7.5 13.333 12.5 18s12.5 7 22.5 7h95c7.33301 0 13 -2.33301 17 -7s3.33301 -10.667 -2 -18z" />
    <glyph glyph-name="Icircumflex" unicode="&#xce;" horiz-adv-x="325" 
d="M242 25c0 -16.667 -8.33301 -25 -25 -25h-110c-16.667 -0 -25 8.33301 -25 25v650c0 16.667 8.33301 25 25 25h110c16.667 0 25 -8.33301 25 -25v-650zM201 950c10 0 17.8311 -2.33301 23.498 -7s11.167 -10.667 16.5 -18l100 -130c6 -7.33301 6.83301 -13.333 2.5 -18
s-10.166 -7 -17.499 -7h-70c-12.667 0 -22 2.33301 -28 7s-11.667 10.667 -17 18l-45 65h-5l-45 -65c-5.33301 -7.33301 -11 -13.333 -17 -18s-15.333 -7 -28 -7h-70c-7.33301 0 -13.166 2.33301 -17.499 7s-3.5 10.667 2.5 18l100 130
c5.33301 7.33301 10.833 13.333 16.5 18s13.5 7 23.5 7h75z" />
    <glyph glyph-name="Idieresis" unicode="&#xcf;" horiz-adv-x="320" 
d="M240 25c0 -16.667 -8.33301 -25 -25 -25h-110c-16.667 -0 -25 8.33301 -25 25v650c0 16.667 8.33301 25 25 25h110c16.667 0 25 -8.33301 25 -25v-650zM101 920c16.667 0 25 -8.33301 25 -25v-80c0 -16.667 -8.33301 -25 -25 -25h-85c-16.667 0 -25 8.33301 -25 25v80
c0 16.667 8.33301 25 25 25h85zM306 920c16.667 0 25 -8.33301 25 -25v-80c0 -16.667 -8.33301 -25 -25 -25h-85c-16.667 0 -25 8.33301 -25 25v80c0 16.667 8.33301 25 25 25h85z" />
    <glyph glyph-name="Eth" unicode="&#xd0;" horiz-adv-x="820" 
d="M575 700c116.667 0 175 -58.333 175 -175v-350c0 -116.667 -58.333 -175 -175 -175h-440c-16.667 -0 -25 8.33301 -25 25v255h-45c-16.667 0 -25 8.33301 -25 25v80c0 16.667 8.33301 25 25 25h45v265c0 16.667 8.33301 25 25 25h440zM270 280v-140h265
c36.667 0 55 18.333 55 55v310c0 36.667 -18.333 55 -55 55h-265v-150h120c16.667 0 25 -8.33301 25 -25v-80c0 -16.667 -8.33301 -25 -25 -25h-120z" />
    <glyph glyph-name="Ntilde" unicode="&#xd1;" horiz-adv-x="800" 
d="M560 245v430c0 16.667 8.33301 25 25 25h110c16.667 0 25 -8.33301 25 -25v-650c0 -16.667 -8.33301 -25 -25 -25h-135c-10 -0 -17.833 2.33301 -23.5 7s-11.167 10.667 -16.5 18l-270 430h-10v-430c0 -16.667 -8.33301 -25 -25 -25h-110c-16.667 -0 -25 8.33301 -25 25
v650c0 16.667 8.33301 25 25 25h135c10 0 17.833 -2.33301 23.5 -7s11.167 -10.667 16.5 -18l270 -430h10zM480 775c-15.333 0 -28.1689 2.83301 -38.502 8.5s-19.333 12 -27 19l-21 19c-6.33301 5.66699 -12.5 8.5 -18.5 8.5c-5.33301 0 -10 -2 -14 -6s-6 -8.66699 -6 -14
v-15c0 -5.33301 -2 -10 -6 -14s-8.66699 -6 -14 -6h-55c-5.33301 0 -10 2 -14 6s-6 8.66699 -6 14v70c0 22.667 6.83301 40.834 20.5 54.501s31.834 20.5 54.501 20.5c14.667 0 27.334 -2.83301 38.001 -8.5s19.834 -12 27.501 -19l21 -19
c6.33301 -5.66699 12.5 -8.5 18.5 -8.5c5.33301 0 10 2 14 6s6 8.66699 6 14v15c0 5.33301 2 10 6 14s8.66699 6 14 6h55c5.33301 0 10 -2 14 -6s6 -8.66699 6 -14v-70c0 -22.667 -6.83301 -40.834 -20.5 -54.501s-31.834 -20.5 -54.501 -20.5z" />
    <glyph glyph-name="Ograve" unicode="&#xd2;" horiz-adv-x="795" 
d="M725 165c0 -116.667 -58.333 -175 -175 -175h-305c-116.667 0 -175 58.333 -175 175v370c0 116.667 58.333 175 175 175h305c116.667 0 175 -58.333 175 -175v-370zM565 515c0 36.667 -18.333 55 -55 55h-225c-36.667 0 -55 -18.333 -55 -55v-330
c0 -36.667 18.333 -55 55 -55h225c36.667 0 55 18.333 55 55v330zM252 935c-5.33301 7.33301 -6.00195 13.333 -2.00195 18s9.66699 7 17 7h95c10 0 17.5 -2.33301 22.5 -7s9.16699 -10.667 12.5 -18l50 -130c6.66699 -16.667 1.66699 -25 -15 -25h-60
c-7.33301 0 -13.666 2.33301 -18.999 7s-10.666 10.667 -15.999 18z" />
    <glyph glyph-name="Oacute" unicode="&#xd3;" horiz-adv-x="795" 
d="M725 165c0 -116.667 -58.333 -175 -175 -175h-305c-116.667 0 -175 58.333 -175 175v370c0 116.667 58.333 175 175 175h305c116.667 0 175 -58.333 175 -175v-370zM565 515c0 36.667 -18.333 55 -55 55h-225c-36.667 0 -55 -18.333 -55 -55v-330
c0 -36.667 18.333 -55 55 -55h225c36.667 0 55 18.333 55 55v330zM468 805c-5.33301 -7.33301 -10.668 -13.333 -16.001 -18s-11.666 -7 -18.999 -7h-60c-16.667 0 -21.667 8.33301 -15 25l50 130c3.33301 7.33301 7.5 13.333 12.5 18s12.5 7 22.5 7h95
c7.33301 0 13 -2.33301 17 -7s3.33301 -10.667 -2 -18z" />
    <glyph glyph-name="Ocircumflex" unicode="&#xd4;" horiz-adv-x="795" 
d="M725 165c0 -116.667 -58.333 -175 -175 -175h-305c-116.667 0 -175 58.333 -175 175v370c0 116.667 58.333 175 175 175h305c116.667 0 175 -58.333 175 -175v-370zM565 515c0 36.667 -18.333 55 -55 55h-225c-36.667 0 -55 -18.333 -55 -55v-330
c0 -36.667 18.333 -55 55 -55h225c36.667 0 55 18.333 55 55v330zM435 960c10 0 17.8311 -2.33301 23.498 -7s11.167 -10.667 16.5 -18l100 -130c6 -7.33301 6.83301 -13.333 2.5 -18s-10.166 -7 -17.499 -7h-70c-12.667 0 -22 2.33301 -28 7s-11.667 10.667 -17 18l-45 65
h-5l-45 -65c-5.33301 -7.33301 -11 -13.333 -17 -18s-15.333 -7 -28 -7h-70c-7.33301 0 -13.166 2.33301 -17.499 7s-3.5 10.667 2.5 18l100 130c5.33301 7.33301 10.833 13.333 16.5 18s13.5 7 23.5 7h75z" />
    <glyph glyph-name="Otilde" unicode="&#xd5;" horiz-adv-x="795" 
d="M725 165c0 -116.667 -58.333 -175 -175 -175h-305c-116.667 0 -175 58.333 -175 175v370c0 116.667 58.333 175 175 175h305c116.667 0 175 -58.333 175 -175v-370zM565 515c0 36.667 -18.333 55 -55 55h-225c-36.667 0 -55 -18.333 -55 -55v-330
c0 -36.667 18.333 -55 55 -55h225c36.667 0 55 18.333 55 55v330zM470 775c-15.333 0 -28.1689 2.83301 -38.502 8.5s-19.333 12 -27 19l-21 19c-6.33301 5.66699 -12.5 8.5 -18.5 8.5c-5.33301 0 -10 -2 -14 -6s-6 -8.66699 -6 -14v-15c0 -5.33301 -2 -10 -6 -14
s-8.66699 -6 -14 -6h-55c-5.33301 0 -10 2 -14 6s-6 8.66699 -6 14v70c0 22.667 6.83301 40.834 20.5 54.501s31.834 20.5 54.501 20.5c14.667 0 27.334 -2.83301 38.001 -8.5s19.834 -12 27.501 -19l21 -19c6.33301 -5.66699 12.5 -8.5 18.5 -8.5c5.33301 0 10 2 14 6
s6 8.66699 6 14v15c0 5.33301 2 10 6 14s8.66699 6 14 6h55c5.33301 0 10 -2 14 -6s6 -8.66699 6 -14v-70c0 -22.667 -6.83301 -40.834 -20.5 -54.501s-31.834 -20.5 -54.501 -20.5z" />
    <glyph glyph-name="Odieresis" unicode="&#xd6;" horiz-adv-x="795" 
d="M725 165c0 -116.667 -58.333 -175 -175 -175h-305c-116.667 0 -175 58.333 -175 175v370c0 116.667 58.333 175 175 175h305c116.667 0 175 -58.333 175 -175v-370zM565 515c0 36.667 -18.333 55 -55 55h-225c-36.667 0 -55 -18.333 -55 -55v-330
c0 -36.667 18.333 -55 55 -55h225c36.667 0 55 18.333 55 55v330zM340 930c16.667 0 25 -8.33301 25 -25v-80c0 -16.667 -8.33301 -25 -25 -25h-85c-16.667 0 -25 8.33301 -25 25v80c0 16.667 8.33301 25 25 25h85zM545 930c16.667 0 25 -8.33301 25 -25v-80
c0 -16.667 -8.33301 -25 -25 -25h-85c-16.667 0 -25 8.33301 -25 25v80c0 16.667 8.33301 25 25 25h85z" />
    <glyph glyph-name="multiply" unicode="&#xd7;" horiz-adv-x="456" 
d="M408 230c9.33301 -9.33301 9.33301 -19.333 0 -30l-55 -60c-5.33301 -5.33301 -11.166 -8 -17.499 -8s-12.166 2.66699 -17.499 8l-90 90l-90 -90c-5.33301 -5.33301 -11.166 -8 -17.499 -8s-12.166 2.66699 -17.499 8l-55 60c-9.33301 10.667 -9.33301 20.667 0 30
l90 90l-90 90c-9.33301 9.33301 -9.33301 19.333 0 30l55 60c5.33301 5.33301 11.166 8 17.499 8s12.166 -2.66699 17.499 -8l90 -90l90 90c5.33301 5.33301 11.166 8 17.499 8s12.166 -2.66699 17.499 -8l55 -60c9.33301 -10.667 9.33301 -20.667 0 -30l-90 -90z" />
    <glyph glyph-name="Oslash" unicode="&#xd8;" horiz-adv-x="795" 
d="M725 165c0 -116.667 -58.333 -175 -175 -175h-305c-116.667 0 -175 58.333 -175 175v370c0 116.667 58.333 175 175 175h305c116.667 0 175 -58.333 175 -175v-370zM230 200l270 370h-215c-36.667 0 -55 -18.333 -55 -55v-315zM565 500l-270 -370h215
c36.667 0 55 18.333 55 55v315z" />
    <glyph glyph-name="Ugrave" unicode="&#xd9;" horiz-adv-x="790" 
d="M80 675c0 16.667 8.33301 25 25 25h110c16.667 0 25 -8.33301 25 -25v-490c0 -36.667 18.333 -55 55 -55h200c36.667 0 55 18.333 55 55v490c0 16.667 8.33301 25 25 25h110c16.667 0 25 -8.33301 25 -25v-510c0 -116.667 -58.333 -175 -175 -175h-280
c-116.667 0 -175 58.333 -175 175v510zM249 925c-5.33301 7.33301 -6.00195 13.333 -2.00195 18s9.66699 7 17 7h95c10 0 17.5 -2.33301 22.5 -7s9.16699 -10.667 12.5 -18l50 -130c6.66699 -16.667 1.66699 -25 -15 -25h-60c-7.33301 0 -13.666 2.33301 -18.999 7
s-10.666 10.667 -15.999 18z" />
    <glyph glyph-name="Uacute" unicode="&#xda;" horiz-adv-x="790" 
d="M80 675c0 16.667 8.33301 25 25 25h110c16.667 0 25 -8.33301 25 -25v-490c0 -36.667 18.333 -55 55 -55h200c36.667 0 55 18.333 55 55v490c0 16.667 8.33301 25 25 25h110c16.667 0 25 -8.33301 25 -25v-510c0 -116.667 -58.333 -175 -175 -175h-280
c-116.667 0 -175 58.333 -175 175v510zM455 795c-5.33301 -7.33301 -10.668 -13.333 -16.001 -18s-11.666 -7 -18.999 -7h-60c-16.667 0 -21.667 8.33301 -15 25l50 130c3.33301 7.33301 7.5 13.333 12.5 18s12.5 7 22.5 7h95c7.33301 0 13 -2.33301 17 -7
s3.33301 -10.667 -2 -18z" />
    <glyph glyph-name="Ucircumflex" unicode="&#xdb;" horiz-adv-x="790" 
d="M80 675c0 16.667 8.33301 25 25 25h110c16.667 0 25 -8.33301 25 -25v-490c0 -36.667 18.333 -55 55 -55h200c36.667 0 55 18.333 55 55v490c0 16.667 8.33301 25 25 25h110c16.667 0 25 -8.33301 25 -25v-510c0 -116.667 -58.333 -175 -175 -175h-280
c-116.667 0 -175 58.333 -175 175v510zM430 960c10 0 17.8311 -2.33301 23.498 -7s11.167 -10.667 16.5 -18l100 -130c6 -7.33301 6.83301 -13.333 2.5 -18s-10.166 -7 -17.499 -7h-70c-12.667 0 -22 2.33301 -28 7s-11.667 10.667 -17 18l-45 65h-5l-45 -65
c-5.33301 -7.33301 -11 -13.333 -17 -18s-15.333 -7 -28 -7h-70c-7.33301 0 -13.166 2.33301 -17.499 7s-3.5 10.667 2.5 18l100 130c5.33301 7.33301 10.833 13.333 16.5 18s13.5 7 23.5 7h75z" />
    <glyph glyph-name="Udieresis" unicode="&#xdc;" horiz-adv-x="790" 
d="M80 675c0 16.667 8.33301 25 25 25h110c16.667 0 25 -8.33301 25 -25v-490c0 -36.667 18.333 -55 55 -55h200c36.667 0 55 18.333 55 55v490c0 16.667 8.33301 25 25 25h110c16.667 0 25 -8.33301 25 -25v-510c0 -116.667 -58.333 -175 -175 -175h-280
c-116.667 0 -175 58.333 -175 175v510zM335 930c16.667 0 25 -8.33301 25 -25v-80c0 -16.667 -8.33301 -25 -25 -25h-85c-16.667 0 -25 8.33301 -25 25v80c0 16.667 8.33301 25 25 25h85zM540 930c16.667 0 25 -8.33301 25 -25v-80c0 -16.667 -8.33301 -25 -25 -25h-85
c-16.667 0 -25 8.33301 -25 25v80c0 16.667 8.33301 25 25 25h85z" />
    <glyph glyph-name="Yacute" unicode="&#xdd;" horiz-adv-x="698" 
d="M344 410h10l155 265c4.66699 7.33301 10 13.333 16 18s14 7 24 7h130c7.33301 0 12.833 -2.33301 16.5 -7s3.16699 -10.667 -1.5 -18l-265 -435v-215c0 -16.667 -8.33301 -25 -25 -25h-110c-16.667 -0 -25 8.33301 -25 25v215l-265 435
c-4.66699 7.33301 -5.16699 13.333 -1.5 18s9.16699 7 16.5 7h130c10 0 18 -2.33301 24 -7s11.333 -10.667 16 -18zM419 795c-5.33301 -7.33301 -10.668 -13.333 -16.001 -18s-11.666 -7 -18.999 -7h-60c-16.667 0 -21.667 8.33301 -15 25l50 130
c3.33301 7.33301 7.5 13.333 12.5 18s12.5 7 22.5 7h95c7.33301 0 13 -2.33301 17 -7s3.33301 -10.667 -2 -18z" />
    <glyph glyph-name="Thorn" unicode="&#xde;" horiz-adv-x="780" 
d="M545 615c116.667 0 175 -58.333 175 -175v-180c0 -116.667 -58.333 -175 -175 -175h-305v-60c0 -16.667 -8.33301 -25 -25 -25h-110c-16.667 -0 -25 8.33301 -25 25v650c0 16.667 8.33301 25 25 25h110c16.667 0 25 -8.33301 25 -25v-60h305zM505 225
c36.667 0 55 18.333 55 55v140c0 36.667 -18.333 55 -55 55h-265v-250h265z" />
    <glyph glyph-name="germandbls" unicode="&#xdf;" horiz-adv-x="615" 
d="M515 460c0 -19.333 -2.5 -34.6689 -7.5 -46.002s-10.167 -20.333 -15.5 -27c-6.66699 -7.33301 -14 -13 -22 -17v-10c17.333 -2.66699 33 -8.66699 47 -18c12 -8 23 -19.667 33 -35s15 -36 15 -62v-90c0 -50 -13.333 -88.333 -40 -115s-65 -40 -115 -40h-75
c-16.667 0 -25 8.33301 -25 25v75c0 16.667 8.33301 25 25 25h40c15.333 0 27.5 4.5 36.5 13.5s13.5 21.167 13.5 36.5v60c0 15.333 -4.5 27.5 -13.5 36.5s-21.167 13.5 -36.5 13.5h-50c-16.667 0 -25 8.33301 -25 25v80c0 16.667 8.33301 25 25 25h5
c12.667 0 23.334 4.33301 32.001 13s13 19.334 13 32.001v70c0 12.667 -4.33301 23.334 -13 32.001s-19.334 13 -32.001 13h-70c-15.333 0 -27.5 -4.5 -36.5 -13.5s-13.5 -21.167 -13.5 -36.5v-500c0 -16.667 -8.33301 -25 -25 -25h-90c-16.667 -0 -25 8.33301 -25 25v520
c0 50 13.333 88.333 40 115s65 40 115 40h135c50 0 88.333 -13 115 -39s40 -63 40 -111v-90z" />
    <glyph glyph-name="agrave" unicode="&#xe0;" horiz-adv-x="560" 
d="M240 395c-20 0 -30 -10.001 -30 -30.001c0 -16.667 -8.33301 -25 -25 -25h-90c-16.667 0 -25 8.33301 -25 25c0 50 13.333 88.333 40 115s65 40 115 40h120c50 0 88.333 -13.333 115 -40s40 -65 40 -115v-340c0 -16.667 -8.33301 -25 -25 -25h-90
c-16.667 0 -25 8.33301 -25 25v25h-10c-2 -11.333 -6.66699 -21.333 -14 -30c-6 -7.33301 -14.667 -14.166 -26 -20.499s-26.333 -9.5 -45 -9.5h-80c-96.667 0 -145 48.333 -145 145v30c0 96.667 48.333 145 145 145h175v35c0 15.333 -4.5 27.5 -13.5 36.5
s-21.167 13.5 -36.5 13.5h-70zM180 144.999c0 -26.667 13.333 -40 40 -40h85c36.667 0 55 18.333 55 55v40h-140c-26.667 0 -40 -13.333 -40 -40v-15zM145 734.999c-5.33301 7.33301 -6.00195 13.333 -2.00195 18s9.66699 7 17 7h95c10 0 17.5 -2.33301 22.5 -7
s9.16699 -10.667 12.5 -18l50 -130c6.66699 -16.667 1.66699 -25 -15 -25h-60c-7.33301 0 -13.666 2.33301 -18.999 7s-10.666 10.667 -15.999 18z" />
    <glyph glyph-name="aacute" unicode="&#xe1;" horiz-adv-x="560" 
d="M240 395c-20 0 -30 -10.001 -30 -30.001c0 -16.667 -8.33301 -25 -25 -25h-90c-16.667 0 -25 8.33301 -25 25c0 50 13.333 88.333 40 115s65 40 115 40h120c50 0 88.333 -13.333 115 -40s40 -65 40 -115v-340c0 -16.667 -8.33301 -25 -25 -25h-90
c-16.667 0 -25 8.33301 -25 25v25h-10c-2 -11.333 -6.66699 -21.333 -14 -30c-6 -7.33301 -14.667 -14.166 -26 -20.499s-26.333 -9.5 -45 -9.5h-80c-96.667 0 -145 48.333 -145 145v30c0 96.667 48.333 145 145 145h175v35c0 15.333 -4.5 27.5 -13.5 36.5
s-21.167 13.5 -36.5 13.5h-70zM180 144.999c0 -26.667 13.333 -40 40 -40h85c36.667 0 55 18.333 55 55v40h-140c-26.667 0 -40 -13.333 -40 -40v-15zM355 604.999c-5.33301 -7.33301 -10.668 -13.333 -16.001 -18s-11.666 -7 -18.999 -7h-60
c-16.667 0 -21.667 8.33301 -15 25l50 130c3.33301 7.33301 7.5 13.333 12.5 18s12.5 7 22.5 7h95c7.33301 0 13 -2.33301 17 -7s3.33301 -10.667 -2 -18z" />
    <glyph glyph-name="acircumflex" unicode="&#xe2;" horiz-adv-x="560" 
d="M240 395c-20 0 -30 -10.001 -30 -30.001c0 -16.667 -8.33301 -25 -25 -25h-90c-16.667 0 -25 8.33301 -25 25c0 50 13.333 88.333 40 115s65 40 115 40h120c50 0 88.333 -13.333 115 -40s40 -65 40 -115v-340c0 -16.667 -8.33301 -25 -25 -25h-90
c-16.667 0 -25 8.33301 -25 25v25h-10c-2 -11.333 -6.66699 -21.333 -14 -30c-6 -7.33301 -14.667 -14.166 -26 -20.499s-26.333 -9.5 -45 -9.5h-80c-96.667 0 -145 48.333 -145 145v30c0 96.667 48.333 145 145 145h175v35c0 15.333 -4.5 27.5 -13.5 36.5
s-21.167 13.5 -36.5 13.5h-70zM180 144.999c0 -26.667 13.333 -40 40 -40h85c36.667 0 55 18.333 55 55v40h-140c-26.667 0 -40 -13.333 -40 -40v-15zM327 759.999c10 0 17.8311 -2.33301 23.498 -7s11.167 -10.667 16.5 -18l100 -130c6 -7.33301 6.83301 -13.333 2.5 -18
s-10.166 -7 -17.499 -7h-70c-12.667 0 -22 2.33301 -28 7s-11.667 10.667 -17 18l-45 65h-5l-45 -65c-5.33301 -7.33301 -11 -13.333 -17 -18s-15.333 -7 -28 -7h-70c-7.33301 0 -13.166 2.33301 -17.499 7s-3.5 10.667 2.5 18l100 130
c5.33301 7.33301 10.833 13.333 16.5 18s13.5 7 23.5 7h75z" />
    <glyph glyph-name="atilde" unicode="&#xe3;" horiz-adv-x="560" 
d="M240 395c-20 0 -30 -10.001 -30 -30.001c0 -16.667 -8.33301 -25 -25 -25h-90c-16.667 0 -25 8.33301 -25 25c0 50 13.333 88.333 40 115s65 40 115 40h120c50 0 88.333 -13.333 115 -40s40 -65 40 -115v-340c0 -16.667 -8.33301 -25 -25 -25h-90
c-16.667 0 -25 8.33301 -25 25v25h-10c-2 -11.333 -6.66699 -21.333 -14 -30c-6 -7.33301 -14.667 -14.166 -26 -20.499s-26.333 -9.5 -45 -9.5h-80c-96.667 0 -145 48.333 -145 145v30c0 96.667 48.333 145 145 145h175v35c0 15.333 -4.5 27.5 -13.5 36.5
s-21.167 13.5 -36.5 13.5h-70zM180 144.999c0 -26.667 13.333 -40 40 -40h85c36.667 0 55 18.333 55 55v40h-140c-26.667 0 -40 -13.333 -40 -40v-15zM365 574.999c-15.333 0 -28.1689 2.83301 -38.502 8.5s-19.333 12 -27 19l-21 19c-6.33301 5.66699 -12.5 8.5 -18.5 8.5
c-5.33301 0 -10 -2 -14 -6s-6 -8.66699 -6 -14v-15c0 -5.33301 -2 -10 -6 -14s-8.66699 -6 -14 -6h-55c-5.33301 0 -10 2 -14 6s-6 8.66699 -6 14v70c0 22.667 6.83301 40.834 20.5 54.501s31.834 20.5 54.501 20.5c14.667 0 27.334 -2.83301 38.001 -8.5
s19.834 -12 27.501 -19l21 -19c6.33301 -5.66699 12.5 -8.5 18.5 -8.5c5.33301 0 10 2 14 6s6 8.66699 6 14v15c0 5.33301 2 10 6 14s8.66699 6 14 6h55c5.33301 0 10 -2 14 -6s6 -8.66699 6 -14v-70c0 -22.667 -6.83301 -40.834 -20.5 -54.501s-31.834 -20.5 -54.501 -20.5
z" />
    <glyph glyph-name="adieresis" unicode="&#xe4;" horiz-adv-x="560" 
d="M240 395c-20 0 -30 -10.001 -30 -30.001c0 -16.667 -8.33301 -25 -25 -25h-90c-16.667 0 -25 8.33301 -25 25c0 50 13.333 88.333 40 115s65 40 115 40h120c50 0 88.333 -13.333 115 -40s40 -65 40 -115v-340c0 -16.667 -8.33301 -25 -25 -25h-90
c-16.667 0 -25 8.33301 -25 25v25h-10c-2 -11.333 -6.66699 -21.333 -14 -30c-6 -7.33301 -14.667 -14.166 -26 -20.499s-26.333 -9.5 -45 -9.5h-80c-96.667 0 -145 48.333 -145 145v30c0 96.667 48.333 145 145 145h175v35c0 15.333 -4.5 27.5 -13.5 36.5
s-21.167 13.5 -36.5 13.5h-70zM180 144.999c0 -26.667 13.333 -40 40 -40h85c36.667 0 55 18.333 55 55v40h-140c-26.667 0 -40 -13.333 -40 -40v-15zM230 729.999c16.667 0 25 -8.33301 25 -25v-80c0 -16.667 -8.33301 -25 -25 -25h-85c-16.667 0 -25 8.33301 -25 25v80
c0 16.667 8.33301 25 25 25h85zM435 729.999c16.667 0 25 -8.33301 25 -25v-80c0 -16.667 -8.33301 -25 -25 -25h-85c-16.667 0 -25 8.33301 -25 25v80c0 16.667 8.33301 25 25 25h85z" />
    <glyph glyph-name="aring" unicode="&#xe5;" horiz-adv-x="560" 
d="M240 395c-20 0 -30 -10.001 -30 -30.001c0 -16.667 -8.33301 -25 -25 -25h-90c-16.667 0 -25 8.33301 -25 25c0 50 13.333 88.333 40 115s65 40 115 40h120c50 0 88.333 -13.333 115 -40s40 -65 40 -115v-340c0 -16.667 -8.33301 -25 -25 -25h-90
c-16.667 0 -25 8.33301 -25 25v25h-10c-2 -11.333 -6.66699 -21.333 -14 -30c-6 -7.33301 -14.667 -14.166 -26 -20.499s-26.333 -9.5 -45 -9.5h-80c-96.667 0 -145 48.333 -145 145v30c0 96.667 48.333 145 145 145h175v35c0 15.333 -4.5 27.5 -13.5 36.5
s-21.167 13.5 -36.5 13.5h-70zM180 144.999c0 -26.667 13.333 -40 40 -40h85c36.667 0 55 18.333 55 55v40h-140c-26.667 0 -40 -13.333 -40 -40v-15zM407 674.999c0 -32.667 -9.33301 -58.334 -28 -77.001s-44.334 -28 -77.001 -28h-25
c-32.667 0 -58.334 9.33301 -77.001 28s-28 44.334 -28 77.001v20c0 32.667 9.33301 58.334 28 77.001s44.334 28 77.001 28h25c32.667 0 58.334 -9.33301 77.001 -28s28 -44.334 28 -77.001v-20zM327 694.999c0 20 -10 30 -30 30h-15c-20 0 -30 -10 -30 -30v-20
c0 -20 10 -30 30 -30h15c20 0 30 10 30 30v20z" />
    <glyph glyph-name="ae" unicode="&#xe6;" horiz-adv-x="870" 
d="M530 -10c-17.333 0 -32.333 2.5 -45 7.5s-23 10.833 -31 17.5c-9.33301 7.33301 -17.333 15.666 -24 24.999h-10c-6.66699 -9.33301 -14.667 -17.666 -24 -24.999c-8 -6.66699 -18.333 -12.5 -31 -17.5s-27.667 -7.5 -45 -7.5h-135c-96.667 0 -145 48.333 -145 145v30
c0 96.667 48.333 145 145 145h175v35c0 15.333 -4.5 27.5 -13.5 36.5s-21.167 13.5 -36.5 13.5h-70c-20 0 -30 -10 -30 -30c0 -16.667 -8.33301 -25 -25 -25h-90c-16.667 0 -25 8.33301 -25 25c0 50 13.333 88.333 40 115s65 40 115 40h105c17.333 0 32.333 -2.66699 45 -8
s23 -11 31 -17c9.33301 -7.33301 17.333 -15.666 24 -24.999h10c6.66699 9.33301 14.667 17.666 24 24.999c8 6 18.333 11.667 31 17s27.667 8 45 8h125c50 0 88.333 -13.333 115 -40s40 -65 40 -115v-130c0 -16.667 -8.33301 -25 -25 -25h-295v-45
c0 -15.333 4.5 -27.5 13.5 -36.5s21.167 -13.5 36.5 -13.5h95c20 0 30 10 30 30c0 16.667 8.33301 25 25 25h90c16.667 0 25 -8.33301 25 -25c0 -50 -13.333 -88.333 -40 -115s-65 -40 -115 -40h-130zM180 145c0 -26.667 13.333 -40 40 -40h90c15.333 0 27.5 4.5 36.5 13.5
s13.5 21.167 13.5 36.5v55h-140c-26.667 0 -40 -13.333 -40 -40v-25zM500 310h180v40c0 15.333 -4.5 27.5 -13.5 36.5s-21.167 13.5 -36.5 13.5h-80c-15.333 0 -27.5 -4.5 -36.5 -13.5s-13.5 -21.167 -13.5 -36.5v-40z" />
    <glyph glyph-name="ccedilla" unicode="&#xe7;" horiz-adv-x="585" 
d="M310 -195c20 0 30.001 10.0029 30.001 30.0029s-10 30 -30 30h-60c-13.333 0 -20 6.66699 -20 20v30c0 10 1.66699 18.333 5 25c1.33301 3.33301 3 6.66602 5 9.99902l25 40h-50c-50 0 -88.333 13.333 -115 40s-40 65 -40 115v220c0 50 13.333 88.333 40 115
s65 40 115 40h165c50 0 88.333 -13.333 115 -40s40 -65 40 -115v-40c0 -16.667 -8.33301 -25 -25 -25h-90c-16.667 0 -25 8.33301 -25 25v20c0 15.333 -4.5 27.5 -13.5 36.5s-21.167 13.5 -36.5 13.5h-95c-15.333 0 -27.5 -4.5 -36.5 -13.5s-13.5 -21.167 -13.5 -36.5v-180
c0 -15.333 4.5 -27.5 13.5 -36.5s21.167 -13.5 36.5 -13.5h95c15.333 0 27.5 4.5 36.5 13.5s13.5 21.167 13.5 36.5v20c0 16.667 8.33301 25 25 25h90c16.667 0 25 -8.33301 25 -25v-40c0 -50 -13.333 -88.333 -40 -115s-65 -40 -115 -40h-50l-25 -50
c38 0 66.667 -9.33301 86 -28s29 -44.334 29 -77.001v-5c0 -32.667 -9.33301 -58.334 -28 -77.001s-44.334 -28 -77.001 -28h-80c-13.333 0 -20 6.66699 -20 20v40c0 13.333 6.66699 20 20 20h75z" />
    <glyph glyph-name="egrave" unicode="&#xe8;" 
d="M360 115c20 0 30 10 30 30c0 16.667 8.33301 25 25 25h90c16.667 0 25 -8.33301 25 -25c0 -50 -13.333 -88.333 -40 -115s-65 -40 -115 -40h-160c-50 0 -88.333 13.333 -115 40s-40 65 -40 115v220c0 50 13.333 88.333 40 115s65 40 115 40h165
c50 0 88.333 -13.333 115 -40s40 -65 40 -115v-130c0 -16.667 -8.33301 -25 -25 -25h-310v-45c0 -15.333 4.5 -27.5 13.5 -36.5s21.167 -13.5 36.5 -13.5h110zM200 320h195v30c0 15.333 -4.5 27.5 -13.5 36.5s-21.167 13.5 -36.5 13.5h-95c-15.333 0 -27.5 -4.5 -36.5 -13.5
s-13.5 -21.167 -13.5 -36.5v-30zM152 735c-5.33301 7.33301 -6.00195 13.333 -2.00195 18s9.66699 7 17 7h95c10 0 17.5 -2.33301 22.5 -7s9.16699 -10.667 12.5 -18l50 -130c6.66699 -16.667 1.66699 -25 -15 -25h-60c-7.33301 0 -13.666 2.33301 -18.999 7
s-10.666 10.667 -15.999 18z" />
    <glyph glyph-name="eacute" unicode="&#xe9;" 
d="M360 115c20 0 30 10 30 30c0 16.667 8.33301 25 25 25h90c16.667 0 25 -8.33301 25 -25c0 -50 -13.333 -88.333 -40 -115s-65 -40 -115 -40h-160c-50 0 -88.333 13.333 -115 40s-40 65 -40 115v220c0 50 13.333 88.333 40 115s65 40 115 40h165
c50 0 88.333 -13.333 115 -40s40 -65 40 -115v-130c0 -16.667 -8.33301 -25 -25 -25h-310v-45c0 -15.333 4.5 -27.5 13.5 -36.5s21.167 -13.5 36.5 -13.5h110zM200 320h195v30c0 15.333 -4.5 27.5 -13.5 36.5s-21.167 13.5 -36.5 13.5h-95c-15.333 0 -27.5 -4.5 -36.5 -13.5
s-13.5 -21.167 -13.5 -36.5v-30zM368 605c-5.33301 -7.33301 -10.668 -13.333 -16.001 -18s-11.666 -7 -18.999 -7h-60c-16.667 0 -21.667 8.33301 -15 25l50 130c3.33301 7.33301 7.5 13.333 12.5 18s12.5 7 22.5 7h95c7.33301 0 13 -2.33301 17 -7s3.33301 -10.667 -2 -18
z" />
    <glyph glyph-name="ecircumflex" unicode="&#xea;" 
d="M360 115c20 0 30 10 30 30c0 16.667 8.33301 25 25 25h90c16.667 0 25 -8.33301 25 -25c0 -50 -13.333 -88.333 -40 -115s-65 -40 -115 -40h-160c-50 0 -88.333 13.333 -115 40s-40 65 -40 115v220c0 50 13.333 88.333 40 115s65 40 115 40h165
c50 0 88.333 -13.333 115 -40s40 -65 40 -115v-130c0 -16.667 -8.33301 -25 -25 -25h-310v-45c0 -15.333 4.5 -27.5 13.5 -36.5s21.167 -13.5 36.5 -13.5h110zM200 320h195v30c0 15.333 -4.5 27.5 -13.5 36.5s-21.167 13.5 -36.5 13.5h-95c-15.333 0 -27.5 -4.5 -36.5 -13.5
s-13.5 -21.167 -13.5 -36.5v-30zM335 760c10 0 17.8311 -2.33301 23.498 -7s11.167 -10.667 16.5 -18l100 -130c6 -7.33301 6.83301 -13.333 2.5 -18s-10.166 -7 -17.499 -7h-70c-12.667 0 -22 2.33301 -28 7s-11.667 10.667 -17 18l-45 65h-5l-45 -65
c-5.33301 -7.33301 -11 -13.333 -17 -18s-15.333 -7 -28 -7h-70c-7.33301 0 -13.166 2.33301 -17.499 7s-3.5 10.667 2.5 18l100 130c5.33301 7.33301 10.833 13.333 16.5 18s13.5 7 23.5 7h75z" />
    <glyph glyph-name="edieresis" unicode="&#xeb;" 
d="M360 115c20 0 30 10 30 30c0 16.667 8.33301 25 25 25h90c16.667 0 25 -8.33301 25 -25c0 -50 -13.333 -88.333 -40 -115s-65 -40 -115 -40h-160c-50 0 -88.333 13.333 -115 40s-40 65 -40 115v220c0 50 13.333 88.333 40 115s65 40 115 40h165
c50 0 88.333 -13.333 115 -40s40 -65 40 -115v-130c0 -16.667 -8.33301 -25 -25 -25h-310v-45c0 -15.333 4.5 -27.5 13.5 -36.5s21.167 -13.5 36.5 -13.5h110zM200 320h195v30c0 15.333 -4.5 27.5 -13.5 36.5s-21.167 13.5 -36.5 13.5h-95c-15.333 0 -27.5 -4.5 -36.5 -13.5
s-13.5 -21.167 -13.5 -36.5v-30zM235 730c16.667 0 25 -8.33301 25 -25v-80c0 -16.667 -8.33301 -25 -25 -25h-85c-16.667 0 -25 8.33301 -25 25v80c0 16.667 8.33301 25 25 25h85zM440 730c16.667 0 25 -8.33301 25 -25v-80c0 -16.667 -8.33301 -25 -25 -25h-85
c-16.667 0 -25 8.33301 -25 25v80c0 16.667 8.33301 25 25 25h85z" />
    <glyph glyph-name="igrave" unicode="&#xec;" horiz-adv-x="260" 
d="M175 510c16.667 0 25 -8.33301 25 -25v-460c0 -16.667 -8.33301 -25 -25 -25h-90c-16.667 -0 -25 8.33301 -25 25v460c0 16.667 8.33301 25 25 25h90zM-14 735c-5.33301 7.33301 -6.00195 13.333 -2.00195 18s9.66699 7 17 7h95c10 0 17.5 -2.33301 22.5 -7
s9.16699 -10.667 12.5 -18l50 -130c6.66699 -16.667 1.66699 -25 -15 -25h-60c-7.33301 0 -13.666 2.33301 -18.999 7s-10.666 10.667 -15.999 18z" />
    <glyph glyph-name="iacute" unicode="&#xed;" horiz-adv-x="271" 
d="M175 510c16.667 0 25 -8.33301 25 -25v-460c0 -16.667 -8.33301 -25 -25 -25h-90c-16.667 -0 -25 8.33301 -25 25v460c0 16.667 8.33301 25 25 25h90zM201 605c-5.33301 -7.33301 -10.668 -13.333 -16.001 -18s-11.666 -7 -18.999 -7h-60
c-16.667 0 -21.667 8.33301 -15 25l50 130c3.33301 7.33301 7.5 13.333 12.5 18s12.5 7 22.5 7h95c7.33301 0 13 -2.33301 17 -7s3.33301 -10.667 -2 -18z" />
    <glyph glyph-name="icircumflex" unicode="&#xee;" horiz-adv-x="265" 
d="M177 510c16.667 0 25 -8.33301 25 -25v-460c0 -16.667 -8.33301 -25 -25 -25h-90c-16.667 -0 -25 8.33301 -25 25v460c0 16.667 8.33301 25 25 25h90zM171 760c10 0 17.8311 -2.33301 23.498 -7s11.167 -10.667 16.5 -18l100 -130c6 -7.33301 6.83301 -13.333 2.5 -18
s-10.166 -7 -17.499 -7h-70c-12.667 0 -22 2.33301 -28 7s-11.667 10.667 -17 18l-45 65h-5l-45 -65c-5.33301 -7.33301 -11 -13.333 -17 -18s-15.333 -7 -28 -7h-70c-7.33301 0 -13.166 2.33301 -17.499 7s-3.5 10.667 2.5 18l100 130
c5.33301 7.33301 10.833 13.333 16.5 18s13.5 7 23.5 7h75z" />
    <glyph glyph-name="idieresis" unicode="&#xef;" horiz-adv-x="260" 
d="M175 510c16.667 0 25 -8.33301 25 -25v-460c0 -16.667 -8.33301 -25 -25 -25h-90c-16.667 -0 -25 8.33301 -25 25v460c0 16.667 8.33301 25 25 25h90zM71 730c16.667 0 25 -8.33301 25 -25v-80c0 -16.667 -8.33301 -25 -25 -25h-85c-16.667 0 -25 8.33301 -25 25v80
c0 16.667 8.33301 25 25 25h85zM276 730c16.667 0 25 -8.33301 25 -25v-80c0 -16.667 -8.33301 -25 -25 -25h-85c-16.667 0 -25 8.33301 -25 25v80c0 16.667 8.33301 25 25 25h85z" />
    <glyph glyph-name="eth" unicode="&#xf0;" horiz-adv-x="575" 
d="M245 715c6 14.667 15.998 19.667 29.998 15l65 -20c16 -5.33301 21 -15.333 15 -30l-10 -35l45 -15c40 -13.333 70.833 -32.5 92.5 -57.5s32.5 -57.833 32.5 -98.5v-329c0 -50 -13.333 -88.333 -40 -115s-65 -40 -115 -40h-155c-50 0 -88.333 13.333 -115 40
s-40 65 -40 115v120c0 50 13.333 88.333 40 115s65 40 115 40h170v50c0 12.667 -3.16699 22.5 -9.5 29.5s-13.166 12.167 -20.499 15.5l-40 15l-10 -35c-6 -14.667 -16 -19.667 -30 -15l-65 20c-16 5.33301 -21 15.333 -15 30l10 35l-50 16
c-7.33301 2.66699 -12.333 7.16699 -15 13.5s-2.66699 13.166 0 20.499l20 60c2.66699 7.33301 7.33398 13.333 14.001 18s13.667 5.33398 21 2.00098l50 -15zM239.998 295c-15.333 0 -27.5 -4.5 -36.5 -13.5s-13.5 -21.167 -13.5 -36.5v-80c0 -15.333 4.5 -27.5 13.5 -36.5
s21.167 -13.5 36.5 -13.5h85c15.333 0 27.5 4.5 36.5 13.5s13.5 21.167 13.5 36.5v130h-135z" />
    <glyph glyph-name="ntilde" unicode="&#xf1;" 
d="M380 520c50 0 88.332 -13.333 114.999 -40s40 -65 40 -115v-340c0 -16.667 -8.33301 -25 -25 -25h-90c-16.667 -0 -25 8.33301 -25 25v320c0 15.333 -4.5 27.5 -13.5 36.5s-21.167 13.5 -36.5 13.5h-85c-17.333 0 -31.666 -5.66699 -42.999 -17s-17 -25.666 -17 -42.999
v-310c0 -16.667 -8.33301 -25 -25 -25h-90c-16.667 0 -25 8.33301 -25 25v460c0 16.667 8.33301 25 25 25h90c16.667 0 25 -8.33301 25 -25v-25h10c2 11.333 6.66699 21.333 14 30c6 7.33301 14.5 14.166 25.5 20.499s26.167 9.5 45.5 9.5h85zM369.999 585
c-15.333 0 -28.1689 2.83301 -38.502 8.5s-19.333 12 -27 19l-21 19c-6.33301 5.66699 -12.5 8.5 -18.5 8.5c-5.33301 0 -10 -2 -14 -6s-6 -8.66699 -6 -14v-15c0 -5.33301 -2 -10 -6 -14s-8.66699 -6 -14 -6h-55c-5.33301 0 -10 2 -14 6s-6 8.66699 -6 14v70
c0 22.667 6.83301 40.834 20.5 54.501s31.834 20.5 54.501 20.5c14.667 0 27.334 -2.83301 38.001 -8.5s19.834 -12 27.501 -19l21 -19c6.33301 -5.66699 12.5 -8.5 18.5 -8.5c5.33301 0 10 2 14 6s6 8.66699 6 14v15c0 5.33301 2 10 6 14s8.66699 6 14 6h55
c5.33301 0 10 -2 14 -6s6 -8.66699 6 -14v-70c0 -22.667 -6.83301 -40.834 -20.5 -54.501s-31.834 -20.5 -54.501 -20.5z" />
    <glyph glyph-name="ograve" unicode="&#xf2;" horiz-adv-x="605" 
d="M405 345c0 15.333 -4.5 27.5 -13.5 36.5s-21.167 13.5 -36.5 13.5h-105c-15.333 0 -27.5 -4.5 -36.5 -13.5s-13.5 -21.167 -13.5 -36.5v-180c0 -15.333 4.5 -27.5 13.5 -36.5s21.167 -13.5 36.5 -13.5h105c15.333 0 27.5 4.5 36.5 13.5s13.5 21.167 13.5 36.5v180z
M545 145c0 -50 -13.333 -88.333 -40 -115s-65 -40 -115 -40h-175c-50 0 -88.333 13.333 -115 40s-40 65 -40 115v220c0 50 13.333 88.333 40 115s65 40 115 40h175c50 0 88.333 -13.333 115 -40s40 -65 40 -115v-220zM157 735c-5.33301 7.33301 -6.00195 13.333 -2.00195 18
s9.66699 7 17 7h95c10 0 17.5 -2.33301 22.5 -7s9.16699 -10.667 12.5 -18l50 -130c6.66699 -16.667 1.66699 -25 -15 -25h-60c-7.33301 0 -13.666 2.33301 -18.999 7s-10.666 10.667 -15.999 18z" />
    <glyph glyph-name="oacute" unicode="&#xf3;" horiz-adv-x="605" 
d="M405 345c0 15.333 -4.5 27.5 -13.5 36.5s-21.167 13.5 -36.5 13.5h-105c-15.333 0 -27.5 -4.5 -36.5 -13.5s-13.5 -21.167 -13.5 -36.5v-180c0 -15.333 4.5 -27.5 13.5 -36.5s21.167 -13.5 36.5 -13.5h105c15.333 0 27.5 4.5 36.5 13.5s13.5 21.167 13.5 36.5v180z
M545 145c0 -50 -13.333 -88.333 -40 -115s-65 -40 -115 -40h-175c-50 0 -88.333 13.333 -115 40s-40 65 -40 115v220c0 50 13.333 88.333 40 115s65 40 115 40h175c50 0 88.333 -13.333 115 -40s40 -65 40 -115v-220zM373 605
c-5.33301 -7.33301 -10.668 -13.333 -16.001 -18s-11.666 -7 -18.999 -7h-60c-16.667 0 -21.667 8.33301 -15 25l50 130c3.33301 7.33301 7.5 13.333 12.5 18s12.5 7 22.5 7h95c7.33301 0 13 -2.33301 17 -7s3.33301 -10.667 -2 -18z" />
    <glyph glyph-name="ocircumflex" unicode="&#xf4;" horiz-adv-x="605" 
d="M405 345c0 15.333 -4.5 27.5 -13.5 36.5s-21.167 13.5 -36.5 13.5h-105c-15.333 0 -27.5 -4.5 -36.5 -13.5s-13.5 -21.167 -13.5 -36.5v-180c0 -15.333 4.5 -27.5 13.5 -36.5s21.167 -13.5 36.5 -13.5h105c15.333 0 27.5 4.5 36.5 13.5s13.5 21.167 13.5 36.5v180z
M545 145c0 -50 -13.333 -88.333 -40 -115s-65 -40 -115 -40h-175c-50 0 -88.333 13.333 -115 40s-40 65 -40 115v220c0 50 13.333 88.333 40 115s65 40 115 40h175c50 0 88.333 -13.333 115 -40s40 -65 40 -115v-220zM340 760c10 0 17.8311 -2.33301 23.498 -7
s11.167 -10.667 16.5 -18l100 -130c6 -7.33301 6.83301 -13.333 2.5 -18s-10.166 -7 -17.499 -7h-70c-12.667 0 -22 2.33301 -28 7s-11.667 10.667 -17 18l-45 65h-5l-45 -65c-5.33301 -7.33301 -11 -13.333 -17 -18s-15.333 -7 -28 -7h-70
c-7.33301 0 -13.166 2.33301 -17.499 7s-3.5 10.667 2.5 18l100 130c5.33301 7.33301 10.833 13.333 16.5 18s13.5 7 23.5 7h75z" />
    <glyph glyph-name="otilde" unicode="&#xf5;" horiz-adv-x="605" 
d="M405 345c0 15.333 -4.5 27.5 -13.5 36.5s-21.167 13.5 -36.5 13.5h-105c-15.333 0 -27.5 -4.5 -36.5 -13.5s-13.5 -21.167 -13.5 -36.5v-180c0 -15.333 4.5 -27.5 13.5 -36.5s21.167 -13.5 36.5 -13.5h105c15.333 0 27.5 4.5 36.5 13.5s13.5 21.167 13.5 36.5v180z
M545 145c0 -50 -13.333 -88.333 -40 -115s-65 -40 -115 -40h-175c-50 0 -88.333 13.333 -115 40s-40 65 -40 115v220c0 50 13.333 88.333 40 115s65 40 115 40h175c50 0 88.333 -13.333 115 -40s40 -65 40 -115v-220zM375 585c-15.333 0 -28.1689 2.83301 -38.502 8.5
s-19.333 12 -27 19l-21 19c-6.33301 5.66699 -12.5 8.5 -18.5 8.5c-5.33301 0 -10 -2 -14 -6s-6 -8.66699 -6 -14v-15c0 -5.33301 -2 -10 -6 -14s-8.66699 -6 -14 -6h-55c-5.33301 0 -10 2 -14 6s-6 8.66699 -6 14v70c0 22.667 6.83301 40.834 20.5 54.501
s31.834 20.5 54.501 20.5c14.667 0 27.334 -2.83301 38.001 -8.5s19.834 -12 27.501 -19l21 -19c6.33301 -5.66699 12.5 -8.5 18.5 -8.5c5.33301 0 10 2 14 6s6 8.66699 6 14v15c0 5.33301 2 10 6 14s8.66699 6 14 6h55c5.33301 0 10 -2 14 -6s6 -8.66699 6 -14v-70
c0 -22.667 -6.83301 -40.834 -20.5 -54.501s-31.834 -20.5 -54.501 -20.5z" />
    <glyph glyph-name="odieresis" unicode="&#xf6;" horiz-adv-x="605" 
d="M405 345c0 15.333 -4.5 27.5 -13.5 36.5s-21.167 13.5 -36.5 13.5h-105c-15.333 0 -27.5 -4.5 -36.5 -13.5s-13.5 -21.167 -13.5 -36.5v-180c0 -15.333 4.5 -27.5 13.5 -36.5s21.167 -13.5 36.5 -13.5h105c15.333 0 27.5 4.5 36.5 13.5s13.5 21.167 13.5 36.5v180z
M545 145c0 -50 -13.333 -88.333 -40 -115s-65 -40 -115 -40h-175c-50 0 -88.333 13.333 -115 40s-40 65 -40 115v220c0 50 13.333 88.333 40 115s65 40 115 40h175c50 0 88.333 -13.333 115 -40s40 -65 40 -115v-220zM240 740c16.667 0 25 -8.33301 25 -25v-80
c0 -16.667 -8.33301 -25 -25 -25h-85c-16.667 0 -25 8.33301 -25 25v80c0 16.667 8.33301 25 25 25h85zM445 740c16.667 0 25 -8.33301 25 -25v-80c0 -16.667 -8.33301 -25 -25 -25h-85c-16.667 0 -25 8.33301 -25 25v80c0 16.667 8.33301 25 25 25h85z" />
    <glyph glyph-name="divide" unicode="&#xf7;" horiz-adv-x="460" 
d="M405 380c16.667 0 25 -8.33301 25 -25v-80c0 -16.667 -8.33301 -25 -25 -25h-350c-16.667 0 -25 8.33301 -25 25v80c0 16.667 8.33301 25 25 25h350zM185 450c-16.667 0 -25 8.33301 -25 25v85c0 16.667 8.33301 25 25 25h90c16.667 0 25 -8.33301 25 -25v-85
c0 -16.667 -8.33301 -25 -25 -25h-90zM185 45c-16.667 0 -25 8.33301 -25 25v85c0 16.667 8.33301 25 25 25h90c16.667 0 25 -8.33301 25 -25v-85c0 -16.667 -8.33301 -25 -25 -25h-90z" />
    <glyph glyph-name="oslash" unicode="&#xf8;" horiz-adv-x="605" 
d="M545 145c0 -50 -13.333 -88.333 -40 -115s-65 -40 -115 -40h-175c-50 0 -88.333 13.333 -115 40s-40 65 -40 115v220c0 50 13.333 88.333 40 115s65 40 115 40h175c50 0 88.333 -13.333 115 -40s40 -65 40 -115v-220zM360 395h-110c-15.333 0 -27.5 -4.5 -36.5 -13.5
s-13.5 -21.167 -13.5 -36.5v-180zM405 345l-160 -230h110c15.333 0 27.5 4.5 36.5 13.5s13.5 21.167 13.5 36.5v180z" />
    <glyph glyph-name="ugrave" unicode="&#xf9;" 
d="M215 -10c-50 0 -88.332 13.333 -114.999 40s-40 65 -40 115v340c0 16.667 8.33301 25 25 25h90c16.667 0 25 -8.33301 25 -25v-320c0 -15.333 4.5 -27.5 13.5 -36.5s21.167 -13.5 36.5 -13.5h85c17.333 0 31.666 5.66699 42.999 17s17 25.666 17 42.999v310
c0 16.667 8.33301 25 25 25h90c16.667 0 25 -8.33301 25 -25v-460c0 -16.667 -8.33301 -25 -25 -25h-90c-16.667 0 -25 8.33301 -25 25v25h-10c-2 -11.333 -6.66699 -21.333 -14 -30c-6 -7.33301 -14.667 -14.166 -26 -20.499s-26.333 -9.5 -45 -9.5h-85zM152.001 725
c-5.33301 7.33301 -6.00195 13.333 -2.00195 18s9.66699 7 17 7h95c10 0 17.5 -2.33301 22.5 -7s9.16699 -10.667 12.5 -18l50 -130c6.66699 -16.667 1.66699 -25 -15 -25h-60c-7.33301 0 -13.666 2.33301 -18.999 7s-10.666 10.667 -15.999 18z" />
    <glyph glyph-name="uacute" unicode="&#xfa;" 
d="M215 -10c-50 0 -88.332 13.333 -114.999 40s-40 65 -40 115v340c0 16.667 8.33301 25 25 25h90c16.667 0 25 -8.33301 25 -25v-320c0 -15.333 4.5 -27.5 13.5 -36.5s21.167 -13.5 36.5 -13.5h85c17.333 0 31.666 5.66699 42.999 17s17 25.666 17 42.999v310
c0 16.667 8.33301 25 25 25h90c16.667 0 25 -8.33301 25 -25v-460c0 -16.667 -8.33301 -25 -25 -25h-90c-16.667 0 -25 8.33301 -25 25v25h-10c-2 -11.333 -6.66699 -21.333 -14 -30c-6 -7.33301 -14.667 -14.166 -26 -20.499s-26.333 -9.5 -45 -9.5h-85zM358.001 595
c-5.33301 -7.33301 -10.668 -13.333 -16.001 -18s-11.666 -7 -18.999 -7h-60c-16.667 0 -21.667 8.33301 -15 25l50 130c3.33301 7.33301 7.5 13.333 12.5 18s12.5 7 22.5 7h95c7.33301 0 13 -2.33301 17 -7s3.33301 -10.667 -2 -18z" />
    <glyph glyph-name="ucircumflex" unicode="&#xfb;" 
d="M215 -10c-50 0 -88.332 13.333 -114.999 40s-40 65 -40 115v340c0 16.667 8.33301 25 25 25h90c16.667 0 25 -8.33301 25 -25v-320c0 -15.333 4.5 -27.5 13.5 -36.5s21.167 -13.5 36.5 -13.5h85c17.333 0 31.666 5.66699 42.999 17s17 25.666 17 42.999v310
c0 16.667 8.33301 25 25 25h90c16.667 0 25 -8.33301 25 -25v-460c0 -16.667 -8.33301 -25 -25 -25h-90c-16.667 0 -25 8.33301 -25 25v25h-10c-2 -11.333 -6.66699 -21.333 -14 -30c-6 -7.33301 -14.667 -14.166 -26 -20.499s-26.333 -9.5 -45 -9.5h-85zM335.001 750
c10 0 17.8311 -2.33301 23.498 -7s11.167 -10.667 16.5 -18l100 -130c6 -7.33301 6.83301 -13.333 2.5 -18s-10.166 -7 -17.499 -7h-70c-12.667 0 -22 2.33301 -28 7s-11.667 10.667 -17 18l-45 65h-5l-45 -65c-5.33301 -7.33301 -11 -13.333 -17 -18s-15.333 -7 -28 -7h-70
c-7.33301 0 -13.166 2.33301 -17.499 7s-3.5 10.667 2.5 18l100 130c5.33301 7.33301 10.833 13.333 16.5 18s13.5 7 23.5 7h75z" />
    <glyph glyph-name="udieresis" unicode="&#xfc;" 
d="M215 -10c-50 0 -88.332 13.333 -114.999 40s-40 65 -40 115v340c0 16.667 8.33301 25 25 25h90c16.667 0 25 -8.33301 25 -25v-320c0 -15.333 4.5 -27.5 13.5 -36.5s21.167 -13.5 36.5 -13.5h85c17.333 0 31.666 5.66699 42.999 17s17 25.666 17 42.999v310
c0 16.667 8.33301 25 25 25h90c16.667 0 25 -8.33301 25 -25v-460c0 -16.667 -8.33301 -25 -25 -25h-90c-16.667 0 -25 8.33301 -25 25v25h-10c-2 -11.333 -6.66699 -21.333 -14 -30c-6 -7.33301 -14.667 -14.166 -26 -20.499s-26.333 -9.5 -45 -9.5h-85zM235.001 730
c16.667 0 25 -8.33301 25 -25v-80c0 -16.667 -8.33301 -25 -25 -25h-85c-16.667 0 -25 8.33301 -25 25v80c0 16.667 8.33301 25 25 25h85zM440.001 730c16.667 0 25 -8.33301 25 -25v-80c0 -16.667 -8.33301 -25 -25 -25h-85c-16.667 0 -25 8.33301 -25 25v80
c0 16.667 8.33301 25 25 25h85z" />
    <glyph glyph-name="yacute" unicode="&#xfd;" horiz-adv-x="516" 
d="M363 485c2.66699 7.33301 6.66699 13.333 12 18s13 7 23 7h100c16.667 0 21.667 -8.33301 15 -25l-190 -515c-17.333 -47.333 -43 -85.833 -77 -115.5s-78.333 -44.5 -133 -44.5h-30c-16.667 0 -25 8.33301 -25 25v75c0 16.667 8.33301 25 25 25h30
c17.333 0 31 3.5 41 10.5s17.667 15.167 23 24.5c6 10 9.66699 21.667 11 35l-185 480c-6.66699 16.667 -1.66699 25 15 25h100c10 0 17.667 -2.33301 23 -7s9.33301 -10.667 12 -18l105 -295h10zM328 605c-5.33301 -7.33301 -10.668 -13.333 -16.001 -18
s-11.666 -7 -18.999 -7h-60c-16.667 0 -21.667 8.33301 -15 25l50 130c3.33301 7.33301 7.5 13.333 12.5 18s12.5 7 22.5 7h95c7.33301 0 13 -2.33301 17 -7s3.33301 -10.667 -2 -18z" />
    <glyph glyph-name="thorn" unicode="&#xfe;" horiz-adv-x="605" 
d="M95 -190c-16.667 0 -25 8.33301 -25 25v840c0 16.667 8.33301 25 25 25h90c16.667 0 25 -8.33301 25 -25v-165h180c50 0 88.333 -13.333 115 -40s40 -65 40 -115v-200c0 -50 -13.333 -88.333 -40 -115s-65 -40 -115 -40h-180v-165c0 -16.667 -8.33301 -25 -25 -25h-90z
M210 385v-260h145c15.333 0 27.5 4.5 36.5 13.5s13.5 21.167 13.5 36.5v160c0 15.333 -4.5 27.5 -13.5 36.5s-21.167 13.5 -36.5 13.5h-145z" />
    <glyph glyph-name="ydieresis" unicode="&#xff;" horiz-adv-x="516" 
d="M363 485c2.66699 7.33301 6.66699 13.333 12 18s13 7 23 7h100c16.667 0 21.667 -8.33301 15 -25l-190 -515c-17.333 -47.333 -43 -85.833 -77 -115.5s-78.333 -44.5 -133 -44.5h-30c-16.667 0 -25 8.33301 -25 25v75c0 16.667 8.33301 25 25 25h30
c17.333 0 31 3.5 41 10.5s17.667 15.167 23 24.5c6 10 9.66699 21.667 11 35l-185 480c-6.66699 16.667 -1.66699 25 15 25h100c10 0 17.667 -2.33301 23 -7s9.33301 -10.667 12 -18l105 -295h10zM195 740c16.667 0 25 -8.33301 25 -25v-80c0 -16.667 -8.33301 -25 -25 -25
h-85c-16.667 0 -25 8.33301 -25 25v80c0 16.667 8.33301 25 25 25h85zM400 740c16.667 0 25 -8.33301 25 -25v-80c0 -16.667 -8.33301 -25 -25 -25h-85c-16.667 0 -25 8.33301 -25 25v80c0 16.667 8.33301 25 25 25h85z" />
    <glyph glyph-name="Amacron" unicode="&#x100;" horiz-adv-x="736" 
d="M233 145l-45 -120c-3.33301 -7.33301 -7.5 -13.333 -12.5 -18s-12.5 -7 -22.5 -7h-125c-16.667 -0 -21.667 8.33301 -15 25l245 650c6.66699 16.667 20 25 40 25h145c10 0 17.5 -2.33301 22.5 -7s9.16699 -10.667 12.5 -18l245 -650c6.66699 -16.667 1.66699 -25 -15 -25
h-125c-10 -0 -17.5 2.33301 -22.5 7s-9.16699 10.667 -12.5 18l-45 120h-270zM453 285l-80 215h-10l-80 -215h170zM240 800c-16.667 0 -25 8.33301 -25 25v55c0 16.667 8.33301 25 25 25h255c16.667 0 25 -8.33301 25 -25v-55c0 -16.667 -8.33301 -25 -25 -25h-255z" />
    <glyph glyph-name="amacron" unicode="&#x101;" horiz-adv-x="560" 
d="M240 395c-20 0 -30 -10.001 -30 -30.001c0 -16.667 -8.33301 -25 -25 -25h-90c-16.667 0 -25 8.33301 -25 25c0 50 13.333 88.333 40 115s65 40 115 40h120c50 0 88.333 -13.333 115 -40s40 -65 40 -115v-340c0 -16.667 -8.33301 -25 -25 -25h-90
c-16.667 0 -25 8.33301 -25 25v25h-10c-2 -11.333 -6.66699 -21.333 -14 -30c-6 -7.33301 -14.667 -14.166 -26 -20.499s-26.333 -9.5 -45 -9.5h-80c-96.667 0 -145 48.333 -145 145v30c0 96.667 48.333 145 145 145h175v35c0 15.333 -4.5 27.5 -13.5 36.5
s-21.167 13.5 -36.5 13.5h-70zM180 144.999c0 -26.667 13.333 -40 40 -40h85c36.667 0 55 18.333 55 55v40h-140c-26.667 0 -40 -13.333 -40 -40v-15zM160 609.999c-16.667 0 -25 8.33301 -25 25v55c0 16.667 8.33301 25 25 25h255c16.667 0 25 -8.33301 25 -25v-55
c0 -16.667 -8.33301 -25 -25 -25h-255z" />
    <glyph glyph-name="Abreve" unicode="&#x102;" horiz-adv-x="736" 
d="M233 145l-45 -120c-3.33301 -7.33301 -7.5 -13.333 -12.5 -18s-12.5 -7 -22.5 -7h-125c-16.667 -0 -21.667 8.33301 -15 25l245 650c6.66699 16.667 20 25 40 25h145c10 0 17.5 -2.33301 22.5 -7s9.16699 -10.667 12.5 -18l245 -650c6.66699 -16.667 1.66699 -25 -15 -25
h-125c-10 -0 -17.5 2.33301 -22.5 7s-9.16699 10.667 -12.5 18l-45 120h-270zM453 285l-80 215h-10l-80 -215h170zM320 905c0 -10 3.33301 -18.333 10 -25s15 -10 25 -10h25c10 0 18.333 3.33301 25 10s10 15 10 25v10c0 16.667 8.33301 25 25 25h70
c16.667 0 25 -8.33301 25 -25v-10c0 -86.667 -43.333 -130 -130 -130h-75c-86.667 0 -130 43.333 -130 130v10c0 16.667 8.33301 25 25 25h70c16.667 0 25 -8.33301 25 -25v-10z" />
    <glyph glyph-name="abreve" unicode="&#x103;" horiz-adv-x="560" 
d="M240 395c-20 0 -30 -10.001 -30 -30.001c0 -16.667 -8.33301 -25 -25 -25h-90c-16.667 0 -25 8.33301 -25 25c0 50 13.333 88.333 40 115s65 40 115 40h120c50 0 88.333 -13.333 115 -40s40 -65 40 -115v-340c0 -16.667 -8.33301 -25 -25 -25h-90
c-16.667 0 -25 8.33301 -25 25v25h-10c-2 -11.333 -6.66699 -21.333 -14 -30c-6 -7.33301 -14.667 -14.166 -26 -20.499s-26.333 -9.5 -45 -9.5h-80c-96.667 0 -145 48.333 -145 145v30c0 96.667 48.333 145 145 145h175v35c0 15.333 -4.5 27.5 -13.5 36.5
s-21.167 13.5 -36.5 13.5h-70zM180 144.999c0 -26.667 13.333 -40 40 -40h85c36.667 0 55 18.333 55 55v40h-140c-26.667 0 -40 -13.333 -40 -40v-15zM235 714.999c0 -10 3.33301 -18.333 10 -25s15 -10 25 -10h25c10 0 18.333 3.33301 25 10s10 15 10 25v10
c0 16.667 8.33301 25 25 25h70c16.667 0 25 -8.33301 25 -25v-10c0 -86.667 -43.333 -130 -130 -130h-75c-86.667 0 -130 43.333 -130 130v10c0 16.667 8.33301 25 25 25h70c16.667 0 25 -8.33301 25 -25v-10z" />
    <glyph glyph-name="Aogonek" unicode="&#x104;" horiz-adv-x="736" 
d="M583 0c-10 0 -17.499 2.33301 -22.499 7s-9.16699 10.667 -12.5 18l-45 120h-270l-45 -120c-3.33301 -7.33301 -7.5 -13.333 -12.5 -18s-12.5 -7 -22.5 -7h-125c-16.667 -0 -21.667 8.33301 -15 25l245 650c6.66699 16.667 20 25 40 25h145c10 0 17.5 -2.33301 22.5 -7
s9.16699 -10.667 12.5 -18l245 -650c6.66699 -16.667 1.66699 -25 -15 -25c-18 -12.667 -34 -25.334 -48 -38.001c-12 -11.333 -22.833 -24 -32.5 -38s-14.5 -28.667 -14.5 -44c0 -20 10 -30 30 -30h49c8 0 13.5 -1.5 16.5 -4.5s4.5 -8.16699 4.5 -15.5v-50
c0 -13.333 -6.66699 -20 -20 -20h-70c-32.667 0 -58.334 9.33301 -77.001 28s-28 44.334 -28 77.001c0 21.333 5.66699 40.333 17 57s24 30.667 38 42c16 13.333 34.333 25.333 55 36h-45zM453.001 285l-80 215h-10l-80 -215h170z" />
    <glyph glyph-name="aogonek" unicode="&#x105;" horiz-adv-x="560" 
d="M385 0c-16.667 0 -24.999 8.33203 -24.999 24.999v25h-10c-2 -11.333 -6.66699 -21.333 -14 -30c-6 -7.33301 -14.667 -14.166 -26 -20.499s-26.333 -9.5 -45 -9.5h-80c-96.667 0 -145 48.333 -145 145v30c0 96.667 48.333 145 145 145h175v35
c0 15.333 -4.5 27.5 -13.5 36.5s-21.167 13.5 -36.5 13.5h-70c-20 0 -30 -10 -30 -30c0 -16.667 -8.33301 -25 -25 -25h-90c-16.667 0 -25 8.33301 -25 25c0 50 13.333 88.333 40 115s65 40 115 40h120c50 0 88.333 -13.333 115 -40s40 -65 40 -115v-340
c0 -16.667 -8.33301 -25 -25 -25c-18 -12.667 -34 -25.334 -48 -38.001c-12 -11.333 -22.833 -24 -32.5 -38s-14.5 -28.667 -14.5 -44c0 -20 10 -30 30 -30h49c8 0 13.5 -1.5 16.5 -4.5s4.5 -8.16699 4.5 -15.5v-50c0 -13.333 -6.66699 -20 -20 -20h-70
c-32.667 0 -58.334 9.33301 -77.001 28s-28 44.334 -28 77.001c0 21.333 5.66699 40.333 17 57s24 30.667 38 42c16 13.333 34.333 25.333 55 36h-10zM180.001 144.999c0 -26.667 13.334 -40 40.001 -40h80c17.333 0 31.666 4.83301 42.999 14.5s17 23.167 17 40.5v40h-140
c-26.667 0 -40 -13.333 -40 -40v-15z" />
    <glyph glyph-name="Cacute" unicode="&#x106;" horiz-adv-x="770" 
d="M710 485c0 -16.667 -8.33301 -25 -25 -25h-110c-16.667 0 -25 8.33301 -25 25v30c0 36.667 -18.333 55 -55 55h-210c-36.667 0 -55 -18.333 -55 -55v-330c0 -36.667 18.333 -55 55 -55h210c36.667 0 55 18.333 55 55v30c0 16.667 8.33301 25 25 25h110
c16.667 0 25 -8.33301 25 -25v-50c0 -116.667 -58.333 -175 -175 -175h-290c-116.667 0 -175 58.333 -175 175v370c0 116.667 58.333 175 175 175h290c116.667 0 175 -58.333 175 -175v-50zM455 795c-5.33301 -7.33301 -10.668 -13.333 -16.001 -18s-11.666 -7 -18.999 -7
h-60c-16.667 0 -21.667 8.33301 -15 25l50 130c3.33301 7.33301 7.5 13.333 12.5 18s12.5 7 22.5 7h95c7.33301 0 13 -2.33301 17 -7s3.33301 -10.667 -2 -18z" />
    <glyph glyph-name="cacute" unicode="&#x107;" horiz-adv-x="585" 
d="M535 325c0 -16.667 -8.33301 -25 -25 -25h-90c-16.667 0 -25 8.33301 -25 25v20c0 15.333 -4.5 27.5 -13.5 36.5s-21.167 13.5 -36.5 13.5h-95c-15.333 0 -27.5 -4.5 -36.5 -13.5s-13.5 -21.167 -13.5 -36.5v-180c0 -15.333 4.5 -27.5 13.5 -36.5
s21.167 -13.5 36.5 -13.5h95c15.333 0 27.5 4.5 36.5 13.5s13.5 21.167 13.5 36.5v20c0 16.667 8.33301 25 25 25h90c16.667 0 25 -8.33301 25 -25v-40c0 -50 -13.333 -88.333 -40 -115s-65 -40 -115 -40h-165c-50 0 -88.333 13.333 -115 40s-40 65 -40 115v220
c0 50 13.333 88.333 40 115s65 40 115 40h165c50 0 88.333 -13.333 115 -40s40 -65 40 -115v-40zM363 605c-5.33301 -7.33301 -10.668 -13.333 -16.001 -18s-11.666 -7 -18.999 -7h-60c-16.667 0 -21.667 8.33301 -15 25l50 130c3.33301 7.33301 7.5 13.333 12.5 18
s12.5 7 22.5 7h95c7.33301 0 13 -2.33301 17 -7s3.33301 -10.667 -2 -18z" />
    <glyph glyph-name="Ccircumflex" unicode="&#x108;" horiz-adv-x="770" 
d="M710 485c0 -16.667 -8.33301 -25 -25 -25h-110c-16.667 0 -25 8.33301 -25 25v30c0 36.667 -18.333 55 -55 55h-210c-36.667 0 -55 -18.333 -55 -55v-330c0 -36.667 18.333 -55 55 -55h210c36.667 0 55 18.333 55 55v30c0 16.667 8.33301 25 25 25h110
c16.667 0 25 -8.33301 25 -25v-50c0 -116.667 -58.333 -175 -175 -175h-290c-116.667 0 -175 58.333 -175 175v370c0 116.667 58.333 175 175 175h290c116.667 0 175 -58.333 175 -175v-50zM422 950c10 0 17.8311 -2.33301 23.498 -7s11.167 -10.667 16.5 -18l100 -130
c6 -7.33301 6.83301 -13.333 2.5 -18s-10.166 -7 -17.499 -7h-70c-12.667 0 -22 2.33301 -28 7s-11.667 10.667 -17 18l-45 65h-5l-45 -65c-5.33301 -7.33301 -11 -13.333 -17 -18s-15.333 -7 -28 -7h-70c-7.33301 0 -13.166 2.33301 -17.499 7s-3.5 10.667 2.5 18l100 130
c5.33301 7.33301 10.833 13.333 16.5 18s13.5 7 23.5 7h75z" />
    <glyph glyph-name="ccircumflex" unicode="&#x109;" horiz-adv-x="585" 
d="M535 325c0 -16.667 -8.33301 -25 -25 -25h-90c-16.667 0 -25 8.33301 -25 25v20c0 15.333 -4.5 27.5 -13.5 36.5s-21.167 13.5 -36.5 13.5h-95c-15.333 0 -27.5 -4.5 -36.5 -13.5s-13.5 -21.167 -13.5 -36.5v-180c0 -15.333 4.5 -27.5 13.5 -36.5
s21.167 -13.5 36.5 -13.5h95c15.333 0 27.5 4.5 36.5 13.5s13.5 21.167 13.5 36.5v20c0 16.667 8.33301 25 25 25h90c16.667 0 25 -8.33301 25 -25v-40c0 -50 -13.333 -88.333 -40 -115s-65 -40 -115 -40h-165c-50 0 -88.333 13.333 -115 40s-40 65 -40 115v220
c0 50 13.333 88.333 40 115s65 40 115 40h165c50 0 88.333 -13.333 115 -40s40 -65 40 -115v-40zM330 760c10 0 17.8311 -2.33301 23.498 -7s11.167 -10.667 16.5 -18l100 -130c6 -7.33301 6.83301 -13.333 2.5 -18s-10.166 -7 -17.499 -7h-70c-12.667 0 -22 2.33301 -28 7
s-11.667 10.667 -17 18l-45 65h-5l-45 -65c-5.33301 -7.33301 -11 -13.333 -17 -18s-15.333 -7 -28 -7h-70c-7.33301 0 -13.166 2.33301 -17.499 7s-3.5 10.667 2.5 18l100 130c5.33301 7.33301 10.833 13.333 16.5 18s13.5 7 23.5 7h75z" />
    <glyph glyph-name="Ccaron" unicode="&#x10c;" horiz-adv-x="770" 
d="M710 485c0 -16.667 -8.33301 -25 -25 -25h-110c-16.667 0 -25 8.33301 -25 25v30c0 36.667 -18.333 55 -55 55h-210c-36.667 0 -55 -18.333 -55 -55v-330c0 -36.667 18.333 -55 55 -55h210c36.667 0 55 18.333 55 55v30c0 16.667 8.33301 25 25 25h110
c16.667 0 25 -8.33301 25 -25v-50c0 -116.667 -58.333 -175 -175 -175h-290c-116.667 0 -175 58.333 -175 175v370c0 116.667 58.333 175 175 175h290c116.667 0 175 -58.333 175 -175v-50zM347 770c-10 0 -17.8311 2.33301 -23.498 7s-11.167 10.667 -16.5 18l-100 130
c-6 7.33301 -6.83301 13.333 -2.5 18s10.166 7 17.499 7h70c12.667 0 22 -2.33301 28 -7s11.667 -10.667 17 -18l45 -65h5l45 65c5.33301 7.33301 11 13.333 17 18s15.333 7 28 7h70c7.33301 0 13.166 -2.33301 17.499 -7s3.5 -10.667 -2.5 -18l-100 -130
c-5.33301 -7.33301 -10.833 -13.333 -16.5 -18s-13.5 -7 -23.5 -7h-75z" />
    <glyph glyph-name="ccaron" unicode="&#x10d;" horiz-adv-x="585" 
d="M535 325c0 -16.667 -8.33301 -25 -25 -25h-90c-16.667 0 -25 8.33301 -25 25v20c0 15.333 -4.5 27.5 -13.5 36.5s-21.167 13.5 -36.5 13.5h-95c-15.333 0 -27.5 -4.5 -36.5 -13.5s-13.5 -21.167 -13.5 -36.5v-180c0 -15.333 4.5 -27.5 13.5 -36.5
s21.167 -13.5 36.5 -13.5h95c15.333 0 27.5 4.5 36.5 13.5s13.5 21.167 13.5 36.5v20c0 16.667 8.33301 25 25 25h90c16.667 0 25 -8.33301 25 -25v-40c0 -50 -13.333 -88.333 -40 -115s-65 -40 -115 -40h-165c-50 0 -88.333 13.333 -115 40s-40 65 -40 115v220
c0 50 13.333 88.333 40 115s65 40 115 40h165c50 0 88.333 -13.333 115 -40s40 -65 40 -115v-40zM265 580c-10 0 -17.8311 2.33301 -23.498 7s-11.167 10.667 -16.5 18l-100 130c-6 7.33301 -6.83301 13.333 -2.5 18s10.166 7 17.499 7h70c12.667 0 22 -2.33301 28 -7
s11.667 -10.667 17 -18l45 -65h5l45 65c5.33301 7.33301 11 13.333 17 18s15.333 7 28 7h70c7.33301 0 13.166 -2.33301 17.499 -7s3.5 -10.667 -2.5 -18l-100 -130c-5.33301 -7.33301 -10.833 -13.333 -16.5 -18s-13.5 -7 -23.5 -7h-75z" />
    <glyph glyph-name="Dcaron" unicode="&#x10e;" horiz-adv-x="790" 
d="M545 700c116.667 0 175 -58.333 175 -175v-350c0 -116.667 -58.333 -175 -175 -175h-440c-16.667 -0 -25 8.33301 -25 25v650c0 16.667 8.33301 25 25 25h440zM240 140h265c36.667 0 55 18.333 55 55v310c0 36.667 -18.333 55 -55 55h-265v-420zM347 770
c-10 0 -17.8311 2.33301 -23.498 7s-11.167 10.667 -16.5 18l-100 130c-6 7.33301 -6.83301 13.333 -2.5 18s10.166 7 17.499 7h70c12.667 0 22 -2.33301 28 -7s11.667 -10.667 17 -18l45 -65h5l45 65c5.33301 7.33301 11 13.333 17 18s15.333 7 28 7h70
c7.33301 0 13.166 -2.33301 17.499 -7s3.5 -10.667 -2.5 -18l-100 -130c-5.33301 -7.33301 -10.833 -13.333 -16.5 -18s-13.5 -7 -23.5 -7h-75z" />
    <glyph glyph-name="dcaron" unicode="&#x10f;" horiz-adv-x="725" 
d="M215 -10c-50 0 -88.333 13.332 -115 39.999s-40 65 -40 115v210c0 50 13.333 88.333 40 115s65 40 115 40h180v165c0 16.667 8.33301 25 25 25h90c16.667 0 25 -8.33301 25 -25v-650c0 -16.667 -8.33301 -25 -25 -25h-90c-16.667 0 -25 8.33301 -25 25v25h-10
c-2 -11.333 -6.66699 -21.333 -14 -30c-6 -7.33301 -14.667 -14.166 -26 -20.499s-26.333 -9.5 -45 -9.5h-85zM250 384.999c-15.333 0 -27.499 -4.49902 -36.499 -13.499s-13.5 -21.167 -13.5 -36.5v-170c0 -15.333 4.5 -27.5 13.5 -36.5s21.167 -13.5 36.5 -13.5h85
c17.333 0 31.666 5.66699 42.999 17s17 25.666 17 42.999v210h-145zM745.001 600c0 -7.33301 -0.833008 -14.333 -2.5 -21s-3.5 -12.667 -5.5 -18l-7 -16l-35 -70c-2.66699 -5.33301 -6.5 -10 -11.5 -14s-11.167 -6 -18.5 -6h-30c-7.33301 0 -12.333 2 -15 6
s-2.66699 8.66699 0 14l45 90h-35c-16.667 0 -25 8.33301 -25 25v85c0 16.667 8.33301 25 25 25h90c16.667 0 25 -8.33301 25 -25v-75z" />
    <glyph glyph-name="Dcroat" unicode="&#x110;" horiz-adv-x="820" 
d="M575 700c116.667 0 175 -58.333 175 -175v-350c0 -116.667 -58.333 -175 -175 -175h-440c-16.667 -0 -25 8.33301 -25 25v255h-45c-16.667 0 -25 8.33301 -25 25v80c0 16.667 8.33301 25 25 25h45v265c0 16.667 8.33301 25 25 25h440zM270 280v-140h265
c36.667 0 55 18.333 55 55v310c0 36.667 -18.333 55 -55 55h-265v-150h120c16.667 0 25 -8.33301 25 -25v-80c0 -16.667 -8.33301 -25 -25 -25h-120z" />
    <glyph glyph-name="dcroat" unicode="&#x111;" 
d="M385 620v54.999c0 16.667 8.33301 25 25 25h90c16.667 0 25 -8.33301 25 -25v-55h45c16.667 0 25 -8.33301 25 -25v-75c0 -16.667 -8.33301 -25 -25 -25h-45v-470c0 -16.667 -8.33301 -25 -25 -25h-90c-16.667 0 -25 8.33301 -25 25v25h-10
c-2 -11.333 -6.66699 -21.333 -14 -30c-6 -7.33301 -14.667 -14.166 -26 -20.499s-26.333 -9.5 -45 -9.5h-85c-50 0 -88.333 13.333 -115 40s-40 65 -40 115v135c0 50 13.333 88.333 40 115s65 40 115 40h180v60h-90c-16.667 0 -25 8.33301 -25 25v75
c0 16.667 8.33301 25 25 25h90zM240 309.999c-15.333 0 -27.499 -4.49902 -36.499 -13.499s-13.5 -21.167 -13.5 -36.5v-95c0 -15.333 4.5 -27.5 13.5 -36.5s21.167 -13.5 36.5 -13.5h85c17.333 0 31.666 5.66699 42.999 17s17 25.666 17 42.999v135h-145z" />
    <glyph glyph-name="Emacron" unicode="&#x112;" horiz-adv-x="690" 
d="M240 140h395c16.667 0 25 -8.33301 25 -25v-90c0 -16.667 -8.33301 -25 -25 -25h-530c-16.667 -0 -25 8.33301 -25 25v650c0 16.667 8.33301 25 25 25h520c16.667 0 25 -8.33301 25 -25v-90c0 -16.667 -8.33301 -25 -25 -25h-385v-135h295c16.667 0 25 -8.33301 25 -25
v-90c0 -16.667 -8.33301 -25 -25 -25h-295v-145zM245 800c-16.667 0 -25 8.33301 -25 25v55c0 16.667 8.33301 25 25 25h255c16.667 0 25 -8.33301 25 -25v-55c0 -16.667 -8.33301 -25 -25 -25h-255z" />
    <glyph glyph-name="emacron" unicode="&#x113;" 
d="M360 115c20 0 30 10 30 30c0 16.667 8.33301 25 25 25h90c16.667 0 25 -8.33301 25 -25c0 -50 -13.333 -88.333 -40 -115s-65 -40 -115 -40h-160c-50 0 -88.333 13.333 -115 40s-40 65 -40 115v220c0 50 13.333 88.333 40 115s65 40 115 40h165
c50 0 88.333 -13.333 115 -40s40 -65 40 -115v-130c0 -16.667 -8.33301 -25 -25 -25h-310v-45c0 -15.333 4.5 -27.5 13.5 -36.5s21.167 -13.5 36.5 -13.5h110zM200 320h195v30c0 15.333 -4.5 27.5 -13.5 36.5s-21.167 13.5 -36.5 13.5h-95c-15.333 0 -27.5 -4.5 -36.5 -13.5
s-13.5 -21.167 -13.5 -36.5v-30zM170 610c-16.667 0 -25 8.33301 -25 25v55c0 16.667 8.33301 25 25 25h255c16.667 0 25 -8.33301 25 -25v-55c0 -16.667 -8.33301 -25 -25 -25h-255z" />
    <glyph glyph-name="Edotaccent" unicode="&#x116;" horiz-adv-x="690" 
d="M240 140h395c16.667 0 25 -8.33301 25 -25v-90c0 -16.667 -8.33301 -25 -25 -25h-530c-16.667 -0 -25 8.33301 -25 25v650c0 16.667 8.33301 25 25 25h520c16.667 0 25 -8.33301 25 -25v-90c0 -16.667 -8.33301 -25 -25 -25h-385v-135h295c16.667 0 25 -8.33301 25 -25
v-90c0 -16.667 -8.33301 -25 -25 -25h-295v-145zM410 930c16.667 0 25 -8.33301 25 -25v-80c0 -16.667 -8.33301 -25 -25 -25h-90c-16.667 0 -25 8.33301 -25 25v80c0 16.667 8.33301 25 25 25h90z" />
    <glyph glyph-name="edotaccent" unicode="&#x117;" 
d="M360 115c20 0 30 10 30 30c0 16.667 8.33301 25 25 25h90c16.667 0 25 -8.33301 25 -25c0 -50 -13.333 -88.333 -40 -115s-65 -40 -115 -40h-160c-50 0 -88.333 13.333 -115 40s-40 65 -40 115v220c0 50 13.333 88.333 40 115s65 40 115 40h165
c50 0 88.333 -13.333 115 -40s40 -65 40 -115v-130c0 -16.667 -8.33301 -25 -25 -25h-310v-45c0 -15.333 4.5 -27.5 13.5 -36.5s21.167 -13.5 36.5 -13.5h110zM200 320h195v30c0 15.333 -4.5 27.5 -13.5 36.5s-21.167 13.5 -36.5 13.5h-95c-15.333 0 -27.5 -4.5 -36.5 -13.5
s-13.5 -21.167 -13.5 -36.5v-30zM345 730c16.667 0 25 -8.33301 25 -25v-80c0 -16.667 -8.33301 -25 -25 -25h-90c-16.667 0 -25 8.33301 -25 25v80c0 16.667 8.33301 25 25 25h90z" />
    <glyph glyph-name="Eogonek" unicode="&#x118;" horiz-adv-x="690" 
d="M105 0c-16.667 0 -24.999 8.33301 -24.999 25v650c0 16.667 8.33301 25 25 25h520c16.667 0 25 -8.33301 25 -25v-90c0 -16.667 -8.33301 -25 -25 -25h-385v-135h295c16.667 0 25 -8.33301 25 -25v-90c0 -16.667 -8.33301 -25 -25 -25h-295v-145h395
c16.667 0 25 -8.33301 25 -25v-90c0 -16.667 -8.33301 -25 -25 -25h-190c-18 -12.667 -34 -25.334 -48 -38.001c-12 -11.333 -22.833 -24 -32.5 -38s-14.5 -28.667 -14.5 -44c0 -20 10 -30 30 -30h49c8 0 13.5 -1.5 16.5 -4.5s4.5 -8.16699 4.5 -15.5v-50
c0 -13.333 -6.66699 -20 -20 -20h-70c-32.667 0 -58.334 9.33301 -77.001 28s-28 44.334 -28 77.001c0 21.333 5.66699 40.333 17 57s24 30.667 38 42c16 13.333 34.333 25.333 55 36h-260z" />
    <glyph glyph-name="eogonek" unicode="&#x119;" 
d="M360 115c20 0 30.002 10 30.002 30c0 16.667 8.33301 25 25 25h90c16.667 0 25 -8.33301 25 -25c0 -50 -13.333 -88.333 -40 -115s-65 -40 -115 -40h-15c-14.667 -12 -28 -24 -40 -36c-10 -10.667 -19.167 -22.5 -27.5 -35.5s-12.5 -25.833 -12.5 -38.5
c0 -20 10 -30 30 -30h49c8 0 13.5 -1.5 16.5 -4.5s4.5 -8.16699 4.5 -15.5v-50c0 -13.333 -6.66699 -20 -20 -20h-70c-32.667 0 -58.334 9.33301 -77.001 28s-28 44.334 -28 77.001c0 18.667 4.66699 35.667 14 51s19.666 28.666 30.999 39.999
c12.667 12.667 27.667 24 45 34h-60c-50 0 -88.333 13.333 -115 40s-40 65 -40 115v220c0 50 13.333 88.333 40 115s65 40 115 40h165c50 0 88.333 -13.333 115 -40s40 -65 40 -115v-130c0 -16.667 -8.33301 -25 -25 -25h-310v-45c0 -15.333 4.5 -27.5 13.5 -36.5
s21.167 -13.5 36.5 -13.5h110zM200.002 320h195v30c0 15.333 -4.5 27.5 -13.5 36.5s-21.167 13.5 -36.5 13.5h-95c-15.333 0 -27.5 -4.5 -36.5 -13.5s-13.5 -21.167 -13.5 -36.5v-30z" />
    <glyph glyph-name="Ecaron" unicode="&#x11a;" horiz-adv-x="690" 
d="M240 140h395c16.667 0 25 -8.33301 25 -25v-90c0 -16.667 -8.33301 -25 -25 -25h-530c-16.667 -0 -25 8.33301 -25 25v650c0 16.667 8.33301 25 25 25h520c16.667 0 25 -8.33301 25 -25v-90c0 -16.667 -8.33301 -25 -25 -25h-385v-135h295c16.667 0 25 -8.33301 25 -25
v-90c0 -16.667 -8.33301 -25 -25 -25h-295v-145zM327 770c-10 0 -17.8311 2.33301 -23.498 7s-11.167 10.667 -16.5 18l-100 130c-6 7.33301 -6.83301 13.333 -2.5 18s10.166 7 17.499 7h70c12.667 0 22 -2.33301 28 -7s11.667 -10.667 17 -18l45 -65h5l45 65
c5.33301 7.33301 11 13.333 17 18s15.333 7 28 7h70c7.33301 0 13.166 -2.33301 17.499 -7s3.5 -10.667 -2.5 -18l-100 -130c-5.33301 -7.33301 -10.833 -13.333 -16.5 -18s-13.5 -7 -23.5 -7h-75z" />
    <glyph glyph-name="ecaron" unicode="&#x11b;" 
d="M360 115c20 0 30 10 30 30c0 16.667 8.33301 25 25 25h90c16.667 0 25 -8.33301 25 -25c0 -50 -13.333 -88.333 -40 -115s-65 -40 -115 -40h-160c-50 0 -88.333 13.333 -115 40s-40 65 -40 115v220c0 50 13.333 88.333 40 115s65 40 115 40h165
c50 0 88.333 -13.333 115 -40s40 -65 40 -115v-130c0 -16.667 -8.33301 -25 -25 -25h-310v-45c0 -15.333 4.5 -27.5 13.5 -36.5s21.167 -13.5 36.5 -13.5h110zM200 320h195v30c0 15.333 -4.5 27.5 -13.5 36.5s-21.167 13.5 -36.5 13.5h-95c-15.333 0 -27.5 -4.5 -36.5 -13.5
s-13.5 -21.167 -13.5 -36.5v-30zM260 580c-10 0 -17.8311 2.33301 -23.498 7s-11.167 10.667 -16.5 18l-100 130c-6 7.33301 -6.83301 13.333 -2.5 18s10.166 7 17.499 7h70c12.667 0 22 -2.33301 28 -7s11.667 -10.667 17 -18l45 -65h5l45 65
c5.33301 7.33301 11 13.333 17 18s15.333 7 28 7h70c7.33301 0 13.166 -2.33301 17.499 -7s3.5 -10.667 -2.5 -18l-100 -130c-5.33301 -7.33301 -10.833 -13.333 -16.5 -18s-13.5 -7 -23.5 -7h-75z" />
    <glyph glyph-name="Gbreve" unicode="&#x11e;" horiz-adv-x="780" 
d="M710 165c0 -116.667 -58.333 -175 -175 -175h-290c-116.667 0 -175 58.333 -175 175v370c0 116.667 58.333 175 175 175h290c116.667 0 175 -58.333 175 -175v-50c0 -16.667 -8.33301 -25 -25 -25h-110c-16.667 0 -25 8.33301 -25 25v30c0 36.667 -18.333 55 -55 55h-210
c-36.667 0 -55 -18.333 -55 -55v-330c0 -36.667 18.333 -55 55 -55h210c36.667 0 55 18.333 55 55v65h-130c-16.667 0 -25 8.33301 -25 25v90c0 16.667 8.33301 25 25 25h265c16.667 0 25 -8.33301 25 -25v-200zM340 915c0 -10 3.33301 -18.333 10 -25s15 -10 25 -10h25
c10 0 18.333 3.33301 25 10s10 15 10 25v10c0 16.667 8.33301 25 25 25h70c16.667 0 25 -8.33301 25 -25v-10c0 -86.667 -43.333 -130 -130 -130h-75c-86.667 0 -130 43.333 -130 130v10c0 16.667 8.33301 25 25 25h70c16.667 0 25 -8.33301 25 -25v-10z" />
    <glyph glyph-name="gbreve" unicode="&#x11f;" 
d="M300 520c18.667 0 33.667 -3.16797 45 -9.50098s20 -13.166 26 -20.499c7.33301 -8.66699 12 -18.667 14 -30h10v25c0 16.667 8.33301 25 25 25h90c16.667 0 25 -8.33301 25 -25v-530c0 -50 -13.333 -88.333 -40 -115s-65 -40 -115 -40h-155
c-50 0 -88.333 13.333 -115 40s-40 65 -40 115v20c0 16.667 8.33301 25 25 25h90c16.667 0 25 -8.33301 25 -25c0 -15.333 4.5 -27.5 13.5 -36.5s21.167 -13.5 36.5 -13.5h85c15.333 0 27.5 4.5 36.5 13.5s13.5 21.167 13.5 36.5v65h-180c-50 0 -88.333 13.333 -115 40
s-40 65 -40 115v170c0 50 13.333 88.333 40 115s65 40 115 40h85zM395 164.999l-0.000976562 170.001c0 17.333 -5.66699 31.666 -17 42.999s-25.666 17 -42.999 17h-85c-15.333 0 -27.5 -4.5 -36.5 -13.5s-13.5 -21.167 -13.5 -36.5v-130c0 -15.333 4.5 -27.5 13.5 -36.5
s21.167 -13.5 36.5 -13.5h145zM249.999 730c0 -10 3.33301 -18.333 10 -25s15 -10 25 -10h25c10 0 18.333 3.33301 25 10s10 15 10 25v10c0 16.667 8.33301 25 25 25h70c16.667 0 25 -8.33301 25 -25v-10c0 -86.667 -43.333 -130 -130 -130h-75
c-86.667 0 -130 43.333 -130 130v10c0 16.667 8.33301 25 25 25h70c16.667 0 25 -8.33301 25 -25v-10z" />
    <glyph glyph-name="Gcommaaccent" unicode="&#x122;" horiz-adv-x="780" 
d="M710 165c0 -116.667 -58.333 -175 -175 -175h-290c-116.667 0 -175 58.333 -175 175v370c0 116.667 58.333 175 175 175h290c116.667 0 175 -58.333 175 -175v-50c0 -16.667 -8.33301 -25 -25 -25h-110c-16.667 0 -25 8.33301 -25 25v30c0 36.667 -18.333 55 -55 55h-210
c-36.667 0 -55 -18.333 -55 -55v-330c0 -36.667 18.333 -55 55 -55h210c36.667 0 55 18.333 55 55v65h-130c-16.667 0 -25 8.33301 -25 25v90c0 16.667 8.33301 25 25 25h265c16.667 0 25 -8.33301 25 -25v-200zM457 -185c0 -7.33301 -0.833008 -14.333 -2.5 -21
s-3.5 -12.667 -5.5 -18l-7 -16l-30 -65c-2.66699 -5.33301 -6.5 -10 -11.5 -14s-11.167 -6 -18.5 -6h-30c-7.33301 0 -12.333 2 -15 6s-2.66699 8.66699 0 14l40 85h-30c-16.667 0 -25 8.33301 -25 25v80c0 16.667 8.33301 25 25 25h85c16.667 0 25 -8.33301 25 -25v-70z
" />
    <glyph glyph-name="gcommaaccent" unicode="&#x123;" 
d="M230 700c0 7.33301 0.666016 14.333 1.99902 21s3 12.667 5 18c2.66699 6 5.33398 11.333 8.00098 16l35 70c2.66699 5.33301 6.5 10 11.5 14s11.167 6 18.5 6h30c7.33301 0 12.333 -2 15 -6s2.66699 -8.66699 0 -14l-45 -90h35c16.667 0 25 -8.33301 25 -25v-85
c0 -16.667 -8.33301 -25 -25 -25h-90c-16.667 0 -25 8.33301 -25 25v75zM299.999 520c18.667 0 33.667 -3.16797 45 -9.50098s20 -13.166 26 -20.499c7.33301 -8.66699 12 -18.667 14 -30h10v25c0 16.667 8.33301 25 25 25h90c16.667 0 25 -8.33301 25 -25v-530
c0 -50 -13.333 -88.333 -40 -115s-65 -40 -115 -40h-155c-50 0 -88.333 13.333 -115 40s-40 65 -40 115v20c0 16.667 8.33301 25 25 25h90c16.667 0 25 -8.33301 25 -25c0 -15.333 4.5 -27.5 13.5 -36.5s21.167 -13.5 36.5 -13.5h85c15.333 0 27.5 4.5 36.5 13.5
s13.5 21.167 13.5 36.5v65h-180c-50 0 -88.333 13.333 -115 40s-40 65 -40 115v170c0 50 13.333 88.333 40 115s65 40 115 40h85zM394.999 164.999l-0.000976562 170.001c0 17.333 -5.66699 31.666 -17 42.999s-25.666 17 -42.999 17h-85c-15.333 0 -27.5 -4.5 -36.5 -13.5
s-13.5 -21.167 -13.5 -36.5v-130c0 -15.333 4.5 -27.5 13.5 -36.5s21.167 -13.5 36.5 -13.5h145z" />
    <glyph glyph-name="Imacron" unicode="&#x12a;" horiz-adv-x="325" 
d="M240 25c0 -16.667 -8.33301 -25 -25 -25h-110c-16.667 -0 -25 8.33301 -25 25v650c0 16.667 8.33301 25 25 25h110c16.667 0 25 -8.33301 25 -25v-650zM36 810c-16.667 0 -25 8.33301 -25 25v55c0 16.667 8.33301 25 25 25h255c16.667 0 25 -8.33301 25 -25v-55
c0 -16.667 -8.33301 -25 -25 -25h-255z" />
    <glyph glyph-name="imacron" unicode="&#x12b;" horiz-adv-x="265" 
d="M177 510c16.667 0 25 -8.33301 25 -25v-460c0 -16.667 -8.33301 -25 -25 -25h-90c-16.667 -0 -25 8.33301 -25 25v460c0 16.667 8.33301 25 25 25h90zM6 610c-16.667 0 -25 8.33301 -25 25v55c0 16.667 8.33301 25 25 25h255c16.667 0 25 -8.33301 25 -25v-55
c0 -16.667 -8.33301 -25 -25 -25h-255z" />
    <glyph glyph-name="Iogonek" unicode="&#x12e;" horiz-adv-x="325" 
d="M110 0c-16.667 0 -24.999 8.33301 -24.999 25v650c0 16.667 8.33301 25 25 25h110c16.667 0 25 -8.33301 25 -25v-650c0 -16.667 -8.33301 -25 -25 -25c-18 -12.667 -34 -25.334 -48 -38.001c-12 -11.333 -22.833 -24 -32.5 -38s-14.5 -28.667 -14.5 -44
c0 -20 10 -30 30 -30h49c8 0 13.5 -1.5 16.5 -4.5s4.5 -8.16699 4.5 -15.5v-50c0 -13.333 -6.66699 -20 -20 -20h-70c-32.667 0 -58.334 9.33301 -77.001 28s-28 44.334 -28 77.001c0 21.333 5.66699 40.333 17 57s24 30.667 38 42c16 13.333 34.333 25.333 55 36h-30z" />
    <glyph glyph-name="iogonek" unicode="&#x12f;" horiz-adv-x="255" 
d="M80 0c-16.667 0 -24.999 8.33301 -24.999 25v450c0 16.667 8.33301 25 25 25h90c16.667 0 25 -8.33301 25 -25v-450c0 -16.667 -8.33301 -25 -25 -25c-18 -12.667 -34 -25.334 -48 -38.001c-12 -11.333 -22.833 -24 -32.5 -38s-14.5 -28.667 -14.5 -44
c0 -20 10 -30 30 -30h49c8 0 13.5 -1.5 16.5 -4.5s4.5 -8.16699 4.5 -15.5v-50c0 -13.333 -6.66699 -20 -20 -20h-70c-32.667 0 -58.334 9.33301 -77.001 28s-28 44.334 -28 77.001c0 21.333 5.66699 40.333 17 57s24 30.667 38 42c16 13.333 34.333 25.333 55 36h-10z
M170.001 710c16.667 0 25 -8.33301 25 -25v-80c0 -16.667 -8.33301 -25 -25 -25h-90c-16.667 0 -25 8.33301 -25 25v80c0 16.667 8.33301 25 25 25h90z" />
    <glyph glyph-name="Idotaccent" unicode="&#x130;" horiz-adv-x="320" 
d="M240 25c0 -16.667 -8.33301 -25 -25 -25h-110c-16.667 -0 -25 8.33301 -25 25v650c0 16.667 8.33301 25 25 25h110c16.667 0 25 -8.33301 25 -25v-650zM205 920c16.667 0 25 -8.33301 25 -25v-80c0 -16.667 -8.33301 -25 -25 -25h-90c-16.667 0 -25 8.33301 -25 25v80
c0 16.667 8.33301 25 25 25h90z" />
    <glyph glyph-name="dotlessi" unicode="&#x131;" horiz-adv-x="260" 
d="M175 510c16.667 0 25 -8.33301 25 -25v-460c0 -16.667 -8.33301 -25 -25 -25h-90c-16.667 -0 -25 8.33301 -25 25v460c0 16.667 8.33301 25 25 25h90z" />
    <glyph glyph-name="Kcommaaccent" unicode="&#x136;" horiz-adv-x="719" 
d="M240 435h135l130 240c4 7.33301 9.16699 13.333 15.5 18s14.5 7 24.5 7h125c7.33301 0 12.666 -2.33301 15.999 -7s3 -10.667 -1 -18l-170 -305l190 -345c4 -7.33301 4.33301 -13.333 1 -18s-8.66602 -7 -15.999 -7h-125c-10 -0 -18.167 2.33301 -24.5 7
s-11.5 10.667 -15.5 18l-145 270h-140v-270c0 -16.667 -8.33301 -25 -25 -25h-110c-16.667 -0 -25 8.33301 -25 25v650c0 16.667 8.33301 25 25 25h110c16.667 0 25 -8.33301 25 -25v-240zM450 -185c0 -7.33301 -0.833008 -14.333 -2.5 -21s-3.5 -12.667 -5.5 -18l-7 -16
l-30 -65c-2.66699 -5.33301 -6.5 -10 -11.5 -14s-11.167 -6 -18.5 -6h-30c-7.33301 0 -12.333 2 -15 6s-2.66699 8.66699 0 14l40 85h-30c-16.667 0 -25 8.33301 -25 25v80c0 16.667 8.33301 25 25 25h85c16.667 0 25 -8.33301 25 -25v-70z" />
    <glyph glyph-name="kcommaaccent" unicode="&#x137;" horiz-adv-x="554" 
d="M185 700c16.667 0 25 -8.33301 25 -25v-345h80l80 155c4 7.33301 9.16699 13.333 15.5 18s14.5 7 24.5 7h100c7.33301 0 12.666 -2.33301 15.999 -7s3 -10.667 -1 -18l-120 -215l135 -245c4 -7.33301 4.33301 -13.333 1 -18s-8.66602 -7 -15.999 -7h-100
c-10 -0 -18.167 2.33301 -24.5 7s-11.5 10.667 -15.5 18l-95 180h-80v-180c0 -16.667 -8.33301 -25 -25 -25h-90c-16.667 -0 -25 8.33301 -25 25v650c0 16.667 8.33301 25 25 25h90zM374 -175c0 -7.33301 -0.833008 -14.333 -2.5 -21s-3.5 -12.667 -5.5 -18l-7 -16l-30 -65
c-2.66699 -5.33301 -6.5 -10 -11.5 -14s-11.167 -6 -18.5 -6h-30c-7.33301 0 -12.333 2 -15 6s-2.66699 8.66699 0 14l40 85h-30c-16.667 0 -25 8.33301 -25 25v80c0 16.667 8.33301 25 25 25h85c16.667 0 25 -8.33301 25 -25v-70z" />
    <glyph glyph-name="Lacute" unicode="&#x139;" horiz-adv-x="650" 
d="M240 140h375c16.667 0 25 -8.33301 25 -25v-90c0 -16.667 -8.33301 -25 -25 -25h-510c-16.667 -0 -25 8.33301 -25 25v650c0 16.667 8.33301 25 25 25h110c16.667 0 25 -8.33301 25 -25v-535zM225 795c-5.33301 -7.33301 -10.668 -13.333 -16.001 -18
s-11.666 -7 -18.999 -7h-60c-16.667 0 -21.667 8.33301 -15 25l50 130c3.33301 7.33301 7.5 13.333 12.5 18s12.5 7 22.5 7h95c7.33301 0 13 -2.33301 17 -7s3.33301 -10.667 -2 -18z" />
    <glyph glyph-name="lacute" unicode="&#x13a;" horiz-adv-x="280" 
d="M185 700c16.667 0 25 -8.33301 25 -25v-650c0 -16.667 -8.33301 -25 -25 -25h-90c-16.667 -0 -25 8.33301 -25 25v650c0 16.667 8.33301 25 25 25h90zM215 795c-5.33301 -7.33301 -10.668 -13.333 -16.001 -18s-11.666 -7 -18.999 -7h-60
c-16.667 0 -21.667 8.33301 -15 25l50 130c3.33301 7.33301 7.5 13.333 12.5 18s12.5 7 22.5 7h95c7.33301 0 13 -2.33301 17 -7s3.33301 -10.667 -2 -18z" />
    <glyph glyph-name="Lcommaaccent" unicode="&#x13b;" horiz-adv-x="650" 
d="M240 140h375c16.667 0 25 -8.33301 25 -25v-90c0 -16.667 -8.33301 -25 -25 -25h-510c-16.667 -0 -25 8.33301 -25 25v650c0 16.667 8.33301 25 25 25h110c16.667 0 25 -8.33301 25 -25v-535zM435 -185c0 -7.33301 -0.833008 -14.333 -2.5 -21s-3.5 -12.667 -5.5 -18
l-7 -16l-30 -65c-2.66699 -5.33301 -6.5 -10 -11.5 -14s-11.167 -6 -18.5 -6h-30c-7.33301 0 -12.333 2 -15 6s-2.66699 8.66699 0 14l40 85h-30c-16.667 0 -25 8.33301 -25 25v80c0 16.667 8.33301 25 25 25h85c16.667 0 25 -8.33301 25 -25v-70z" />
    <glyph glyph-name="lcommaaccent" unicode="&#x13c;" horiz-adv-x="280" 
d="M185 700c16.667 0 25 -8.33301 25 -25v-650c0 -16.667 -8.33301 -25 -25 -25h-90c-16.667 -0 -25 8.33301 -25 25v650c0 16.667 8.33301 25 25 25h90zM205 -185c0 -7.33301 -0.833008 -14.333 -2.5 -21s-3.5 -12.667 -5.5 -18l-7 -16l-30 -65
c-2.66699 -5.33301 -6.5 -10 -11.5 -14s-11.167 -6 -18.5 -6h-30c-7.33301 0 -12.333 2 -15 6s-2.66699 8.66699 0 14l40 85h-30c-16.667 0 -25 8.33301 -25 25v80c0 16.667 8.33301 25 25 25h85c16.667 0 25 -8.33301 25 -25v-70z" />
    <glyph glyph-name="Lcaron" unicode="&#x13d;" horiz-adv-x="650" 
d="M240 140h375c16.667 0 25 -8.33301 25 -25v-90c0 -16.667 -8.33301 -25 -25 -25h-510c-16.667 -0 -25 8.33301 -25 25v650c0 16.667 8.33301 25 25 25h110c16.667 0 25 -8.33301 25 -25v-535zM450 600c0 -7.33301 -0.833008 -14.333 -2.5 -21s-3.5 -12.667 -5.5 -18
l-7 -16l-35 -70c-2.66699 -5.33301 -6.5 -10 -11.5 -14s-11.167 -6 -18.5 -6h-30c-7.33301 0 -12.333 2 -15 6s-2.66699 8.66699 0 14l45 90h-35c-16.667 0 -25 8.33301 -25 25v85c0 16.667 8.33301 25 25 25h90c16.667 0 25 -8.33301 25 -25v-75z" />
    <glyph glyph-name="lcaron" unicode="&#x13e;" horiz-adv-x="390" 
d="M185 700c16.667 0 25 -8.33301 25 -25v-650c0 -16.667 -8.33301 -25 -25 -25h-90c-16.667 -0 -25 8.33301 -25 25v650c0 16.667 8.33301 25 25 25h90zM410 600c0 -7.33301 -0.833008 -14.333 -2.5 -21s-3.5 -12.667 -5.5 -18l-7 -16l-35 -70
c-2.66699 -5.33301 -6.5 -10 -11.5 -14s-11.167 -6 -18.5 -6h-30c-7.33301 0 -12.333 2 -15 6s-2.66699 8.66699 0 14l45 90h-35c-16.667 0 -25 8.33301 -25 25v85c0 16.667 8.33301 25 25 25h90c16.667 0 25 -8.33301 25 -25v-75z" />
    <glyph glyph-name="Lslash" unicode="&#x141;" horiz-adv-x="675" 
d="M265 320v-179.999h375c16.667 0 25 -8.33301 25 -25v-90c0 -16.667 -8.33301 -25 -25 -25h-510c-16.667 0 -25 8.33301 -25 25v240l-65 -25c-12.667 -5.33301 -20.834 -6.33301 -24.501 -3s-5.5 7.66602 -5.5 12.999v85c0 7.33301 1.5 12.666 4.5 15.999
s8.16699 6.33301 15.5 9l75 30v285c0 16.667 8.33301 25 25 25h110c16.667 0 25 -8.33301 25 -25v-230l65 25c12.667 5.33301 20.834 6.33301 24.501 3s5.5 -7.66602 5.5 -12.999v-85c0 -7.33301 -1.5 -12.5 -4.5 -15.5s-8.16699 -6.16699 -15.5 -9.5z" />
    <glyph glyph-name="lslash" unicode="&#x142;" horiz-adv-x="350" 
d="M245 320v-294.999c0 -16.667 -8.33301 -25 -25 -25h-90c-16.667 0 -25 8.33301 -25 25v245l-65 -25c-12.667 -5.33301 -20.834 -6.33301 -24.501 -3s-5.5 7.66602 -5.5 12.999v80c0 7.33301 1.5 12.666 4.5 15.999s8.16699 6.33301 15.5 9l75 30v285
c0 16.667 8.33301 25 25 25h90c16.667 0 25 -8.33301 25 -25v-235l65 25c12.667 5.33301 20.834 6.33301 24.501 3s5.5 -7.66602 5.5 -12.999v-80c0 -7.33301 -1.5 -12.5 -4.5 -15.5s-8.16699 -6.16699 -15.5 -9.5z" />
    <glyph glyph-name="Nacute" unicode="&#x143;" horiz-adv-x="800" 
d="M560 245v430c0 16.667 8.33301 25 25 25h110c16.667 0 25 -8.33301 25 -25v-650c0 -16.667 -8.33301 -25 -25 -25h-135c-10 -0 -17.833 2.33301 -23.5 7s-11.167 10.667 -16.5 18l-270 430h-10v-430c0 -16.667 -8.33301 -25 -25 -25h-110c-16.667 -0 -25 8.33301 -25 25
v650c0 16.667 8.33301 25 25 25h135c10 0 17.833 -2.33301 23.5 -7s11.167 -10.667 16.5 -18l270 -430h10zM480 795c-5.33301 -7.33301 -10.668 -13.333 -16.001 -18s-11.666 -7 -18.999 -7h-60c-16.667 0 -21.667 8.33301 -15 25l50 130
c3.33301 7.33301 7.5 13.333 12.5 18s12.5 7 22.5 7h95c7.33301 0 13 -2.33301 17 -7s3.33301 -10.667 -2 -18z" />
    <glyph glyph-name="nacute" unicode="&#x144;" 
d="M380 520c50 0 88.332 -13.333 114.999 -40s40 -65 40 -115v-340c0 -16.667 -8.33301 -25 -25 -25h-90c-16.667 -0 -25 8.33301 -25 25v320c0 15.333 -4.5 27.5 -13.5 36.5s-21.167 13.5 -36.5 13.5h-85c-17.333 0 -31.666 -5.66699 -42.999 -17s-17 -25.666 -17 -42.999
v-310c0 -16.667 -8.33301 -25 -25 -25h-90c-16.667 0 -25 8.33301 -25 25v460c0 16.667 8.33301 25 25 25h90c16.667 0 25 -8.33301 25 -25v-25h10c2 11.333 6.66699 21.333 14 30c6 7.33301 14.5 14.166 25.5 20.499s26.167 9.5 45.5 9.5h85zM357.999 605
c-5.33301 -7.33301 -10.668 -13.333 -16.001 -18s-11.666 -7 -18.999 -7h-60c-16.667 0 -21.667 8.33301 -15 25l50 130c3.33301 7.33301 7.5 13.333 12.5 18s12.5 7 22.5 7h95c7.33301 0 13 -2.33301 17 -7s3.33301 -10.667 -2 -18z" />
    <glyph glyph-name="Ncommaaccent" unicode="&#x145;" horiz-adv-x="800" 
d="M560 245v430c0 16.667 8.33301 25 25 25h110c16.667 0 25 -8.33301 25 -25v-650c0 -16.667 -8.33301 -25 -25 -25h-135c-10 -0 -17.833 2.33301 -23.5 7s-11.167 10.667 -16.5 18l-270 430h-10v-430c0 -16.667 -8.33301 -25 -25 -25h-110c-16.667 -0 -25 8.33301 -25 25
v650c0 16.667 8.33301 25 25 25h135c10 0 17.833 -2.33301 23.5 -7s11.167 -10.667 16.5 -18l270 -430h10zM470 -185c0 -7.33301 -0.833008 -14.333 -2.5 -21s-3.5 -12.667 -5.5 -18l-7 -16l-30 -65c-2.66699 -5.33301 -6.5 -10 -11.5 -14s-11.167 -6 -18.5 -6h-30
c-7.33301 0 -12.333 2 -15 6s-2.66699 8.66699 0 14l40 85h-30c-16.667 0 -25 8.33301 -25 25v80c0 16.667 8.33301 25 25 25h85c16.667 0 25 -8.33301 25 -25v-70z" />
    <glyph glyph-name="ncommaaccent" unicode="&#x146;" 
d="M380 520c50 0 88.332 -13.333 114.999 -40s40 -65 40 -115v-340c0 -16.667 -8.33301 -25 -25 -25h-90c-16.667 -0 -25 8.33301 -25 25v320c0 15.333 -4.5 27.5 -13.5 36.5s-21.167 13.5 -36.5 13.5h-85c-17.333 0 -31.666 -5.66699 -42.999 -17s-17 -25.666 -17 -42.999
v-310c0 -16.667 -8.33301 -25 -25 -25h-90c-16.667 0 -25 8.33301 -25 25v460c0 16.667 8.33301 25 25 25h90c16.667 0 25 -8.33301 25 -25v-25h10c2 11.333 6.66699 21.333 14 30c6 7.33301 14.5 14.166 25.5 20.499s26.167 9.5 45.5 9.5h85zM369.999 -175
c0 -7.33301 -0.833008 -14.333 -2.5 -21s-3.5 -12.667 -5.5 -18l-7 -16l-30 -65c-2.66699 -5.33301 -6.5 -10 -11.5 -14s-11.167 -6 -18.5 -6h-30c-7.33301 0 -12.333 2 -15 6s-2.66699 8.66699 0 14l40 85h-30c-16.667 0 -25 8.33301 -25 25v80c0 16.667 8.33301 25 25 25
h85c16.667 0 25 -8.33301 25 -25v-70z" />
    <glyph glyph-name="Ncaron" unicode="&#x147;" horiz-adv-x="800" 
d="M560 245v430c0 16.667 8.33301 25 25 25h110c16.667 0 25 -8.33301 25 -25v-650c0 -16.667 -8.33301 -25 -25 -25h-135c-10 -0 -17.833 2.33301 -23.5 7s-11.167 10.667 -16.5 18l-270 430h-10v-430c0 -16.667 -8.33301 -25 -25 -25h-110c-16.667 -0 -25 8.33301 -25 25
v650c0 16.667 8.33301 25 25 25h135c10 0 17.833 -2.33301 23.5 -7s11.167 -10.667 16.5 -18l270 -430h10zM360 770c-10 0 -17.8311 2.33301 -23.498 7s-11.167 10.667 -16.5 18l-100 130c-6 7.33301 -6.83301 13.333 -2.5 18s10.166 7 17.499 7h70
c12.667 0 22 -2.33301 28 -7s11.667 -10.667 17 -18l45 -65h5l45 65c5.33301 7.33301 11 13.333 17 18s15.333 7 28 7h70c7.33301 0 13.166 -2.33301 17.499 -7s3.5 -10.667 -2.5 -18l-100 -130c-5.33301 -7.33301 -10.833 -13.333 -16.5 -18s-13.5 -7 -23.5 -7h-75z" />
    <glyph glyph-name="ncaron" unicode="&#x148;" 
d="M380 520c50 0 88.332 -13.333 114.999 -40s40 -65 40 -115v-340c0 -16.667 -8.33301 -25 -25 -25h-90c-16.667 -0 -25 8.33301 -25 25v320c0 15.333 -4.5 27.5 -13.5 36.5s-21.167 13.5 -36.5 13.5h-85c-17.333 0 -31.666 -5.66699 -42.999 -17s-17 -25.666 -17 -42.999
v-310c0 -16.667 -8.33301 -25 -25 -25h-90c-16.667 0 -25 8.33301 -25 25v460c0 16.667 8.33301 25 25 25h90c16.667 0 25 -8.33301 25 -25v-25h10c2 11.333 6.66699 21.333 14 30c6 7.33301 14.5 14.166 25.5 20.499s26.167 9.5 45.5 9.5h85zM259.999 580
c-10 0 -17.8311 2.33301 -23.498 7s-11.167 10.667 -16.5 18l-100 130c-6 7.33301 -6.83301 13.333 -2.5 18s10.166 7 17.499 7h70c12.667 0 22 -2.33301 28 -7s11.667 -10.667 17 -18l45 -65h5l45 65c5.33301 7.33301 11 13.333 17 18s15.333 7 28 7h70
c7.33301 0 13.166 -2.33301 17.499 -7s3.5 -10.667 -2.5 -18l-100 -130c-5.33301 -7.33301 -10.833 -13.333 -16.5 -18s-13.5 -7 -23.5 -7h-75z" />
    <glyph glyph-name="Omacron" unicode="&#x14c;" horiz-adv-x="795" 
d="M725 165c0 -116.667 -58.333 -175 -175 -175h-305c-116.667 0 -175 58.333 -175 175v370c0 116.667 58.333 175 175 175h305c116.667 0 175 -58.333 175 -175v-370zM565 515c0 36.667 -18.333 55 -55 55h-225c-36.667 0 -55 -18.333 -55 -55v-330
c0 -36.667 18.333 -55 55 -55h225c36.667 0 55 18.333 55 55v330zM270 810c-16.667 0 -25 8.33301 -25 25v55c0 16.667 8.33301 25 25 25h255c16.667 0 25 -8.33301 25 -25v-55c0 -16.667 -8.33301 -25 -25 -25h-255z" />
    <glyph glyph-name="omacron" unicode="&#x14d;" horiz-adv-x="605" 
d="M405 345c0 15.333 -4.5 27.5 -13.5 36.5s-21.167 13.5 -36.5 13.5h-105c-15.333 0 -27.5 -4.5 -36.5 -13.5s-13.5 -21.167 -13.5 -36.5v-180c0 -15.333 4.5 -27.5 13.5 -36.5s21.167 -13.5 36.5 -13.5h105c15.333 0 27.5 4.5 36.5 13.5s13.5 21.167 13.5 36.5v180z
M545 145c0 -50 -13.333 -88.333 -40 -115s-65 -40 -115 -40h-175c-50 0 -88.333 13.333 -115 40s-40 65 -40 115v220c0 50 13.333 88.333 40 115s65 40 115 40h175c50 0 88.333 -13.333 115 -40s40 -65 40 -115v-220zM175 610c-16.667 0 -25 8.33301 -25 25v55
c0 16.667 8.33301 25 25 25h255c16.667 0 25 -8.33301 25 -25v-55c0 -16.667 -8.33301 -25 -25 -25h-255z" />
    <glyph glyph-name="Ohungarumlaut" unicode="&#x150;" horiz-adv-x="795" 
d="M725 165c0 -116.667 -58.333 -175 -175 -175h-305c-116.667 0 -175 58.333 -175 175v370c0 116.667 58.333 175 175 175h305c116.667 0 175 -58.333 175 -175v-370zM565 515c0 36.667 -18.333 55 -55 55h-225c-36.667 0 -55 -18.333 -55 -55v-330
c0 -36.667 18.333 -55 55 -55h225c36.667 0 55 18.333 55 55v330zM358 805c-5.33301 -7.33301 -10.668 -13.333 -16.001 -18s-11.666 -7 -18.999 -7h-40c-16.667 0 -21.667 8.33301 -15 25l50 130c3.33301 7.33301 7.5 13.333 12.5 18s12.5 7 22.5 7h75
c7.33301 0 13 -2.33301 17 -7s3.33301 -10.667 -2 -18zM537.998 805c-5.33301 -7.33301 -10.668 -13.333 -16.001 -18s-11.666 -7 -18.999 -7h-40c-16.667 0 -21.667 8.33301 -15 25l50 130c3.33301 7.33301 7.5 13.333 12.5 18s12.5 7 22.5 7h75
c7.33301 0 13 -2.33301 17 -7s3.33301 -10.667 -2 -18z" />
    <glyph glyph-name="ohungarumlaut" unicode="&#x151;" horiz-adv-x="605" 
d="M405 345c0 15.333 -4.5 27.5 -13.5 36.5s-21.167 13.5 -36.5 13.5h-105c-15.333 0 -27.5 -4.5 -36.5 -13.5s-13.5 -21.167 -13.5 -36.5v-180c0 -15.333 4.5 -27.5 13.5 -36.5s21.167 -13.5 36.5 -13.5h105c15.333 0 27.5 4.5 36.5 13.5s13.5 21.167 13.5 36.5v180z
M545 145c0 -50 -13.333 -88.333 -40 -115s-65 -40 -115 -40h-175c-50 0 -88.333 13.333 -115 40s-40 65 -40 115v220c0 50 13.333 88.333 40 115s65 40 115 40h175c50 0 88.333 -13.333 115 -40s40 -65 40 -115v-220zM273 605
c-5.33301 -7.33301 -10.668 -13.333 -16.001 -18s-11.666 -7 -18.999 -7h-40c-16.667 0 -21.667 8.33301 -15 25l50 130c3.33301 7.33301 7.5 13.333 12.5 18s12.5 7 22.5 7h75c7.33301 0 13 -2.33301 17 -7s3.33301 -10.667 -2 -18zM452.998 605
c-5.33301 -7.33301 -10.668 -13.333 -16.001 -18s-11.666 -7 -18.999 -7h-40c-16.667 0 -21.667 8.33301 -15 25l50 130c3.33301 7.33301 7.5 13.333 12.5 18s12.5 7 22.5 7h75c7.33301 0 13 -2.33301 17 -7s3.33301 -10.667 -2 -18z" />
    <glyph glyph-name="OE" unicode="&#x152;" horiz-adv-x="1085" 
d="M1020 700c16.667 0 25 -8.33301 25 -25v-90c0 -16.667 -8.33301 -25 -25 -25h-350v-135h260c16.667 0 25 -8.33301 25 -25v-90c0 -16.667 -8.33301 -25 -25 -25h-260v-145h360c16.667 0 25 -8.33301 25 -25v-90c0 -16.667 -8.33301 -25 -25 -25h-785
c-116.667 -0 -175 58.333 -175 175v350c0 116.667 58.333 175 175 175h775zM230 195c0 -36.667 18.333 -55 55 -55h225v420h-225c-36.667 0 -55 -18.333 -55 -55v-310z" />
    <glyph glyph-name="oe" unicode="&#x153;" horiz-adv-x="905" 
d="M565 -10c-17.333 0 -32.333 2.5 -45 7.5s-23 10.833 -31 17.5c-9.33301 7.33301 -17.333 15.666 -24 24.999h-10c-6.66699 -9.33301 -14.667 -17.666 -24 -24.999c-8 -6.66699 -18.333 -12.5 -31 -17.5s-27.667 -7.5 -45 -7.5h-140c-50 0 -88.333 13.333 -115 40
s-40 65 -40 115v220c0 50 13.333 88.333 40 115s65 40 115 40h140c17.333 0 32.333 -2.66699 45 -8s23 -11 31 -17c9.33301 -7.33301 17.333 -15.666 24 -24.999h10c6.66699 9.33301 14.667 17.666 24 24.999c8 6 18.333 11.667 31 17s27.667 8 45 8h125
c50 0 88.333 -13.333 115 -40s40 -65 40 -115v-130c0 -16.667 -8.33301 -25 -25 -25h-295v-45c0 -15.333 4.5 -27.5 13.5 -36.5s21.167 -13.5 36.5 -13.5h95c20 0 30 10 30 30c0 16.667 8.33301 25 25 25h90c16.667 0 25 -8.33301 25 -25c0 -50 -13.333 -88.333 -40 -115
s-65 -40 -115 -40h-120zM200 165c0 -15.333 4.5 -27.5 13.5 -36.5s21.167 -13.5 36.5 -13.5h85c15.333 0 27.5 4.5 36.5 13.5s13.5 21.167 13.5 36.5v180c0 15.333 -4.5 27.5 -13.5 36.5s-21.167 13.5 -36.5 13.5h-85c-15.333 0 -27.5 -4.5 -36.5 -13.5
s-13.5 -21.167 -13.5 -36.5v-180zM525 310h180v40c0 15.333 -4.5 27.5 -13.5 36.5s-21.167 13.5 -36.5 13.5h-80c-15.333 0 -27.5 -4.5 -36.5 -13.5s-13.5 -21.167 -13.5 -36.5v-40z" />
    <glyph glyph-name="Racute" unicode="&#x154;" horiz-adv-x="749" 
d="M690 395c0 -38 -5.83398 -67.833 -17.501 -89.5s-24.167 -38.167 -37.5 -49.5c-16.667 -13.333 -35 -22 -55 -26l115 -205c4 -7.33301 4.33301 -13.333 1 -18s-8.66602 -7 -15.999 -7h-120c-10 -0 -18.167 2.33301 -24.5 7s-11.5 10.667 -15.5 18l-105 195h-175v-195
c0 -16.667 -8.33301 -25 -25 -25h-110c-16.667 -0 -25 8.33301 -25 25v650c0 16.667 8.33301 25 25 25h410c116.667 0 175 -58.333 175 -175v-130zM239.999 560v-200h235c36.667 0 55 18.333 55 55v90c0 36.667 -18.333 55 -55 55h-235zM434.999 795
c-5.33301 -7.33301 -10.668 -13.333 -16.001 -18s-11.666 -7 -18.999 -7h-60c-16.667 0 -21.667 8.33301 -15 25l50 130c3.33301 7.33301 7.5 13.333 12.5 18s12.5 7 22.5 7h95c7.33301 0 13 -2.33301 17 -7s3.33301 -10.667 -2 -18z" />
    <glyph glyph-name="racute" unicode="&#x155;" horiz-adv-x="380" 
d="M370 410c0 -16.667 -8.33398 -25 -25.001 -25h-85c-17.333 0 -31.666 -5.66699 -42.999 -17s-17 -25.666 -17 -42.999v-300c0 -16.667 -8.33301 -25 -25 -25h-90c-16.667 0 -25 8.33301 -25 25v460c0 16.667 8.33301 25 25 25h90c16.667 0 25 -8.33301 25 -25v-25h10
c2 11.333 6.66699 21.333 14 30c6 7.33301 14.5 14.166 25.5 20.499s26.167 9.5 45.5 9.5h50c16.667 0 25 -8.33301 25 -25v-85zM279.999 605c-5.33301 -7.33301 -10.668 -13.333 -16.001 -18s-11.666 -7 -18.999 -7h-60c-16.667 0 -21.667 8.33301 -15 25l50 130
c3.33301 7.33301 7.5 13.333 12.5 18s12.5 7 22.5 7h95c7.33301 0 13 -2.33301 17 -7s3.33301 -10.667 -2 -18z" />
    <glyph glyph-name="Rcommaaccent" unicode="&#x156;" horiz-adv-x="749" 
d="M690 395c0 -38 -5.83398 -67.833 -17.501 -89.5s-24.167 -38.167 -37.5 -49.5c-16.667 -13.333 -35 -22 -55 -26l115 -205c4 -7.33301 4.33301 -13.333 1 -18s-8.66602 -7 -15.999 -7h-120c-10 -0 -18.167 2.33301 -24.5 7s-11.5 10.667 -15.5 18l-105 195h-175v-195
c0 -16.667 -8.33301 -25 -25 -25h-110c-16.667 -0 -25 8.33301 -25 25v650c0 16.667 8.33301 25 25 25h410c116.667 0 175 -58.333 175 -175v-130zM239.999 560v-200h235c36.667 0 55 18.333 55 55v90c0 36.667 -18.333 55 -55 55h-235zM454.999 -175
c0 -7.33301 -0.833008 -14.333 -2.5 -21s-3.5 -12.667 -5.5 -18l-7 -16l-30 -65c-2.66699 -5.33301 -6.5 -10 -11.5 -14s-11.167 -6 -18.5 -6h-30c-7.33301 0 -12.333 2 -15 6s-2.66699 8.66699 0 14l40 85h-30c-16.667 0 -25 8.33301 -25 25v80c0 16.667 8.33301 25 25 25
h85c16.667 0 25 -8.33301 25 -25v-70z" />
    <glyph glyph-name="rcommaaccent" unicode="&#x157;" horiz-adv-x="380" 
d="M370 410c0 -16.667 -8.33398 -25 -25.001 -25h-85c-17.333 0 -31.666 -5.66699 -42.999 -17s-17 -25.666 -17 -42.999v-300c0 -16.667 -8.33301 -25 -25 -25h-90c-16.667 0 -25 8.33301 -25 25v460c0 16.667 8.33301 25 25 25h90c16.667 0 25 -8.33301 25 -25v-25h10
c2 11.333 6.66699 21.333 14 30c6 7.33301 14.5 14.166 25.5 20.499s26.167 9.5 45.5 9.5h50c16.667 0 25 -8.33301 25 -25v-85zM194.999 -175c0 -7.33301 -0.833008 -14.333 -2.5 -21s-3.5 -12.667 -5.5 -18l-7 -16l-30 -65c-2.66699 -5.33301 -6.5 -10 -11.5 -14
s-11.167 -6 -18.5 -6h-30c-7.33301 0 -12.333 2 -15 6s-2.66699 8.66699 0 14l40 85h-30c-16.667 0 -25 8.33301 -25 25v80c0 16.667 8.33301 25 25 25h85c16.667 0 25 -8.33301 25 -25v-70z" />
    <glyph glyph-name="Rcaron" unicode="&#x158;" horiz-adv-x="749" 
d="M690 395c0 -38 -5.83398 -67.833 -17.501 -89.5s-24.167 -38.167 -37.5 -49.5c-16.667 -13.333 -35 -22 -55 -26l115 -205c4 -7.33301 4.33301 -13.333 1 -18s-8.66602 -7 -15.999 -7h-120c-10 -0 -18.167 2.33301 -24.5 7s-11.5 10.667 -15.5 18l-105 195h-175v-195
c0 -16.667 -8.33301 -25 -25 -25h-110c-16.667 -0 -25 8.33301 -25 25v650c0 16.667 8.33301 25 25 25h410c116.667 0 175 -58.333 175 -175v-130zM239.999 560v-200h235c36.667 0 55 18.333 55 55v90c0 36.667 -18.333 55 -55 55h-235zM336.999 770
c-10 0 -17.8311 2.33301 -23.498 7s-11.167 10.667 -16.5 18l-100 130c-6 7.33301 -6.83301 13.333 -2.5 18s10.166 7 17.499 7h70c12.667 0 22 -2.33301 28 -7s11.667 -10.667 17 -18l45 -65h5l45 65c5.33301 7.33301 11 13.333 17 18s15.333 7 28 7h70
c7.33301 0 13.166 -2.33301 17.499 -7s3.5 -10.667 -2.5 -18l-100 -130c-5.33301 -7.33301 -10.833 -13.333 -16.5 -18s-13.5 -7 -23.5 -7h-75z" />
    <glyph glyph-name="rcaron" unicode="&#x159;" horiz-adv-x="380" 
d="M370 410c0 -16.667 -8.33398 -25 -25.001 -25h-85c-17.333 0 -31.666 -5.66699 -42.999 -17s-17 -25.666 -17 -42.999v-300c0 -16.667 -8.33301 -25 -25 -25h-90c-16.667 0 -25 8.33301 -25 25v460c0 16.667 8.33301 25 25 25h90c16.667 0 25 -8.33301 25 -25v-25h10
c2 11.333 6.66699 21.333 14 30c6 7.33301 14.5 14.166 25.5 20.499s26.167 9.5 45.5 9.5h50c16.667 0 25 -8.33301 25 -25v-85zM179.999 580c-10 0 -17.8311 2.33301 -23.498 7s-11.167 10.667 -16.5 18l-100 130c-6 7.33301 -6.83301 13.333 -2.5 18s10.166 7 17.499 7h70
c12.667 0 22 -2.33301 28 -7s11.667 -10.667 17 -18l45 -65h5l45 65c5.33301 7.33301 11 13.333 17 18s15.333 7 28 7h70c7.33301 0 13.166 -2.33301 17.499 -7s3.5 -10.667 -2.5 -18l-100 -130c-5.33301 -7.33301 -10.833 -13.333 -16.5 -18s-13.5 -7 -23.5 -7h-75z" />
    <glyph glyph-name="Sacute" unicode="&#x15a;" horiz-adv-x="715" 
d="M505 205c0 24 -15 40.668 -45 50.001l-275 85c-40 12.667 -70 30.167 -90 52.5s-30 54.833 -30 97.5v45c0 116.667 58.333 175 175 175h240c116.667 0 175 -58.333 175 -175v-50c0 -16.667 -8.33301 -25 -25 -25h-110c-16.667 0 -25 8.33301 -25 25v30
c0 36.667 -18.333 55 -55 55h-160c-36.667 0 -55 -18.333 -55 -55v-10c0 -24.667 15 -41.334 45 -50.001l275 -85c40 -12.667 70 -30.167 90 -52.5s30 -54.833 30 -97.5v-55c0 -116.667 -58.333 -175 -175 -175h-265c-116.667 0 -175 58.333 -175 175v50
c0 16.667 8.33301 25 25 25h110c16.667 0 25 -8.33301 25 -25v-30c0 -36.667 18.333 -55 55 -55h185c36.667 0 55 18.333 55 55v20zM428 795.001c-5.33301 -7.33301 -10.668 -13.333 -16.001 -18s-11.666 -7 -18.999 -7h-60c-16.667 0 -21.667 8.33301 -15 25l50 130
c3.33301 7.33301 7.5 13.333 12.5 18s12.5 7 22.5 7h95c7.33301 0 13 -2.33301 17 -7s3.33301 -10.667 -2 -18z" />
    <glyph glyph-name="sacute" unicode="&#x15b;" horiz-adv-x="545" 
d="M340 520c50 0 88.332 -13.332 114.999 -39.999s40 -65 40 -115v-10c0 -16.667 -8.33301 -25 -25 -25h-90c-16.667 0 -25 8.33301 -25 25c0 26.667 -13.333 40 -40 40h-100c-16.667 0 -25 -8.33301 -25 -25v-5c0 -14.667 8.33301 -24.667 25 -30l190 -60
c32.667 -10 57.5 -24.5 74.5 -43.5s25.5 -46.167 25.5 -81.5v-15c0 -96.667 -48.333 -145 -145 -145h-165c-50 0 -88.333 13.333 -115 40s-40 65 -40 115v15c0 16.667 8.33301 25 25 25h90c16.667 0 25 -8.33301 25 -25c0 -12.667 4.33301 -23.334 13 -32.001
s19.334 -13 32.001 -13h115c16.667 0 25 8.33301 25 25v5c0 14.667 -8.33301 24.667 -25 30l-190 60c-32.667 10 -57.5 24.5 -74.5 43.5s-25.5 46.167 -25.5 81.5v15c0 96.667 48.333 145 145 145h145zM332.999 605.001c-5.33301 -7.33301 -10.668 -13.333 -16.001 -18
s-11.666 -7 -18.999 -7h-60c-16.667 0 -21.667 8.33301 -15 25l50 130c3.33301 7.33301 7.5 13.333 12.5 18s12.5 7 22.5 7h95c7.33301 0 13 -2.33301 17 -7s3.33301 -10.667 -2 -18z" />
    <glyph glyph-name="Scedilla" unicode="&#x15e;" horiz-adv-x="715" 
d="M375 -195c20 0 30.001 10.0039 30.001 30.0039s-10 30 -30 30h-60c-13.333 0 -20 6.66699 -20 20v30c0 10 1.66699 18.333 5 25c1.33301 3.33301 3 6.66602 5 9.99902l25 40h-105c-116.667 0 -175 58.333 -175 175v50c0 16.667 8.33301 25 25 25h110
c16.667 0 25 -8.33301 25 -25v-30c0 -36.667 18.333 -55 55 -55h185c36.667 0 55 18.333 55 55v20c0 24 -15 40.667 -45 50l-275 85c-40 12.667 -70 30.167 -90 52.5s-30 54.833 -30 97.5v45c0 116.667 58.333 175 175 175h240c116.667 0 175 -58.333 175 -175v-50
c0 -16.667 -8.33301 -25 -25 -25h-110c-16.667 0 -25 8.33301 -25 25v30c0 36.667 -18.333 55 -55 55h-160c-36.667 0 -55 -18.333 -55 -55v-10c0 -24.667 15 -41.334 45 -50.001l275 -85c40 -12.667 70 -30.167 90 -52.5s30 -54.833 30 -97.5v-55
c0 -116.667 -58.333 -175 -175 -175h-95l-25 -50c38 0 66.667 -9.33301 86 -28s29 -44.334 29 -77.001v-5c0 -32.667 -9.33301 -58.334 -28 -77.001s-44.334 -28 -77.001 -28h-80c-13.333 0 -20 6.66699 -20 20v40c0 13.333 6.66699 20 20 20h75z" />
    <glyph glyph-name="scedilla" unicode="&#x15f;" horiz-adv-x="545" 
d="M290 -195c20 0 30 10.0039 30 30.0039s-10 30 -30 30h-60c-13.333 0 -20 6.66699 -20 20v30c0 10 1.66699 18.333 5 25c1.33301 3.33301 3 6.66602 5 9.99902l25 40h-50c-50 0 -88.333 13.333 -115 40s-40 65 -40 115v15c0 16.667 8.33301 25 25 25h90
c16.667 0 25 -8.33301 25 -25c0 -12.667 4.33301 -23.334 13 -32.001s19.334 -13 32.001 -13h115c16.667 0 25 8.33301 25 25v5c0 14.667 -8.33301 24.667 -25 30l-190 60c-32.667 10 -57.5 24.5 -74.5 43.5s-25.5 46.167 -25.5 81.5v15c0 96.667 48.333 145 145 145h145
c50 0 88.333 -13.333 115 -40s40 -65 40 -115v-10c0 -16.667 -8.33301 -25 -25 -25h-90c-16.667 0 -25 8.33301 -25 25c0 26.667 -13.333 40 -40 40h-100c-16.667 0 -25 -8.33301 -25 -25v-5c0 -14.667 8.33301 -24.667 25 -30l190 -60c32.667 -10 57.5 -24.5 74.5 -43.5
s25.5 -46.167 25.5 -81.5v-15c0 -96.667 -48.333 -145 -145 -145h-50l-25 -50c38 0 66.667 -9.33301 86 -28s29 -44.334 29 -77.001v-5c0 -32.667 -9.33301 -58.334 -28 -77.001s-44.334 -28 -77.001 -28h-80c-13.333 0 -20 6.66699 -20 20v40c0 13.333 6.66699 20 20 20h75
z" />
    <glyph glyph-name="Scaron" unicode="&#x160;" horiz-adv-x="715" 
d="M505 205c0 24 -15 40.668 -45 50.001l-275 85c-40 12.667 -70 30.167 -90 52.5s-30 54.833 -30 97.5v45c0 116.667 58.333 175 175 175h240c116.667 0 175 -58.333 175 -175v-50c0 -16.667 -8.33301 -25 -25 -25h-110c-16.667 0 -25 8.33301 -25 25v30
c0 36.667 -18.333 55 -55 55h-160c-36.667 0 -55 -18.333 -55 -55v-10c0 -24.667 15 -41.334 45 -50.001l275 -85c40 -12.667 70 -30.167 90 -52.5s30 -54.833 30 -97.5v-55c0 -116.667 -58.333 -175 -175 -175h-265c-116.667 0 -175 58.333 -175 175v50
c0 16.667 8.33301 25 25 25h110c16.667 0 25 -8.33301 25 -25v-30c0 -36.667 18.333 -55 55 -55h185c36.667 0 55 18.333 55 55v20zM330 770.001c-10 0 -17.8311 2.33301 -23.498 7s-11.167 10.667 -16.5 18l-100 130c-6 7.33301 -6.83301 13.333 -2.5 18s10.166 7 17.499 7
h70c12.667 0 22 -2.33301 28 -7s11.667 -10.667 17 -18l45 -65h5l45 65c5.33301 7.33301 11 13.333 17 18s15.333 7 28 7h70c7.33301 0 13.166 -2.33301 17.499 -7s3.5 -10.667 -2.5 -18l-100 -130c-5.33301 -7.33301 -10.833 -13.333 -16.5 -18s-13.5 -7 -23.5 -7h-75z" />
    <glyph glyph-name="scaron" unicode="&#x161;" horiz-adv-x="545" 
d="M340 520c50 0 88.332 -13.332 114.999 -39.999s40 -65 40 -115v-10c0 -16.667 -8.33301 -25 -25 -25h-90c-16.667 0 -25 8.33301 -25 25c0 26.667 -13.333 40 -40 40h-100c-16.667 0 -25 -8.33301 -25 -25v-5c0 -14.667 8.33301 -24.667 25 -30l190 -60
c32.667 -10 57.5 -24.5 74.5 -43.5s25.5 -46.167 25.5 -81.5v-15c0 -96.667 -48.333 -145 -145 -145h-165c-50 0 -88.333 13.333 -115 40s-40 65 -40 115v15c0 16.667 8.33301 25 25 25h90c16.667 0 25 -8.33301 25 -25c0 -12.667 4.33301 -23.334 13 -32.001
s19.334 -13 32.001 -13h115c16.667 0 25 8.33301 25 25v5c0 14.667 -8.33301 24.667 -25 30l-190 60c-32.667 10 -57.5 24.5 -74.5 43.5s-25.5 46.167 -25.5 81.5v15c0 96.667 48.333 145 145 145h145zM234.999 580.001c-10 0 -17.8311 2.33301 -23.498 7
s-11.167 10.667 -16.5 18l-100 130c-6 7.33301 -6.83301 13.333 -2.5 18s10.166 7 17.499 7h70c12.667 0 22 -2.33301 28 -7s11.667 -10.667 17 -18l45 -65h5l45 65c5.33301 7.33301 11 13.333 17 18s15.333 7 28 7h70c7.33301 0 13.166 -2.33301 17.499 -7
s3.5 -10.667 -2.5 -18l-100 -130c-5.33301 -7.33301 -10.833 -13.333 -16.5 -18s-13.5 -7 -23.5 -7h-75z" />
    <glyph glyph-name="Tcommaaccent" unicode="&#x162;" horiz-adv-x="630" 
d="M395 25c0 -16.667 -8.33301 -25 -25 -25h-110c-16.667 -0 -25 8.33301 -25 25v535h-200c-16.667 0 -25 8.33301 -25 25v90c0 16.667 8.33301 25 25 25h560c16.667 0 25 -8.33301 25 -25v-90c0 -16.667 -8.33301 -25 -25 -25h-200v-535zM380 -175
c0 -7.33301 -0.833008 -14.333 -2.5 -21s-3.5 -12.667 -5.5 -18l-7 -16l-30 -65c-2.66699 -5.33301 -6.5 -10 -11.5 -14s-11.167 -6 -18.5 -6h-30c-7.33301 0 -12.333 2 -15 6s-2.66699 8.66699 0 14l40 85h-30c-16.667 0 -25 8.33301 -25 25v80c0 16.667 8.33301 25 25 25
h85c16.667 0 25 -8.33301 25 -25v-70z" />
    <glyph glyph-name="tcommaaccent" unicode="&#x163;" horiz-adv-x="420" 
d="M335 510c16.667 0 25 -8.33301 25 -25v-75c0 -16.667 -8.33301 -25 -25 -25h-80v-210c0 -15.333 4.5 -27.5 13.5 -36.5s21.167 -13.5 36.5 -13.5h50c16.667 0 25 -8.33301 25 -25v-75c0 -16.667 -8.33301 -25 -25 -25h-85c-50 -0 -88.333 13.333 -115 40s-40 65 -40 115
v230h-50c-16.667 0 -25 8.33301 -25 25v75c0 16.667 8.33301 25 25 25h50v95c0 16.667 8.33301 25 25 25h90c16.667 0 25 -8.33301 25 -25v-95h80zM310 -185c0 -7.33301 -0.833008 -14.333 -2.5 -21s-3.5 -12.667 -5.5 -18l-7 -16l-30 -65
c-2.66699 -5.33301 -6.5 -10 -11.5 -14s-11.167 -6 -18.5 -6h-30c-7.33301 0 -12.333 2 -15 6s-2.66699 8.66699 0 14l40 85h-30c-16.667 0 -25 8.33301 -25 25v80c0 16.667 8.33301 25 25 25h85c16.667 0 25 -8.33301 25 -25v-70z" />
    <glyph glyph-name="Tcaron" unicode="&#x164;" horiz-adv-x="630" 
d="M395 25c0 -16.667 -8.33301 -25 -25 -25h-110c-16.667 -0 -25 8.33301 -25 25v535h-200c-16.667 0 -25 8.33301 -25 25v90c0 16.667 8.33301 25 25 25h560c16.667 0 25 -8.33301 25 -25v-90c0 -16.667 -8.33301 -25 -25 -25h-200v-535zM280 770
c-10 0 -17.8311 2.33301 -23.498 7s-11.167 10.667 -16.5 18l-100 130c-6 7.33301 -6.83301 13.333 -2.5 18s10.166 7 17.499 7h70c12.667 0 22 -2.33301 28 -7s11.667 -10.667 17 -18l45 -65h5l45 65c5.33301 7.33301 11 13.333 17 18s15.333 7 28 7h70
c7.33301 0 13.166 -2.33301 17.499 -7s3.5 -10.667 -2.5 -18l-100 -130c-5.33301 -7.33301 -10.833 -13.333 -16.5 -18s-13.5 -7 -23.5 -7h-75z" />
    <glyph glyph-name="tcaron" unicode="&#x165;" horiz-adv-x="520" 
d="M335 510c16.667 0 25 -8.33301 25 -25v-75c0 -16.667 -8.33301 -25 -25 -25h-80v-210c0 -15.333 4.5 -27.5 13.5 -36.5s21.167 -13.5 36.5 -13.5h50c16.667 0 25 -8.33301 25 -25v-75c0 -16.667 -8.33301 -25 -25 -25h-85c-50 -0 -88.333 13.333 -115 40s-40 65 -40 115
v230h-50c-16.667 0 -25 8.33301 -25 25v75c0 16.667 8.33301 25 25 25h50v95c0 16.667 8.33301 25 25 25h90c16.667 0 25 -8.33301 25 -25v-95h80zM540 600c0 -7.33301 -0.833008 -14.333 -2.5 -21s-3.5 -12.667 -5.5 -18l-7 -16l-35 -70
c-2.66699 -5.33301 -6.5 -10 -11.5 -14s-11.167 -6 -18.5 -6h-30c-7.33301 0 -12.333 2 -15 6s-2.66699 8.66699 0 14l45 90h-35c-16.667 0 -25 8.33301 -25 25v85c0 16.667 8.33301 25 25 25h90c16.667 0 25 -8.33301 25 -25v-75z" />
    <glyph glyph-name="Umacron" unicode="&#x16a;" horiz-adv-x="790" 
d="M80 675c0 16.667 8.33301 25 25 25h110c16.667 0 25 -8.33301 25 -25v-490c0 -36.667 18.333 -55 55 -55h200c36.667 0 55 18.333 55 55v490c0 16.667 8.33301 25 25 25h110c16.667 0 25 -8.33301 25 -25v-510c0 -116.667 -58.333 -175 -175 -175h-280
c-116.667 0 -175 58.333 -175 175v510zM265 810c-16.667 0 -25 8.33301 -25 25v55c0 16.667 8.33301 25 25 25h255c16.667 0 25 -8.33301 25 -25v-55c0 -16.667 -8.33301 -25 -25 -25h-255z" />
    <glyph glyph-name="umacron" unicode="&#x16b;" 
d="M215 -10c-50 0 -88.332 13.333 -114.999 40s-40 65 -40 115v340c0 16.667 8.33301 25 25 25h90c16.667 0 25 -8.33301 25 -25v-320c0 -15.333 4.5 -27.5 13.5 -36.5s21.167 -13.5 36.5 -13.5h85c17.333 0 31.666 5.66699 42.999 17s17 25.666 17 42.999v310
c0 16.667 8.33301 25 25 25h90c16.667 0 25 -8.33301 25 -25v-460c0 -16.667 -8.33301 -25 -25 -25h-90c-16.667 0 -25 8.33301 -25 25v25h-10c-2 -11.333 -6.66699 -21.333 -14 -30c-6 -7.33301 -14.667 -14.166 -26 -20.499s-26.333 -9.5 -45 -9.5h-85zM170.001 610
c-16.667 0 -25 8.33301 -25 25v55c0 16.667 8.33301 25 25 25h255c16.667 0 25 -8.33301 25 -25v-55c0 -16.667 -8.33301 -25 -25 -25h-255z" />
    <glyph glyph-name="Uring" unicode="&#x16e;" horiz-adv-x="790" 
d="M80 675c0 16.667 8.33301 25 25 25h110c16.667 0 25 -8.33301 25 -25v-490c0 -36.667 18.333 -55 55 -55h200c36.667 0 55 18.333 55 55v490c0 16.667 8.33301 25 25 25h110c16.667 0 25 -8.33301 25 -25v-510c0 -116.667 -58.333 -175 -175 -175h-280
c-116.667 0 -175 58.333 -175 175v510zM515 865c0 -32.667 -9.33301 -58.334 -28 -77.001s-44.334 -28 -77.001 -28h-25c-32.667 0 -58.334 9.33301 -77.001 28s-28 44.334 -28 77.001v20c0 32.667 9.33301 58.334 28 77.001s44.334 28 77.001 28h25
c32.667 0 58.334 -9.33301 77.001 -28s28 -44.334 28 -77.001v-20zM435 885c0 20 -10 30 -30 30h-15c-20 0 -30 -10 -30 -30v-20c0 -20 10 -30 30 -30h15c20 0 30 10 30 30v20z" />
    <glyph glyph-name="uring" unicode="&#x16f;" 
d="M215 -10c-50 0 -88.332 13.333 -114.999 40s-40 65 -40 115v340c0 16.667 8.33301 25 25 25h90c16.667 0 25 -8.33301 25 -25v-320c0 -15.333 4.5 -27.5 13.5 -36.5s21.167 -13.5 36.5 -13.5h85c17.333 0 31.666 5.66699 42.999 17s17 25.666 17 42.999v310
c0 16.667 8.33301 25 25 25h90c16.667 0 25 -8.33301 25 -25v-460c0 -16.667 -8.33301 -25 -25 -25h-90c-16.667 0 -25 8.33301 -25 25v25h-10c-2 -11.333 -6.66699 -21.333 -14 -30c-6 -7.33301 -14.667 -14.166 -26 -20.499s-26.333 -9.5 -45 -9.5h-85zM415.001 675
c0 -32.667 -9.33301 -58.334 -28 -77.001s-44.334 -28 -77.001 -28h-25c-32.667 0 -58.334 9.33301 -77.001 28s-28 44.334 -28 77.001v20c0 32.667 9.33301 58.334 28 77.001s44.334 28 77.001 28h25c32.667 0 58.334 -9.33301 77.001 -28s28 -44.334 28 -77.001v-20z
M335.001 695c0 20 -10 30 -30 30h-15c-20 0 -30 -10 -30 -30v-20c0 -20 10 -30 30 -30h15c20 0 30 10 30 30v20z" />
    <glyph glyph-name="Uhungarumlaut" unicode="&#x170;" horiz-adv-x="790" 
d="M80 675c0 16.667 8.33301 25 25 25h110c16.667 0 25 -8.33301 25 -25v-490c0 -36.667 18.333 -55 55 -55h200c36.667 0 55 18.333 55 55v490c0 16.667 8.33301 25 25 25h110c16.667 0 25 -8.33301 25 -25v-510c0 -116.667 -58.333 -175 -175 -175h-280
c-116.667 0 -175 58.333 -175 175v510zM355 795c-5.33301 -7.33301 -10.668 -13.333 -16.001 -18s-11.666 -7 -18.999 -7h-40c-16.667 0 -21.667 8.33301 -15 25l50 130c3.33301 7.33301 7.5 13.333 12.5 18s12.5 7 22.5 7h75c7.33301 0 13 -2.33301 17 -7
s3.33301 -10.667 -2 -18zM534.998 795c-5.33301 -7.33301 -10.668 -13.333 -16.001 -18s-11.666 -7 -18.999 -7h-40c-16.667 0 -21.667 8.33301 -15 25l50 130c3.33301 7.33301 7.5 13.333 12.5 18s12.5 7 22.5 7h75c7.33301 0 13 -2.33301 17 -7s3.33301 -10.667 -2 -18z
" />
    <glyph glyph-name="uhungarumlaut" unicode="&#x171;" 
d="M215 -10c-50 0 -88.332 13.333 -114.999 40s-40 65 -40 115v340c0 16.667 8.33301 25 25 25h90c16.667 0 25 -8.33301 25 -25v-320c0 -15.333 4.5 -27.5 13.5 -36.5s21.167 -13.5 36.5 -13.5h85c17.333 0 31.666 5.66699 42.999 17s17 25.666 17 42.999v310
c0 16.667 8.33301 25 25 25h90c16.667 0 25 -8.33301 25 -25v-460c0 -16.667 -8.33301 -25 -25 -25h-90c-16.667 0 -25 8.33301 -25 25v25h-10c-2 -11.333 -6.66699 -21.333 -14 -30c-6 -7.33301 -14.667 -14.166 -26 -20.499s-26.333 -9.5 -45 -9.5h-85zM258.001 595
c-5.33301 -7.33301 -10.668 -13.333 -16.001 -18s-11.666 -7 -18.999 -7h-40c-16.667 0 -21.667 8.33301 -15 25l50 130c3.33301 7.33301 7.5 13.333 12.5 18s12.5 7 22.5 7h75c7.33301 0 13 -2.33301 17 -7s3.33301 -10.667 -2 -18zM437.999 595
c-5.33301 -7.33301 -10.668 -13.333 -16.001 -18s-11.666 -7 -18.999 -7h-40c-16.667 0 -21.667 8.33301 -15 25l50 130c3.33301 7.33301 7.5 13.333 12.5 18s12.5 7 22.5 7h75c7.33301 0 13 -2.33301 17 -7s3.33301 -10.667 -2 -18z" />
    <glyph glyph-name="Uogonek" unicode="&#x172;" horiz-adv-x="790" 
d="M80 675c0 16.667 8.33496 25 25.002 25h110c16.667 0 25 -8.33301 25 -25v-490c0 -36.667 18.333 -55 55 -55h200c36.667 0 55 18.333 55 55v490c0 16.667 8.33301 25 25 25h110c16.667 0 25 -8.33301 25 -25v-510c0 -116.667 -58.333 -175 -175 -175h-70
c-14.667 -10 -28 -21 -40 -33c-10 -10 -19.167 -21.5 -27.5 -34.5s-12.5 -27.167 -12.5 -42.5c0 -20 10 -30 30 -30h49c8 0 13.5 -1.5 16.5 -4.5s4.5 -8.16699 4.5 -15.5v-50c0 -13.333 -6.66699 -20 -20 -20h-70c-32.667 0 -58.334 9.33301 -77.001 28
s-28 44.334 -28 77.001c0 18.667 4.66699 35.667 14 51s19.666 28.666 30.999 39.999c12.667 12.667 27.667 24 45 34h-125c-116.667 0 -175 58.333 -175 175v510z" />
    <glyph glyph-name="uogonek" unicode="&#x173;" 
d="M420 0c-16.667 0 -24.998 8.33301 -24.998 25v25h-10c-2 -11.333 -6.66699 -21.333 -14 -30c-6 -7.33301 -14.667 -14.166 -26 -20.499s-26.333 -9.5 -45 -9.5h-85c-50 0 -88.333 13.333 -115 40s-40 65 -40 115v340c0 16.667 8.33301 25 25 25h90
c16.667 0 25 -8.33301 25 -25v-320c0 -15.333 4.5 -27.5 13.5 -36.5s21.167 -13.5 36.5 -13.5h85c17.333 0 31.666 5.66699 42.999 17s17 25.666 17 42.999v310c0 16.667 8.33301 25 25 25h90c16.667 0 25 -8.33301 25 -25v-460c0 -16.667 -8.33301 -25 -25 -25
c-18 -12.667 -34 -25.334 -48 -38.001c-12 -11.333 -22.833 -24 -32.5 -38s-14.5 -28.667 -14.5 -44c0 -20 10 -30 30 -30h49c8 0 13.5 -1.5 16.5 -4.5s4.5 -8.16699 4.5 -15.5v-50c0 -13.333 -6.66699 -20 -20 -20h-70c-32.667 0 -58.334 9.33301 -77.001 28
s-28 44.334 -28 77.001c0 21.333 5.66699 40.333 17 57s24 30.667 38 42c16 13.333 34.333 25.333 55 36h-10z" />
    <glyph glyph-name="Ydieresis" unicode="&#x178;" horiz-adv-x="698" 
d="M344 410h10l155 265c4.66699 7.33301 10 13.333 16 18s14 7 24 7h130c7.33301 0 12.833 -2.33301 16.5 -7s3.16699 -10.667 -1.5 -18l-265 -435v-215c0 -16.667 -8.33301 -25 -25 -25h-110c-16.667 -0 -25 8.33301 -25 25v215l-265 435
c-4.66699 7.33301 -5.16699 13.333 -1.5 18s9.16699 7 16.5 7h130c10 0 18 -2.33301 24 -7s11.333 -10.667 16 -18zM295 930c16.667 0 25 -8.33301 25 -25v-80c0 -16.667 -8.33301 -25 -25 -25h-85c-16.667 0 -25 8.33301 -25 25v80c0 16.667 8.33301 25 25 25h85zM500 930
c16.667 0 25 -8.33301 25 -25v-80c0 -16.667 -8.33301 -25 -25 -25h-85c-16.667 0 -25 8.33301 -25 25v80c0 16.667 8.33301 25 25 25h85z" />
    <glyph glyph-name="Zacute" unicode="&#x179;" horiz-adv-x="655" 
d="M415 560h-350c-16.667 0 -25 8.33301 -25 25v90c0 16.667 8.33301 25 25 25h530c16.667 0 25 -8.33301 25 -25v-90c0 -20 -2.33301 -34 -7 -42s-10.667 -15.667 -18 -23l-360 -370v-10h365c16.667 0 25 -8.33301 25 -25v-90c0 -16.667 -8.33301 -25 -25 -25h-545
c-16.667 -0 -25 8.33301 -25 25v90c0 20 2.33301 34 7 42s10.667 15.667 18 23l360 370v10zM398 795c-5.33301 -7.33301 -10.668 -13.333 -16.001 -18s-11.666 -7 -18.999 -7h-60c-16.667 0 -21.667 8.33301 -15 25l50 130c3.33301 7.33301 7.5 13.333 12.5 18
s12.5 7 22.5 7h95c7.33301 0 13 -2.33301 17 -7s3.33301 -10.667 -2 -18z" />
    <glyph glyph-name="zacute" unicode="&#x17a;" horiz-adv-x="505" 
d="M285 385h-220c-16.667 0 -25 8.33301 -25 25v75c0 16.667 8.33301 25 25 25h380c16.667 0 25 -8.33301 25 -25v-75c0 -20 -2.33301 -34 -7 -42s-10.667 -15.667 -18 -23l-230 -210v-10h235c16.667 0 25 -8.33301 25 -25v-75c0 -16.667 -8.33301 -25 -25 -25h-395
c-16.667 -0 -25 8.33301 -25 25v75c0 20 2.33301 34 7 42s10.667 15.667 18 23l230 210v10zM323 595c-5.33301 -7.33301 -10.668 -13.333 -16.001 -18s-11.666 -7 -18.999 -7h-60c-16.667 0 -21.667 8.33301 -15 25l50 130c3.33301 7.33301 7.5 13.333 12.5 18
s12.5 7 22.5 7h95c7.33301 0 13 -2.33301 17 -7s3.33301 -10.667 -2 -18z" />
    <glyph glyph-name="Zdotaccent" unicode="&#x17b;" horiz-adv-x="655" 
d="M415 560h-350c-16.667 0 -25 8.33301 -25 25v90c0 16.667 8.33301 25 25 25h530c16.667 0 25 -8.33301 25 -25v-90c0 -20 -2.33301 -34 -7 -42s-10.667 -15.667 -18 -23l-360 -370v-10h365c16.667 0 25 -8.33301 25 -25v-90c0 -16.667 -8.33301 -25 -25 -25h-545
c-16.667 -0 -25 8.33301 -25 25v90c0 20 2.33301 34 7 42s10.667 15.667 18 23l360 370v10zM375 930c16.667 0 25 -8.33301 25 -25v-80c0 -16.667 -8.33301 -25 -25 -25h-90c-16.667 0 -25 8.33301 -25 25v80c0 16.667 8.33301 25 25 25h90z" />
    <glyph glyph-name="zdotaccent" unicode="&#x17c;" horiz-adv-x="505" 
d="M285 385h-220c-16.667 0 -25 8.33301 -25 25v75c0 16.667 8.33301 25 25 25h380c16.667 0 25 -8.33301 25 -25v-75c0 -20 -2.33301 -34 -7 -42s-10.667 -15.667 -18 -23l-230 -210v-10h235c16.667 0 25 -8.33301 25 -25v-75c0 -16.667 -8.33301 -25 -25 -25h-395
c-16.667 -0 -25 8.33301 -25 25v75c0 20 2.33301 34 7 42s10.667 15.667 18 23l230 210v10zM305 730c16.667 0 25 -8.33301 25 -25v-80c0 -16.667 -8.33301 -25 -25 -25h-90c-16.667 0 -25 8.33301 -25 25v80c0 16.667 8.33301 25 25 25h90z" />
    <glyph glyph-name="Zcaron" unicode="&#x17d;" horiz-adv-x="655" 
d="M415 560h-350c-16.667 0 -25 8.33301 -25 25v90c0 16.667 8.33301 25 25 25h530c16.667 0 25 -8.33301 25 -25v-90c0 -20 -2.33301 -34 -7 -42s-10.667 -15.667 -18 -23l-360 -370v-10h365c16.667 0 25 -8.33301 25 -25v-90c0 -16.667 -8.33301 -25 -25 -25h-545
c-16.667 -0 -25 8.33301 -25 25v90c0 20 2.33301 34 7 42s10.667 15.667 18 23l360 370v10zM290 770c-10 0 -17.8311 2.33301 -23.498 7s-11.167 10.667 -16.5 18l-100 130c-6 7.33301 -6.83301 13.333 -2.5 18s10.166 7 17.499 7h70c12.667 0 22 -2.33301 28 -7
s11.667 -10.667 17 -18l45 -65h5l45 65c5.33301 7.33301 11 13.333 17 18s15.333 7 28 7h70c7.33301 0 13.166 -2.33301 17.499 -7s3.5 -10.667 -2.5 -18l-100 -130c-5.33301 -7.33301 -10.833 -13.333 -16.5 -18s-13.5 -7 -23.5 -7h-75z" />
    <glyph glyph-name="zcaron" unicode="&#x17e;" horiz-adv-x="505" 
d="M285 385h-220c-16.667 0 -25 8.33301 -25 25v75c0 16.667 8.33301 25 25 25h380c16.667 0 25 -8.33301 25 -25v-75c0 -20 -2.33301 -34 -7 -42s-10.667 -15.667 -18 -23l-230 -210v-10h235c16.667 0 25 -8.33301 25 -25v-75c0 -16.667 -8.33301 -25 -25 -25h-395
c-16.667 -0 -25 8.33301 -25 25v75c0 20 2.33301 34 7 42s10.667 15.667 18 23l230 210v10zM215 570c-10 0 -17.8311 2.33301 -23.498 7s-11.167 10.667 -16.5 18l-100 130c-6 7.33301 -6.83301 13.333 -2.5 18s10.166 7 17.499 7h70c12.667 0 22 -2.33301 28 -7
s11.667 -10.667 17 -18l45 -65h5l45 65c5.33301 7.33301 11 13.333 17 18s15.333 7 28 7h70c7.33301 0 13.166 -2.33301 17.499 -7s3.5 -10.667 -2.5 -18l-100 -130c-5.33301 -7.33301 -10.833 -13.333 -16.5 -18s-13.5 -7 -23.5 -7h-75z" />
    <glyph glyph-name="florin" unicode="&#x192;" horiz-adv-x="390" 
d="M-10 -100c0 16.667 8.33301 25 25 25h50c15.333 0 27.5 4.5 36.5 13.5s13.5 21.167 13.5 36.5v380h-50c-16.667 0 -25 8.33301 -25 25v75c0 16.667 8.33301 25 25 25h50v65c0 50 13.333 88.333 40 115s65 40 115 40h85c16.667 0 25 -8.33301 25 -25v-75
c0 -16.667 -8.33301 -25 -25 -25h-50c-15.333 0 -27.5 -4.5 -36.5 -13.5s-13.5 -21.167 -13.5 -36.5v-45h80c16.667 0 25 -8.33301 25 -25v-75c0 -16.667 -8.33301 -25 -25 -25h-80v-400c0 -50 -13.333 -88.333 -40 -115s-65 -40 -115 -40h-85c-16.667 0 -25 8.33301 -25 25
v75z" />
    <glyph glyph-name="Scommaaccent" unicode="&#x218;" horiz-adv-x="715" 
d="M505 205c0 24 -15 40.668 -45 50.001l-275 85c-40 12.667 -70 30.167 -90 52.5s-30 54.833 -30 97.5v45c0 116.667 58.333 175 175 175h240c116.667 0 175 -58.333 175 -175v-50c0 -16.667 -8.33301 -25 -25 -25h-110c-16.667 0 -25 8.33301 -25 25v30
c0 36.667 -18.333 55 -55 55h-160c-36.667 0 -55 -18.333 -55 -55v-10c0 -24.667 15 -41.334 45 -50.001l275 -85c40 -12.667 70 -30.167 90 -52.5s30 -54.833 30 -97.5v-55c0 -116.667 -58.333 -175 -175 -175h-265c-116.667 0 -175 58.333 -175 175v50
c0 16.667 8.33301 25 25 25h110c16.667 0 25 -8.33301 25 -25v-30c0 -36.667 18.333 -55 55 -55h185c36.667 0 55 18.333 55 55v20zM430 -174.999c0 -7.33301 -0.833008 -14.333 -2.5 -21s-3.5 -12.667 -5.5 -18l-7 -16l-30 -65c-2.66699 -5.33301 -6.5 -10 -11.5 -14
s-11.167 -6 -18.5 -6h-30c-7.33301 0 -12.333 2 -15 6s-2.66699 8.66699 0 14l40 85h-30c-16.667 0 -25 8.33301 -25 25v80c0 16.667 8.33301 25 25 25h85c16.667 0 25 -8.33301 25 -25v-70z" />
    <glyph glyph-name="scommaaccent" unicode="&#x219;" horiz-adv-x="545" 
d="M340 520c50 0 88.332 -13.332 114.999 -39.999s40 -65 40 -115v-10c0 -16.667 -8.33301 -25 -25 -25h-90c-16.667 0 -25 8.33301 -25 25c0 26.667 -13.333 40 -40 40h-100c-16.667 0 -25 -8.33301 -25 -25v-5c0 -14.667 8.33301 -24.667 25 -30l190 -60
c32.667 -10 57.5 -24.5 74.5 -43.5s25.5 -46.167 25.5 -81.5v-15c0 -96.667 -48.333 -145 -145 -145h-165c-50 0 -88.333 13.333 -115 40s-40 65 -40 115v15c0 16.667 8.33301 25 25 25h90c16.667 0 25 -8.33301 25 -25c0 -12.667 4.33301 -23.334 13 -32.001
s19.334 -13 32.001 -13h115c16.667 0 25 8.33301 25 25v5c0 14.667 -8.33301 24.667 -25 30l-190 60c-32.667 10 -57.5 24.5 -74.5 43.5s-25.5 46.167 -25.5 81.5v15c0 96.667 48.333 145 145 145h145zM339.999 -174.999c0 -7.33301 -0.833008 -14.333 -2.5 -21
s-3.5 -12.667 -5.5 -18l-7 -16l-30 -65c-2.66699 -5.33301 -6.5 -10 -11.5 -14s-11.167 -6 -18.5 -6h-30c-7.33301 0 -12.333 2 -15 6s-2.66699 8.66699 0 14l40 85h-30c-16.667 0 -25 8.33301 -25 25v80c0 16.667 8.33301 25 25 25h85c16.667 0 25 -8.33301 25 -25v-70z
" />
    <glyph glyph-name="afii57929" unicode="&#x2bc;" horiz-adv-x="195" 
d="M165 605c0 -7.33301 -0.833008 -14.333 -2.5 -21s-3.5 -12.667 -5.5 -18l-7 -16l-30 -65c-2.66699 -5.33301 -6.5 -10 -11.5 -14s-11.167 -6 -18.5 -6h-30c-7.33301 0 -12.333 2 -15 6s-2.66699 8.66699 0 14l40 85h-30c-16.667 0 -25 8.33301 -25 25v80
c0 16.667 8.33301 25 25 25h85c16.667 0 25 -8.33301 25 -25v-70z" />
    <glyph glyph-name="circumflex" unicode="&#x2c6;" horiz-adv-x="425" 
d="M250 700c10 0 17.8311 -2.33301 23.498 -7s11.167 -10.667 16.5 -18l100 -130c6 -7.33301 6.83301 -13.333 2.5 -18s-10.166 -7 -17.499 -7h-70c-12.667 0 -22 2.33301 -28 7s-11.667 10.667 -17 18l-45 65h-5l-45 -65c-5.33301 -7.33301 -11 -13.333 -17 -18
s-15.333 -7 -28 -7h-70c-7.33301 0 -13.166 2.33301 -17.499 7s-3.5 10.667 2.5 18l100 130c5.33301 7.33301 10.833 13.333 16.5 18s13.5 7 23.5 7h75z" />
    <glyph glyph-name="caron" unicode="&#x2c7;" horiz-adv-x="425" 
d="M175 520c-10 0 -17.8311 2.33301 -23.498 7s-11.167 10.667 -16.5 18l-100 130c-6 7.33301 -6.83301 13.333 -2.5 18s10.166 7 17.499 7h70c12.667 0 22 -2.33301 28 -7s11.667 -10.667 17 -18l45 -65h5l45 65c5.33301 7.33301 11 13.333 17 18s15.333 7 28 7h70
c7.33301 0 13.166 -2.33301 17.499 -7s3.5 -10.667 -2.5 -18l-100 -130c-5.33301 -7.33301 -10.833 -13.333 -16.5 -18s-13.5 -7 -23.5 -7h-75z" />
    <glyph glyph-name="breve" unicode="&#x2d8;" horiz-adv-x="395" 
d="M150 665c0 -10 3.33301 -18.333 10 -25s15 -10 25 -10h25c10 0 18.333 3.33301 25 10s10 15 10 25v10c0 16.667 8.33301 25 25 25h70c16.667 0 25 -8.33301 25 -25v-10c0 -86.667 -43.333 -130 -130 -130h-75c-86.667 0 -130 43.333 -130 130v10
c0 16.667 8.33301 25 25 25h70c16.667 0 25 -8.33301 25 -25v-10z" />
    <glyph glyph-name="dotaccent" unicode="&#x2d9;" horiz-adv-x="200" 
d="M145 700c16.667 0 25 -8.33301 25 -25v-80c0 -16.667 -8.33301 -25 -25 -25h-90c-16.667 0 -25 8.33301 -25 25v80c0 16.667 8.33301 25 25 25h90z" />
    <glyph glyph-name="ring" unicode="&#x2da;" horiz-adv-x="295" 
d="M265 575c0 -32.667 -9.33301 -58.334 -28 -77.001s-44.334 -28 -77.001 -28h-25c-32.667 0 -58.334 9.33301 -77.001 28s-28 44.334 -28 77.001v20c0 32.667 9.33301 58.334 28 77.001s44.334 28 77.001 28h25c32.667 0 58.334 -9.33301 77.001 -28
s28 -44.334 28 -77.001v-20zM185 595c0 20 -10 30 -30 30h-15c-20 0 -30 -10 -30 -30v-20c0 -20 10 -30 30 -30h15c20 0 30 10 30 30v20z" />
    <glyph glyph-name="ogonek" unicode="&#x2db;" horiz-adv-x="255" 
d="M220 0c-18 -12.667 -33.999 -25.334 -47.999 -38.001c-12 -11.333 -22.833 -24 -32.5 -38s-14.5 -28.667 -14.5 -44c0 -20 10 -30 30 -30h49c8 0 13.5 -1.5 16.5 -4.5s4.5 -8.16699 4.5 -15.5v-50c0 -13.333 -6.66699 -20 -20 -20h-70
c-32.667 0 -58.334 9.33301 -77.001 28s-28 44.334 -28 77.001c0 21.333 5.66699 40.333 17 57s24 30.667 38 42c16 13.333 34.333 25.333 55 36h80z" />
    <glyph glyph-name="tilde" unicode="&#x2dc;" horiz-adv-x="355" 
d="M250 535c-15.333 0 -28.1689 2.83301 -38.502 8.5s-19.333 12 -27 19l-21 19c-6.33301 5.66699 -12.5 8.5 -18.5 8.5c-5.33301 0 -10 -2 -14 -6s-6 -8.66699 -6 -14v-15c0 -5.33301 -2 -10 -6 -14s-8.66699 -6 -14 -6h-55c-5.33301 0 -10 2 -14 6s-6 8.66699 -6 14v70
c0 22.667 6.83301 40.834 20.5 54.501s31.834 20.5 54.501 20.5c14.667 0 27.334 -2.83301 38.001 -8.5s19.834 -12 27.501 -19l21 -19c6.33301 -5.66699 12.5 -8.5 18.5 -8.5c5.33301 0 10 2 14 6s6 8.66699 6 14v15c0 5.33301 2 10 6 14s8.66699 6 14 6h55
c5.33301 0 10 -2 14 -6s6 -8.66699 6 -14v-70c0 -22.667 -6.83301 -40.834 -20.5 -54.501s-31.834 -20.5 -54.501 -20.5z" />
    <glyph glyph-name="hungarumlaut" unicode="&#x2dd;" horiz-adv-x="423" 
d="M123 545c-5.33301 -7.33301 -10.668 -13.333 -16.001 -18s-11.666 -7 -18.999 -7h-40c-16.667 0 -21.667 8.33301 -15 25l50 130c3.33301 7.33301 7.5 13.333 12.5 18s12.5 7 22.5 7h75c7.33301 0 13 -2.33301 17 -7s3.33301 -10.667 -2 -18zM302.998 545
c-5.33301 -7.33301 -10.668 -13.333 -16.001 -18s-11.666 -7 -18.999 -7h-40c-16.667 0 -21.667 8.33301 -15 25l50 130c3.33301 7.33301 7.5 13.333 12.5 18s12.5 7 22.5 7h75c7.33301 0 13 -2.33301 17 -7s3.33301 -10.667 -2 -18z" />
    <glyph glyph-name="afii10023" unicode="&#x401;" horiz-adv-x="690" 
d="M240 140h395c16.667 0 25 -8.33301 25 -25v-90c0 -16.667 -8.33301 -25 -25 -25h-530c-16.667 -0 -25 8.33301 -25 25v650c0 16.667 8.33301 25 25 25h520c16.667 0 25 -8.33301 25 -25v-90c0 -16.667 -8.33301 -25 -25 -25h-385v-135h295c16.667 0 25 -8.33301 25 -25
v-90c0 -16.667 -8.33301 -25 -25 -25h-295v-145zM305 915c16.667 0 25 -8.33301 25 -25v-80c0 -16.667 -8.33301 -25 -25 -25h-85c-16.667 0 -25 8.33301 -25 25v80c0 16.667 8.33301 25 25 25h85zM510 915c16.667 0 25 -8.33301 25 -25v-80c0 -16.667 -8.33301 -25 -25 -25
h-85c-16.667 0 -25 8.33301 -25 25v80c0 16.667 8.33301 25 25 25h85z" />
    <glyph glyph-name="afii10051" unicode="&#x402;" horiz-adv-x="785" 
d="M455 95c0 16.667 8.33301 25 25 25h35c15.333 0 27.5 4.5 36.5 13.5s13.5 21.167 13.5 36.5v70c0 36.667 -18.333 55 -55 55h-190v-270c0 -16.667 -8.33301 -25 -25 -25h-110c-16.667 -0 -25 8.33301 -25 25v535h-135c-16.667 0 -25 8.33301 -25 25v90
c-0 16.667 8.33301 25 25 25h430c16.667 0 25 -8.33301 25 -25v-90c0 -16.667 -8.33301 -25 -25 -25h-135v-125h230c116.667 0 175 -58.333 175 -175v-125c0 -50 -13.333 -88.333 -40 -115s-65 -40 -115 -40h-90c-16.667 0 -25 8.33301 -25 25v90z" />
    <glyph glyph-name="afii10052" unicode="&#x403;" horiz-adv-x="610" 
d="M240 25c0 -16.667 -8.33301 -25 -25 -25h-110c-16.667 -0 -25 8.33301 -25 25v650c0 16.667 8.33301 25 25 25h470c16.667 0 25 -8.33301 25 -25v-90c0 -16.667 -8.33301 -25 -25 -25h-335v-535zM398 795c-5.33301 -7.33301 -10.668 -13.333 -16.001 -18
s-11.666 -7 -18.999 -7h-60c-16.667 0 -21.667 8.33301 -15 25l50 130c3.33301 7.33301 7.5 13.333 12.5 18s12.5 7 22.5 7h95c7.33301 0 13 -2.33301 17 -7s3.33301 -10.667 -2 -18z" />
    <glyph glyph-name="afii10053" unicode="&#x404;" horiz-adv-x="770" 
d="M710 485c0 -16.667 -8.33301 -25 -25 -25h-110c-16.667 0 -25 8.33301 -25 25v30c0 36.667 -18.333 55 -55 55h-210c-36.667 0 -55 -18.333 -55 -55v-90h210c16.667 0 25 -8.33301 25 -25v-90c0 -16.667 -8.33301 -25 -25 -25h-210v-100c0 -36.667 18.333 -55 55 -55h210
c36.667 0 55 18.333 55 55v30c0 16.667 8.33301 25 25 25h110c16.667 0 25 -8.33301 25 -25v-50c0 -116.667 -58.333 -175 -175 -175h-290c-116.667 0 -175 58.333 -175 175v370c0 116.667 58.333 175 175 175h290c116.667 0 175 -58.333 175 -175v-50z" />
    <glyph glyph-name="afii10054" unicode="&#x405;" horiz-adv-x="715" 
d="M505 205c0 24 -15 40.668 -45 50.001l-275 85c-40 12.667 -70 30.167 -90 52.5s-30 54.833 -30 97.5v45c0 116.667 58.333 175 175 175h240c116.667 0 175 -58.333 175 -175v-50c0 -16.667 -8.33301 -25 -25 -25h-110c-16.667 0 -25 8.33301 -25 25v30
c0 36.667 -18.333 55 -55 55h-160c-36.667 0 -55 -18.333 -55 -55v-10c0 -24.667 15 -41.334 45 -50.001l275 -85c40 -12.667 70 -30.167 90 -52.5s30 -54.833 30 -97.5v-55c0 -116.667 -58.333 -175 -175 -175h-265c-116.667 0 -175 58.333 -175 175v50
c0 16.667 8.33301 25 25 25h110c16.667 0 25 -8.33301 25 -25v-30c0 -36.667 18.333 -55 55 -55h185c36.667 0 55 18.333 55 55v20z" />
    <glyph glyph-name="afii10055" unicode="&#x406;" horiz-adv-x="320" 
d="M240 25c0 -16.667 -8.33301 -25 -25 -25h-110c-16.667 -0 -25 8.33301 -25 25v650c0 16.667 8.33301 25 25 25h110c16.667 0 25 -8.33301 25 -25v-650z" />
    <glyph glyph-name="afii10056" unicode="&#x407;" horiz-adv-x="320" 
d="M240 25c0 -16.667 -8.33301 -25 -25 -25h-110c-16.667 -0 -25 8.33301 -25 25v650c0 16.667 8.33301 25 25 25h110c16.667 0 25 -8.33301 25 -25v-650zM101 910c16.667 0 25 -8.33301 25 -25v-80c0 -16.667 -8.33301 -25 -25 -25h-85c-16.667 0 -25 8.33301 -25 25v80
c0 16.667 8.33301 25 25 25h85zM306 910c16.667 0 25 -8.33301 25 -25v-80c0 -16.667 -8.33301 -25 -25 -25h-85c-16.667 0 -25 8.33301 -25 25v80c0 16.667 8.33301 25 25 25h85z" />
    <glyph glyph-name="afii10057" unicode="&#x408;" horiz-adv-x="695" 
d="M615 165c0 -116.667 -58.333 -175 -175 -175h-235c-116.667 0 -175 58.333 -175 175v70c0 16.667 8.33301 25 25 25h110c16.667 0 25 -8.33301 25 -25v-50c0 -36.667 18.333 -55 55 -55h155c36.667 0 55 18.333 55 55v490c0 16.667 8.33301 25 25 25h110
c16.667 0 25 -8.33301 25 -25v-510z" />
    <glyph glyph-name="afii10058" unicode="&#x409;" horiz-adv-x="1125" 
d="M50 130c17.333 0 30.832 4.50098 40.499 13.501s16.167 21.167 19.5 36.5l105 495c3.33301 16.667 15 25 35 25h385c16.667 0 25 -8.33301 25 -25v-185h230c116.667 0 175 -58.333 175 -175v-140c0 -116.667 -58.333 -175 -175 -175h-365c-16.667 0 -25 8.33301 -25 25
v535h-150l-85 -405c-11.333 -52.667 -32.166 -93.334 -62.499 -122.001s-74.5 -43 -132.5 -43h-45c-16.667 0 -25 8.33301 -25 25v90c-0 16.667 8.33301 25 25 25h25zM849.999 140.001c36.667 0 55 18.333 55 55v100c0 36.667 -18.333 55 -55 55h-190v-210h190z" />
    <glyph glyph-name="afii10059" unicode="&#x40a;" horiz-adv-x="1145" 
d="M535 0c-16.667 0 -25 8.33301 -25 25v290h-270v-290c0 -16.667 -8.33301 -25 -25 -25h-110c-16.667 -0 -25 8.33301 -25 25v650c0 16.667 8.33301 25 25 25h110c16.667 0 25 -8.33301 25 -25v-220h270v220c0 16.667 8.33301 25 25 25h110c16.667 0 25 -8.33301 25 -25
v-220h240c116.667 0 175 -58.333 175 -175v-105c0 -116.667 -58.333 -175 -175 -175h-375zM670 315v-175h200c36.667 0 55 18.333 55 55v65c0 36.667 -18.333 55 -55 55h-200z" />
    <glyph glyph-name="afii10060" unicode="&#x40b;" horiz-adv-x="795" 
d="M320 435h230c116.667 0 175 -58.333 175 -175v-235c0 -16.667 -8.33301 -25 -25 -25h-110c-16.667 -0 -25 8.33301 -25 25v215c0 36.667 -18.333 55 -55 55h-190v-270c0 -16.667 -8.33301 -25 -25 -25h-110c-16.667 -0 -25 8.33301 -25 25v535h-135
c-16.667 0 -25 8.33301 -25 25v90c-0 16.667 8.33301 25 25 25h430c16.667 0 25 -8.33301 25 -25v-90c0 -16.667 -8.33301 -25 -25 -25h-135v-125z" />
    <glyph glyph-name="afii10061" unicode="&#x40c;" horiz-adv-x="719" 
d="M240 435h135l130 240c4 7.33301 9.16699 13.333 15.5 18s14.5 7 24.5 7h125c7.33301 0 12.666 -2.33301 15.999 -7s3 -10.667 -1 -18l-170 -305l190 -345c4 -7.33301 4.33301 -13.333 1 -18s-8.66602 -7 -15.999 -7h-125c-10 -0 -18.167 2.33301 -24.5 7
s-11.5 10.667 -15.5 18l-145 270h-140v-270c0 -16.667 -8.33301 -25 -25 -25h-110c-16.667 -0 -25 8.33301 -25 25v650c0 16.667 8.33301 25 25 25h110c16.667 0 25 -8.33301 25 -25v-240zM435 795c-5.33301 -7.33301 -10.668 -13.333 -16.001 -18s-11.666 -7 -18.999 -7
h-60c-16.667 0 -21.667 8.33301 -15 25l50 130c3.33301 7.33301 7.5 13.333 12.5 18s12.5 7 22.5 7h95c7.33301 0 13 -2.33301 17 -7s3.33301 -10.667 -2 -18z" />
    <glyph glyph-name="afii10062" unicode="&#x40e;" horiz-adv-x="656" 
d="M390 940c0 16.667 8.33301 25 25 25h80c16.667 0 25 -8.33301 25 -25v-25c0 -86.667 -43.333 -130 -130 -130h-120c-86.667 0 -130 43.333 -130 130v25c0 16.667 8.33301 25 25 25h80c16.667 0 25 -8.33301 25 -25v-5c0 -10 3.33301 -18.333 10 -25s15 -10 25 -10h50
c10 0 18.333 3.33301 25 10s10 15 10 25v5zM3 675c-3.33301 7.33301 -3.49902 13.333 -0.499023 18s8.16699 7 15.5 7h120c10 0 18.333 -2.33301 25 -7s11.667 -10.667 15 -18l155 -335h10l135 335c6.66699 16.667 20 25 40 25h120c7.33301 0 12.5 -2.33301 15.5 -7
s2.83301 -10.667 -0.5 -18l-230 -520c-11.333 -26 -23.833 -49.333 -37.5 -70s-29.834 -38 -48.501 -52s-40 -24.667 -64 -32s-52.333 -11 -85 -11h-40c-16.667 0 -25 8.33301 -25 25v90c0 16.667 8.33301 25 25 25h40c17.333 0 31 4.5 41 13.5s16.333 21.167 19 36.5z" />
    <glyph glyph-name="afii10145" unicode="&#x40f;" horiz-adv-x="790" 
d="M475 0v-95c0 -16.667 -8.33301 -25 -25 -25h-110c-16.667 0 -25 8.33301 -25 25v95h-210c-16.667 -0 -25 8.33301 -25 25v650c0 16.667 8.33301 25 25 25h110c16.667 0 25 -8.33301 25 -25v-535h310v535c0 16.667 8.33301 25 25 25h110c16.667 0 25 -8.33301 25 -25v-650
c0 -16.667 -8.33301 -25 -25 -25h-210z" />
    <glyph glyph-name="afii10017" unicode="&#x410;" horiz-adv-x="736" 
d="M233 145l-45 -120c-3.33301 -7.33301 -7.5 -13.333 -12.5 -18s-12.5 -7 -22.5 -7h-125c-16.667 -0 -21.667 8.33301 -15 25l245 650c6.66699 16.667 20 25 40 25h145c10 0 17.5 -2.33301 22.5 -7s9.16699 -10.667 12.5 -18l245 -650c6.66699 -16.667 1.66699 -25 -15 -25
h-125c-10 -0 -17.5 2.33301 -22.5 7s-9.16699 10.667 -12.5 18l-45 120h-270zM453 285l-80 215h-10l-80 -215h170z" />
    <glyph glyph-name="afii10018" unicode="&#x411;" horiz-adv-x="740" 
d="M515 445c116.667 0 175 -58.333 175 -175v-95c0 -116.667 -58.333 -175 -175 -175h-410c-16.667 -0 -25 8.33301 -25 25v650c0 16.667 8.33301 25 25 25h510c16.667 0 25 -8.33301 25 -25v-90c0 -16.667 -8.33301 -25 -25 -25h-375v-115h275zM475 140
c36.667 0 55 18.333 55 55v55c0 36.667 -18.333 55 -55 55h-235v-165h235z" />
    <glyph glyph-name="afii10019" unicode="&#x412;" horiz-adv-x="745" 
d="M80 675c0 16.667 8.33398 24.999 25.001 24.999h375c116.667 0 175 -58.333 175 -175v-35c0 -24 -3.66699 -43.167 -11 -57.5s-15.333 -25.5 -24 -33.5c-10.667 -9.33301 -22.334 -15.666 -35.001 -18.999v-10c20 -4 38.333 -11.333 55 -22
c13.333 -9.33301 25.833 -22.5 37.5 -39.5s17.5 -39.833 17.5 -68.5v-65c0 -116.667 -58.333 -175 -175 -175h-415c-16.667 -0 -25 8.33301 -25 25v650zM480.001 139.999c36.667 0 55 18.333 55 55v45c0 36.667 -18.333 55 -55 55h-240v-155h240zM240.001 559.999v-125h200
c36.667 0 55 18.333 55 55v15c0 36.667 -18.333 55 -55 55h-200z" />
    <glyph glyph-name="afii10020" unicode="&#x413;" horiz-adv-x="610" 
d="M240 25c0 -16.667 -8.33301 -25 -25 -25h-110c-16.667 -0 -25 8.33301 -25 25v650c0 16.667 8.33301 25 25 25h470c16.667 0 25 -8.33301 25 -25v-90c0 -16.667 -8.33301 -25 -25 -25h-335v-535z" />
    <glyph glyph-name="afii10021" unicode="&#x414;" horiz-adv-x="775" 
d="M75 140l115 535c3.33301 16.667 15 25 35 25h420c16.667 0 25 -8.33301 25 -25v-535h60c16.667 0 25 -8.33301 25 -25v-210c0 -16.667 -8.33301 -25 -25 -25h-110c-16.667 0 -25 8.33301 -25 25v95h-435v-95c0 -16.667 -8.33301 -25 -25 -25h-110
c-16.667 0 -25 8.33301 -25 25v210c-0 16.667 8.33301 25 25 25h50zM325 560l-45.5 -210.5l-44.5 -209.5h275v420h-185z" />
    <glyph glyph-name="afii10022" unicode="&#x415;" horiz-adv-x="690" 
d="M240 140h395c16.667 0 25 -8.33301 25 -25v-90c0 -16.667 -8.33301 -25 -25 -25h-530c-16.667 -0 -25 8.33301 -25 25v650c0 16.667 8.33301 25 25 25h520c16.667 0 25 -8.33301 25 -25v-90c0 -16.667 -8.33301 -25 -25 -25h-385v-135h295c16.667 0 25 -8.33301 25 -25
v-90c0 -16.667 -8.33301 -25 -25 -25h-295v-145z" />
    <glyph glyph-name="afii10024" unicode="&#x416;" horiz-adv-x="1018" 
d="M589 435h85l130 240c4 7.33301 9.16699 13.333 15.5 18s14.5 7 24.5 7h125c7.33301 0 12.666 -2.33301 15.999 -7s3 -10.667 -1 -18l-170 -305l190 -345c4 -7.33301 4.33301 -13.333 1 -18s-8.66602 -7 -15.999 -7h-125c-10 -0 -18.167 2.33301 -24.5 7
s-11.5 10.667 -15.5 18l-145 270h-90v-270c0 -16.667 -8.33301 -25 -25 -25h-110c-16.667 -0 -25 8.33301 -25 25v270h-90l-145 -270c-4 -7.33301 -9.16699 -13.333 -15.5 -18s-14.5 -7 -24.5 -7h-125c-7.33301 -0 -12.666 2.33301 -15.999 7s-3 10.667 1 18l190 345
l-170 305c-4 7.33301 -4.33301 13.333 -1 18s8.66602 7 15.999 7h125c10 0 18.167 -2.33301 24.5 -7s11.5 -10.667 15.5 -18l130 -240h85v240c0 16.667 8.33301 25 25 25h110c16.667 0 25 -8.33301 25 -25v-240z" />
    <glyph glyph-name="afii10025" unicode="&#x417;" horiz-adv-x="735" 
d="M665 480c0 -24 -4.66895 -43.168 -14.002 -57.501s-19.666 -25.5 -30.999 -33.5c-13.333 -9.33301 -28.333 -15.666 -45 -18.999v-10c18.667 -4 35.334 -11.333 50.001 -22c12.667 -9.33301 24.167 -22.5 34.5 -39.5s15.5 -39.833 15.5 -68.5v-65
c0 -116.667 -58.333 -175 -175 -175h-275c-116.667 0 -175 58.333 -175 175v50c0 16.667 8.33301 25 25 25h110c16.667 0 25 -8.33301 25 -25v-30c0 -36.667 18.333 -55 55 -55h195c36.667 0 55 18.333 55 55v45c0 36.667 -18.333 55 -55 55h-145
c-16.667 0 -25 8.33301 -25 25v90c0 16.667 8.33301 25 25 25h135c36.667 0 55 18.333 55 55v35c0 36.667 -18.333 55 -55 55h-175c-36.667 0 -55 -18.333 -55 -55v-30c0 -16.667 -8.33301 -25 -25 -25h-110c-16.667 0 -25 8.33301 -25 25v50c0 116.667 58.333 175 175 175
h255c116.667 0 175 -58.333 175 -175v-55z" />
    <glyph glyph-name="afii10026" unicode="&#x418;" horiz-adv-x="800" 
d="M550 455l-270 -430c-5.33301 -7.33301 -10.833 -13.333 -16.5 -18s-13.5 -7 -23.5 -7h-135c-16.667 -0 -25 8.33301 -25 25v650c0 16.667 8.33301 25 25 25h110c16.667 0 25 -8.33301 25 -25v-430h10l270 430c5.33301 7.33301 10.833 13.333 16.5 18s13.5 7 23.5 7h135
c16.667 0 25 -8.33301 25 -25v-650c0 -16.667 -8.33301 -25 -25 -25h-110c-16.667 -0 -25 8.33301 -25 25v430h-10z" />
    <glyph glyph-name="afii10027" unicode="&#x419;" horiz-adv-x="800" 
d="M460 940c0 16.667 8.33301 25 25 25h80c16.667 0 25 -8.33301 25 -25v-25c0 -86.667 -43.333 -130 -130 -130h-120c-86.667 0 -130 43.333 -130 130v25c0 16.667 8.33301 25 25 25h80c16.667 0 25 -8.33301 25 -25v-5c0 -10 3.33301 -18.333 10 -25s15 -10 25 -10h50
c10 0 18.333 3.33301 25 10s10 15 10 25v5zM550 455l-270 -430c-5.33301 -7.33301 -10.833 -13.333 -16.5 -18s-13.5 -7 -23.5 -7h-135c-16.667 -0 -25 8.33301 -25 25v650c0 16.667 8.33301 25 25 25h110c16.667 0 25 -8.33301 25 -25v-430h10l270 430
c5.33301 7.33301 10.833 13.333 16.5 18s13.5 7 23.5 7h135c16.667 0 25 -8.33301 25 -25v-650c0 -16.667 -8.33301 -25 -25 -25h-110c-16.667 -0 -25 8.33301 -25 25v430h-10z" />
    <glyph glyph-name="afii10028" unicode="&#x41a;" horiz-adv-x="719" 
d="M240 435h135l130 240c4 7.33301 9.16699 13.333 15.5 18s14.5 7 24.5 7h125c7.33301 0 12.666 -2.33301 15.999 -7s3 -10.667 -1 -18l-170 -305l190 -345c4 -7.33301 4.33301 -13.333 1 -18s-8.66602 -7 -15.999 -7h-125c-10 -0 -18.167 2.33301 -24.5 7
s-11.5 10.667 -15.5 18l-145 270h-140v-270c0 -16.667 -8.33301 -25 -25 -25h-110c-16.667 -0 -25 8.33301 -25 25v650c0 16.667 8.33301 25 25 25h110c16.667 0 25 -8.33301 25 -25v-240z" />
    <glyph glyph-name="afii10029" unicode="&#x41b;" horiz-adv-x="775" 
d="M50 130c17.333 0 30.832 4.50098 40.499 13.501s16.167 21.167 19.5 36.5l105 495c3.33301 16.667 15 25 35 25h420c16.667 0 25 -8.33301 25 -25v-650c0 -16.667 -8.33301 -25 -25 -25h-110c-16.667 0 -25 8.33301 -25 25v535h-185l-85 -405
c-11.333 -52.667 -32.166 -93.334 -62.499 -122.001s-74.5 -43 -132.5 -43h-45c-16.667 0 -25 8.33301 -25 25v90c-0 16.667 8.33301 25 25 25h25z" />
    <glyph glyph-name="afii10030" unicode="&#x41c;" horiz-adv-x="1000" 
d="M470 0c-10 0 -18.333 2.33301 -25 7s-11.667 10.667 -15 18l-180 395h-10v-395c0 -16.667 -8.33301 -25 -25 -25h-110c-16.667 -0 -25 8.33301 -25 25v650c0 16.667 8.33301 25 25 25h145c10 0 18.333 -2.33301 25 -7s11.667 -10.667 15 -18l205 -450h10l205 450
c3.33301 7.33301 8.33301 13.333 15 18s15 7 25 7h145c16.667 0 25 -8.33301 25 -25v-650c0 -16.667 -8.33301 -25 -25 -25h-110c-16.667 -0 -25 8.33301 -25 25v395h-10l-180 -395c-3.33301 -7.33301 -8.33301 -13.333 -15 -18s-15 -7 -25 -7h-60z" />
    <glyph glyph-name="afii10031" unicode="&#x41d;" horiz-adv-x="785" 
d="M240 420h305v255c0 16.667 8.33301 25 25 25h110c16.667 0 25 -8.33301 25 -25v-650c0 -16.667 -8.33301 -25 -25 -25h-110c-16.667 -0 -25 8.33301 -25 25v255h-305v-255c0 -16.667 -8.33301 -25 -25 -25h-110c-16.667 -0 -25 8.33301 -25 25v650
c0 16.667 8.33301 25 25 25h110c16.667 0 25 -8.33301 25 -25v-255z" />
    <glyph glyph-name="afii10032" unicode="&#x41e;" horiz-adv-x="795" 
d="M725 165c0 -116.667 -58.333 -175 -175 -175h-305c-116.667 0 -175 58.333 -175 175v370c0 116.667 58.333 175 175 175h305c116.667 0 175 -58.333 175 -175v-370zM565 515c0 36.667 -18.333 55 -55 55h-225c-36.667 0 -55 -18.333 -55 -55v-330
c0 -36.667 18.333 -55 55 -55h225c36.667 0 55 18.333 55 55v330z" />
    <glyph glyph-name="afii10033" unicode="&#x41f;" horiz-adv-x="785" 
d="M680 700c16.667 0 25 -8.33301 25 -25v-650c0 -16.667 -8.33301 -25 -25 -25h-110c-16.667 -0 -25 8.33301 -25 25v535h-305v-535c0 -16.667 -8.33301 -25 -25 -25h-110c-16.667 -0 -25 8.33301 -25 25v650c0 16.667 8.33301 25 25 25h575z" />
    <glyph glyph-name="afii10034" unicode="&#x420;" horiz-adv-x="750" 
d="M240 205v-180c0 -16.667 -8.33301 -25 -25 -25h-110c-16.667 -0 -25 8.33301 -25 25v650c0 16.667 8.33301 25 25 25h410c116.667 0 175 -58.333 175 -175v-145c0 -116.667 -58.333 -175 -175 -175h-275zM240 560v-215h235c36.667 0 55 18.333 55 55v105
c0 36.667 -18.333 55 -55 55h-235z" />
    <glyph glyph-name="afii10035" unicode="&#x421;" horiz-adv-x="770" 
d="M710 485c0 -16.667 -8.33301 -25 -25 -25h-110c-16.667 0 -25 8.33301 -25 25v30c0 36.667 -18.333 55 -55 55h-210c-36.667 0 -55 -18.333 -55 -55v-330c0 -36.667 18.333 -55 55 -55h210c36.667 0 55 18.333 55 55v30c0 16.667 8.33301 25 25 25h110
c16.667 0 25 -8.33301 25 -25v-50c0 -116.667 -58.333 -175 -175 -175h-290c-116.667 0 -175 58.333 -175 175v370c0 116.667 58.333 175 175 175h290c116.667 0 175 -58.333 175 -175v-50z" />
    <glyph glyph-name="afii10036" unicode="&#x422;" horiz-adv-x="630" 
d="M395 25c0 -16.667 -8.33301 -25 -25 -25h-110c-16.667 -0 -25 8.33301 -25 25v535h-200c-16.667 0 -25 8.33301 -25 25v90c0 16.667 8.33301 25 25 25h560c16.667 0 25 -8.33301 25 -25v-90c0 -16.667 -8.33301 -25 -25 -25h-200v-535z" />
    </font>
</defs>
</svg>
